<?xml version="1.0" encoding="UTF-8"?><svg xmlns="http://www.w3.org/2000/svg" viewBox="0 0 235 235"><defs><style>.d{fill:#4d4d4d;}.e{fill:none;}</style></defs><g id="a"/><g id="b"><g id="c"><rect class="e" width="235" height="235"/><path class="d" d="M33.98,30.64c4.51,1.23,9,2.5,13.52,3.69,8.84,2.32,17.7,4.59,26.54,6.9,1.22,.32,2.45,.65,2.73,2.16,.27,1.44-.49,2.58-2.13,2.9-4.33,.83-8.67,1.56-13,2.34-1.33,.24-2.65,.5-3.8,.71,5.98,5.96,12,11.96,18.19,18.13,.61-.47,1.58-1.22,2.54-1.97,11.91-9.39,25.4-15.01,40.43-16.86,16.43-2.02,32.07,.71,46.81,8.3,4.16,2.14,8.35,3.96,13.21,3.57,4.12-.33,7.8-1.69,11.02-4.28,.84-.67,1.62-1.41,2.48-2.05,2.92-2.18,7.11-1.85,9.6,.73,2.71,2.8,3.01,6.99,.46,9.85-4.46,5-10.15,7.99-16.59,9.67-.78,.2-1.61,.6-2.17,1.16-16.41,16.37-32.8,32.77-49.18,49.16-.32,.32-.6,.66-.97,1.08,4.79,4.79,9.54,9.54,14.31,14.27,1.35,1.34,2.62,3.29,4.24,3.68,1.55,.37,3.5-.89,5.27-1.48,3.97-1.31,7.94-2.59,11.88-3.98,1.59-.56,2.79-.29,3.95,.95,1.74,1.86,3.6,3.59,5.39,5.4,2.04,2.07,1.58,4.02-1.2,4.96-4.91,1.66-9.82,3.28-15.05,5.03,1.73,1.69,3.26,3.27,4.9,4.72,.32,.29,1.14,.22,1.65,.06,5.2-1.7,10.4-3.4,15.56-5.22,1.94-.69,3.43-.5,4.84,1.1,1.57,1.78,3.34,3.38,5,5.07,2.1,2.14,1.7,3.97-1.12,4.94-4.38,1.49-8.77,2.95-13.15,4.43-.52,.18-1.03,.38-2.02,.74,2.24,2.14,4.27,4.07,6.29,6.01,1.68,1.62,2.4,3.55,1.75,5.84-1.15,4.03-5.88,5.38-9.1,2.53-1.86-1.64-3.54-3.49-5.31-5.24-.39-.39-.8-.75-1.4-1.32-1.05,3.12-2.04,6.04-3.02,8.96-.68,2.03-1.34,4.07-2.03,6.1-.91,2.68-2.81,3.14-4.86,1.15-1.82-1.77-3.57-3.63-5.42-5.37-1.27-1.19-1.55-2.45-.98-4.11,1.83-5.28,3.52-10.6,5.36-15.87,.4-1.15,.18-1.83-.67-2.62-1.35-1.27-2.57-2.68-4.05-4.24-1.75,5.2-3.36,10-4.97,14.79-1.15,3.43-2.9,3.83-5.49,1.24-1.68-1.68-3.3-3.42-5.04-5.03-1.26-1.16-1.46-2.39-.92-3.96,1.79-5.17,3.46-10.38,5.28-15.54,.48-1.37,.23-2.22-.8-3.23-5.33-5.22-10.57-10.53-15.85-15.81-.35-.35-.73-.68-1.24-1.16-4.38,4.42-8.71,8.8-13.06,13.16-12.23,12.24-24.47,24.46-36.67,36.73-.74,.75-1.31,1.82-1.6,2.85-1.65,5.94-4.45,11.22-8.81,15.61-3,3.02-7.33,3.19-10.38,.46-3.04-2.72-3.37-7.13-.59-10.33,2.72-3.13,4.86-6.5,5.61-10.64,.7-3.88,.34-7.64-1.21-11.28-2.47-5.81-5.27-11.5-7.32-17.45-3.17-9.23-4.09-18.83-3.48-28.58,.98-15.68,6.06-29.89,15.15-42.67,1.37-1.93,2.89-3.75,4.28-5.53-6.12-6.09-12.18-12.11-18.25-18.16-.91,5.08-1.83,10.29-2.76,15.5-.07,.39-.16,.77-.22,1.16-.21,1.38-.88,2.35-2.38,2.39-1.49,.05-2.21-.85-2.57-2.21-2.1-8.08-4.23-16.15-6.35-24.23-1.37-5.24-2.7-10.49-4.13-15.72-.47-1.74-.28-3.1,1.39-4.04h1.7ZM122.99,114.92c13.97-13.97,27.93-27.93,41.86-41.86-28.73-17.02-59.27-11.17-78.46,5.26,12.22,12.22,24.43,24.43,36.6,36.6Zm-8.11,8.24c-12.19-12.2-24.43-24.46-36.67-36.71-18.25,21.83-20.78,52.48-5.15,78.51,13.95-13.94,27.93-27.91,41.83-41.79Z"/></g></g></svg>