<?xml version="1.0" encoding="UTF-8"?><svg xmlns="http://www.w3.org/2000/svg" viewBox="0 0 235 235"><defs><style>.d{fill:#4d4d4d;}.e{fill:none;}</style></defs><g id="a"/><g id="b"><g id="c"><rect class="e" width="235" height="235"/><path class="d" d="M21.47,180.59c-.78-3.29-2.11-6.57-2.21-9.89-.18-6.12,2.58-11.16,7.54-14.81,12.87-9.47,25.74-18.93,38.7-28.28,1.71-1.23,2.07-2.15,1.32-4.12-7.81-20.33-15.53-40.7-23.27-61.06-1.83-4.8-.46-9.71,3.73-12.92,16.83-12.9,35.83-18.7,57.02-17.3,2,.13,3.75,.57,4.23,2.86,.54,2.56-1.35,4.4-4.42,4.17-7.67-.56-15.26-.06-22.75,1.66-10.79,2.47-20.57,7.08-29.32,13.86-2.41,1.86-2.9,4.04-1.38,6,1.53,1.97,3.61,2.04,6.16,.18,19.2-14.04,40.18-17.58,62.88-10.54,8.19,2.54,15.53,6.75,22.09,12.3,.47,.4,.99,.75,1.48,1.12l6.15-4.87c-8.11-7.41-17.17-12.69-27.35-16.08-.89-.3-1.79-.55-2.67-.85-2.47-.84-3.52-2.47-2.94-4.51,.58-2.08,2.59-3.12,5.09-2.16,5.51,2.12,11.22,3.96,16.31,6.87,5.77,3.29,10.93,7.64,16.4,11.47,.59,.42,1.55,.83,2.15,.65,9.14-2.83,16.53-.29,22.4,7.11,.28,.35,.61,.66,1,1.09l8.66-6.85c-1.9-1.36-3.62-2.66-5.41-3.85-2.08-1.39-3.2-3.21-2.63-5.74,.57-2.55,2.43-3.61,4.89-3.98,8.54-1.29,17.08-2.66,25.62-3.95,3.92-.59,5.78,1.79,4.3,5.49-3.22,8.02-6.51,16.01-9.74,24.03-.93,2.31-2.42,3.84-5.02,3.81-2.6-.03-4.08-1.58-4.94-3.92-.73-1.96-1.56-3.88-2.44-6.06l-8.61,6.82c.96,1.44,2.07,2.92,2.98,4.51,3.7,6.44,3.57,12.93-.08,19.31-.75,1.3-.83,2.16-.1,3.53,16.78,31.25,12.95,67.41-10.11,94.39-3.22,3.77-7,7.1-10.79,10.32-4.05,3.45-9.16,3.34-13.62,.32-18.03-12.22-36.09-24.4-54.09-36.66-1.44-.98-2.25-.88-3.54,.24-12.16,10.49-24.34,20.94-36.61,31.3-7.36,6.22-16.97,6.21-24.45,.24-.29-.23-.66-.38-.98-.57l-11.61-14.67Zm126.41,8.41c2.29-2.53,4.18-4.97,6.42-7.02,18.47-16.94,24.93-37.61,19.2-61.97-.99-4.22-2.89-8.23-4.53-12.76-22.59,17.09-46.11,31.75-66.4,50.99,15.37,10.44,30.55,20.74,45.3,30.76ZM53.97,70.25l19.55,51.2c23.46-15.4,43.16-34.9,64.57-52.63-.99-.82-1.68-1.44-2.41-2.01-21.87-16.83-50.9-17.15-73.73-.92-2.34,1.67-5.07,2.79-7.98,4.35Zm-4.1,77.69c-.45,.21-.75,.3-.99,.48-6.15,4.52-12.39,8.91-18.39,13.6-5.07,3.96-5.75,11.1-1.81,16.3,2.54,3.35,5.18,6.62,7.81,9.9,4.73,5.9,11.88,6.66,17.66,1.84,5.26-4.39,10.45-8.85,15.67-13.29,.56-.48,1.05-1.05,1.6-1.6l-21.54-27.23Zm124.86-44.4c.25,.58,.49,1.23,.79,1.84,7.42,15.07,9.06,30.79,4.99,47.04-3.66,14.6-11.53,26.57-23.11,36.16-2.24,1.85-2.53,4.01-.97,5.88,1.53,1.83,3.78,1.92,5.97,.07,2.14-1.81,4.3-3.62,6.21-5.65,20.51-21.83,26.54-47.25,18.36-75.97-1.38-4.86-3.74-9.44-5.78-14.49l-6.47,5.12Zm-34.57-9.66l33.78-26.73c-4-7.33-12.45-9.12-18.64-3.92-7.33,6.16-14.54,12.46-21.79,18.71-.56,.48-1.03,1.06-1.55,1.59l8.19,10.35Zm12.72,16.11c.42-.16,.67-.19,.85-.32,8.38-6.08,16.88-11.99,25.08-18.3,5.92-4.55,5.63-13.32-.27-18.36l-33.78,26.72,8.12,10.27Zm-67.45,36.59c3.33,2.26,6.38,4.24,9.32,6.39,1.26,.92,2.05,.79,3.19-.2,6.34-5.52,12.73-10.98,19.14-16.41,2.12-1.8,4.35-3.46,6.56-5.21l-7.2-9.1-31.01,24.53Zm-4.52-5.8l30.97-24.5-7.2-9.1c-2.46,1.95-4.73,3.84-7.1,5.59-6.63,4.9-13.32,9.73-19.95,14.64-.54,.4-1.27,1.32-1.12,1.72,1.35,3.85,2.86,7.65,4.41,11.65Zm45.45-52.6c-5.47,4.74-10.78,9.35-16.17,14.02l7.5,9.48,16.77-13.26-8.09-10.23Zm12.67,16.04l-16.7,13.21,7.52,9.5c5.84-4.22,11.49-8.3,17.27-12.48l-8.1-10.23Zm-68.84,28.35l-14.26,11.29,8.22,10.39c3.43-2.72,6.76-5.28,9.98-7.98,.45-.38,.64-1.54,.43-2.15-1.28-3.66-2.72-7.27-4.36-11.54Zm20.84,26.36c-3.89-2.63-7.21-4.91-10.59-7.11-.4-.26-1.27-.34-1.61-.08-3.45,2.63-6.83,5.34-10.33,8.11l8.23,10.4,14.3-11.31ZM200.17,60.71l.6-.12c1.92-4.76,3.84-9.51,5.9-14.61-5.55,.86-10.59,1.65-15.62,2.43,4.83,2.79,8.18,6.6,9.12,12.3Z"/></g></g></svg>