<?xml version="1.0" encoding="UTF-8"?><svg xmlns="http://www.w3.org/2000/svg" viewBox="0 0 120.92 360.1"><defs><style>.d{fill:#fff;}.e{fill:#ed6f6d;}.f{fill:#d46b58;}.g{fill:#3d314c;}.h{fill:#493d5c;}.i{fill:#e8e6e9;}.j{fill:#e1dfde;}.k{fill:#f2937c;}.l{fill:#1078bd;}.m{fill:#e94b47;}.n{fill:#f5b59b;}</style></defs><g id="a"/><g id="b"><g id="c"><g><path class="i" d="M60.46,360.1c-33.39,0-60.46-4.11-60.46-9.17s27.07-9.17,60.46-9.17,60.46,4.11,60.46,9.17-27.07,9.17-60.46,9.17"/><path class="h" d="M33.4,188.8c-.04-12.42,3.03-20.75,3.03-20.75,19.95-1.29,51.32,0,51.32,0,.04,.12,.09,.24,.13,.36,0,0,3.22,11.34,1.34,20.39-19.41,12.02-38.11,11.23-55.81,0h0Z"/><path class="h" d="M89.59,186.45s4.29,58.44,3.79,73.03l3.85,76.6-12.74-.76c-2.77-35.1-7.5-52.7-7.36-75.34l-10.91-68.14s10.61-5.14,23.38-5.39h0Z"/><path class="m" d="M84.02,334.7c.36-5.04,4.86-7.78,9.45-6.52,4.49,1.23,5.03,8.72,5.03,8.72,0,0,5.48,4.87,6.68,13.5,.03,.19,.06,.38,.08,.58,.18,1.6-.94,3.06-2.52,3.32-7.96,1.32-15.69,1.42-23.15,.06-1.57-.28-2.66-1.74-2.45-3.34l.02-.18c.5-3.81,1.54-10.81,6.21-13.41l.66-2.73h0Z"/><path class="d" d="M85.79,340.5l-.4-.92c.28-.12,6.89-2.96,11.7,.19l-.55,.84c-4.37-2.85-10.69-.14-10.75-.11h0Z"/><path class="d" d="M86.62,340.37c-.1,.62-.68,1.03-1.3,.93-.62-.1-1.03-.68-.93-1.3,.1-.61,.68-1.03,1.3-.93,.62,.1,1.03,.68,.93,1.3h0Z"/><path class="d" d="M97.98,340.1c-.1,.61-.68,1.03-1.3,.93-.62-.1-1.03-.68-.93-1.3,.1-.62,.68-1.03,1.3-.93,.62,.1,1.03,.68,.93,1.3h0Z"/><path class="d" d="M85.91,337.67l-.4-.92c.28-.12,6.89-2.96,11.7,.19l-.55,.84c-4.36-2.85-10.69-.14-10.75-.11h0Z"/><path class="d" d="M86.73,337.54c-.1,.62-.68,1.03-1.3,.93-.62-.1-1.03-.68-.93-1.3,.1-.62,.68-1.03,1.3-.93,.62,.1,1.03,.68,.93,1.3h0Z"/><path class="d" d="M98.09,337.26c-.1,.62-.68,1.03-1.3,.93-.62-.1-1.03-.69-.93-1.3,.1-.62,.68-1.03,1.3-.93,.61,.1,1.03,.69,.93,1.3h0Z"/><path class="d" d="M85.79,343.33l-.4-.92c.28-.12,6.89-2.95,11.7,.19l-.55,.84c-4.37-2.85-10.69-.14-10.75-.11h0Z"/><path class="d" d="M86.62,343.2c-.1,.61-.68,1.03-1.3,.93-.62-.1-1.03-.68-.93-1.3,.1-.62,.68-1.03,1.3-.93,.62,.1,1.03,.68,.93,1.3h0Z"/><path class="d" d="M97.98,342.93c-.1,.62-.68,1.03-1.3,.93-.62-.1-1.03-.69-.93-1.3,.1-.61,.68-1.03,1.3-.93,.62,.1,1.03,.69,.93,1.3h0Z"/><path class="d" d="M94.11,331.43s-3.4-1.17-6.29,.25c-.26,.61-.3,1.49,0,2.32,0,0,3.9-.63,6.37-.15,0,0,.46-1.39-.08-2.42h0Z"/><path class="e" d="M102.73,354.3c-7.96,1.32-15.69,1.42-23.15,.06-1.57-.28-2.66-1.74-2.45-3.34l.02-.18c4.66,1.31,15.54,3.43,28.02-.44,.03,.19,.06,.38,.08,.58,.18,1.6-.94,3.06-2.52,3.32h0Z"/><path class="d" d="M76.01,193.66l-.37-.07c-.05,.27-.07,.55-.07,.82,0,2.2,1.57,4.14,3.81,4.54,.27,.05,.55,.07,.82,.07,2.2,0,4.14-1.57,4.54-3.81,.05-.27,.07-.55,.07-.82,0-2.2-1.57-4.14-3.81-4.54-.27-.05-.55-.07-.82-.07-2.2,0-4.14,1.57-4.54,3.81l.37,.07,.37,.07c.33-1.87,1.97-3.19,3.81-3.19,.23,0,.46,.02,.69,.06,1.87,.33,3.19,1.97,3.19,3.8,0,.23-.02,.46-.06,.69-.33,1.87-1.97,3.19-3.81,3.19-.23,0-.46-.02-.69-.06-1.87-.33-3.19-1.97-3.19-3.8,0-.23,.02-.46,.06-.69l-.37-.07h0Z"/><path class="d" d="M79.29,194.25c-.09,.49,.24,.96,.73,1.05,.49,.09,.96-.24,1.05-.73,.09-.49-.24-.96-.73-1.05-.49-.09-.96,.24-1.05,.73h0Z"/><path class="d" d="M82.31,258.97l-.37-.07c-.05,.28-.07,.55-.07,.82,0,2.2,1.57,4.14,3.81,4.54,.28,.05,.55,.07,.82,.07,2.2,0,4.14-1.57,4.54-3.81,.05-.27,.07-.55,.07-.82,0-2.2-1.57-4.14-3.81-4.54-.27-.05-.55-.07-.82-.07-2.2,0-4.14,1.57-4.54,3.81l.37,.07,.37,.07c.34-1.87,1.97-3.19,3.81-3.19,.23,0,.46,.02,.69,.06,1.87,.33,3.19,1.97,3.19,3.8,0,.23-.02,.46-.06,.69-.34,1.87-1.97,3.19-3.81,3.19-.23,0-.46-.02-.69-.06-1.87-.34-3.19-1.97-3.19-3.8,0-.23,.02-.46,.06-.69l-.37-.07h0Z"/><path class="d" d="M85.6,259.55c-.09,.49,.24,.96,.73,1.05,.49,.09,.96-.24,1.05-.73,.09-.49-.24-.96-.73-1.05-.49-.09-.96,.24-1.05,.73h0Z"/><path class="d" d="M85.65,320.55l-.37-.07c-.05,.27-.07,.55-.07,.82,0,2.2,1.57,4.14,3.81,4.54,.27,.05,.55,.07,.82,.07,2.2,0,4.14-1.57,4.54-3.81,.05-.28,.07-.55,.07-.82,0-2.2-1.57-4.14-3.81-4.54-.27-.05-.55-.07-.82-.07-2.2,0-4.14,1.57-4.54,3.81l.37,.07,.37,.07c.33-1.87,1.97-3.19,3.8-3.19,.23,0,.46,.02,.69,.06,1.87,.33,3.19,1.97,3.19,3.8,0,.23-.02,.46-.06,.69-.34,1.87-1.97,3.19-3.81,3.19-.23,0-.46-.02-.69-.06-1.87-.34-3.19-1.97-3.19-3.8,0-.23,.02-.46,.06-.69l-.37-.07h0Z"/><path class="d" d="M88.94,321.14c-.09,.49,.24,.96,.73,1.05,.49,.09,.96-.24,1.05-.73,.09-.49-.24-.96-.73-1.05-.49-.09-.96,.24-1.05,.73h0Z"/><polygon class="d" points="79.81 194.45 86.11 259.74 89.62 321.32 90.37 321.27 86.86 259.69 80.56 194.37 79.81 194.45 79.81 194.45"/><path class="h" d="M33.46,186.45s-4.29,58.44-3.79,73.03l-3.85,76.6,12.74-.76c2.77-35.1,7.5-52.7,7.36-75.34l10.91-68.14s-10.61-5.14-23.38-5.39h0Z"/><path class="m" d="M39.03,334.7c-.36-5.04-4.86-7.78-9.45-6.52-4.49,1.23-5.03,8.72-5.03,8.72,0,0-5.48,4.87-6.68,13.5-.03,.19-.06,.38-.08,.58-.18,1.6,.94,3.06,2.52,3.32,7.96,1.32,15.69,1.42,23.15,.06,1.57-.28,2.66-1.74,2.46-3.34l-.02-.18c-.5-3.81-1.54-10.81-6.21-13.41l-.66-2.73h0Z"/><path class="d" d="M37.26,340.5l.4-.92c-.28-.12-6.89-2.96-11.7,.19l.55,.84c4.37-2.85,10.69-.14,10.75-.11h0Z"/><path class="d" d="M36.43,340.37c.1,.62,.68,1.03,1.3,.93,.62-.1,1.03-.68,.93-1.3-.1-.61-.68-1.03-1.3-.93-.62,.1-1.03,.68-.93,1.3h0Z"/><path class="d" d="M25.07,340.1c.1,.61,.68,1.03,1.3,.93,.62-.1,1.03-.68,.93-1.3-.1-.62-.68-1.03-1.3-.93-.62,.1-1.03,.68-.93,1.3h0Z"/><path class="d" d="M37.14,337.67l.4-.92c-.28-.12-6.89-2.96-11.7,.19l.55,.84c4.37-2.85,10.69-.14,10.75-.11h0Z"/><path class="d" d="M36.31,337.54c.1,.62,.68,1.03,1.3,.93,.62-.1,1.03-.68,.93-1.3-.1-.62-.68-1.03-1.3-.93-.62,.1-1.03,.68-.93,1.3h0Z"/><path class="d" d="M24.96,337.26c.1,.62,.68,1.03,1.3,.93,.62-.1,1.03-.69,.93-1.3-.1-.62-.68-1.03-1.3-.93-.62,.1-1.03,.69-.93,1.3h0Z"/><path class="d" d="M37.26,343.33l.4-.92c-.28-.12-6.89-2.95-11.7,.19l.55,.84c4.37-2.85,10.69-.14,10.75-.11h0Z"/><path class="d" d="M36.43,343.2c.1,.61,.68,1.03,1.3,.93,.62-.1,1.03-.68,.93-1.3-.1-.62-.68-1.03-1.3-.93-.62,.1-1.03,.68-.93,1.3h0Z"/><path class="d" d="M25.07,342.93c.1,.62,.68,1.03,1.3,.93,.62-.1,1.03-.69,.93-1.3-.1-.61-.68-1.03-1.3-.93-.62,.1-1.03,.69-.93,1.3h0Z"/><path class="d" d="M28.94,331.43s3.4-1.17,6.29,.25c.27,.61,.3,1.49,0,2.32,0,0-3.9-.63-6.37-.15,0,0-.47-1.39,.08-2.42h0Z"/><path class="e" d="M20.32,354.3c7.96,1.32,15.69,1.42,23.15,.06,1.57-.28,2.66-1.74,2.46-3.34l-.02-.18c-4.66,1.31-15.54,3.43-28.02-.44-.03,.19-.06,.38-.08,.58-.18,1.6,.94,3.06,2.52,3.32h0Z"/><path class="d" d="M47.04,193.66l-.37,.07c.04,.23,.06,.46,.06,.69,0,1.84-1.32,3.47-3.19,3.8-.23,.04-.46,.06-.69,.06-1.84,0-3.47-1.31-3.81-3.19-.04-.23-.06-.46-.06-.69,0-1.84,1.32-3.47,3.19-3.8,.23-.04,.46-.06,.69-.06,1.84,0,3.47,1.31,3.81,3.19l.37-.07,.37-.07c-.4-2.24-2.35-3.81-4.54-3.81-.27,0-.54,.02-.82,.07-2.24,.4-3.81,2.35-3.81,4.54,0,.27,.02,.55,.07,.82,.4,2.24,2.35,3.81,4.54,3.81,.27,0,.54-.02,.82-.07,2.24-.4,3.81-2.35,3.81-4.54,0-.27-.02-.54-.07-.82l-.37,.07h0Z"/><path class="d" d="M43.75,194.25c.09,.49-.24,.96-.73,1.05-.49,.09-.96-.24-1.05-.73-.09-.49,.24-.96,.73-1.05,.49-.09,.96,.24,1.05,.73h0Z"/><path class="d" d="M40.74,258.97l-.37,.07c.04,.23,.06,.46,.06,.69,0,1.84-1.32,3.47-3.19,3.81-.23,.04-.46,.06-.69,.06-1.84,0-3.47-1.32-3.81-3.19-.04-.23-.06-.46-.06-.69,0-1.84,1.32-3.47,3.19-3.8,.23-.04,.46-.06,.69-.06,1.84,0,3.47,1.32,3.81,3.19l.37-.07,.37-.07c-.4-2.24-2.35-3.81-4.54-3.81-.27,0-.54,.02-.82,.07-2.24,.4-3.81,2.35-3.81,4.54,0,.27,.02,.54,.07,.82,.4,2.24,2.35,3.81,4.54,3.81,.27,0,.54-.02,.82-.07,2.24-.4,3.81-2.35,3.81-4.54,0-.27-.02-.54-.07-.82l-.37,.07h0Z"/><path class="d" d="M37.45,259.55c.09,.49-.24,.96-.73,1.05-.49,.09-.96-.24-1.05-.73-.09-.49,.24-.96,.73-1.05,.49-.09,.96,.24,1.05,.73h0Z"/><path class="d" d="M37.4,320.55l-.37,.07c.04,.23,.06,.46,.06,.69,0,1.84-1.32,3.47-3.19,3.81-.23,.04-.46,.06-.69,.06-1.84,0-3.47-1.32-3.81-3.19-.04-.23-.06-.46-.06-.69,0-1.84,1.32-3.47,3.19-3.8,.23-.04,.46-.06,.69-.06,1.84,0,3.47,1.32,3.81,3.19l.37-.07,.37-.07c-.4-2.24-2.35-3.81-4.54-3.81-.27,0-.54,.02-.82,.07-2.24,.4-3.81,2.35-3.81,4.54,0,.27,.02,.54,.07,.82,.4,2.24,2.35,3.81,4.54,3.81,.27,0,.54-.02,.82-.07,2.24-.4,3.81-2.35,3.81-4.54,0-.27-.02-.54-.07-.82l-.37,.07h0Z"/><path class="d" d="M34.11,321.14c.09,.49-.24,.96-.73,1.05-.49,.09-.96-.24-1.05-.73-.09-.49,.24-.96,.73-1.05,.49-.09,.96,.24,1.05,.73h0Z"/><polygon class="d" points="42.49 194.37 36.19 259.68 32.68 321.27 33.42 321.32 36.93 259.74 43.24 194.45 42.49 194.37 42.49 194.37"/><path class="l" d="M90.24,173.02c-9.94,5.2-18.62,8.01-28.33,7.94-9.71,.07-18.06-2.74-28-7.94l2.33-48.44-.25-56.5,18.66-5.01c2.38-.64,4.82-.95,7.26-.96,2.44,.01,4.88,.32,7.26,.96l18.66,5.01-.25,56.5,2.66,48.44h0Z"/><path class="n" d="M69.1,55.51l-.27,4.39-.34,5.5s-1.28,2.07-7.08,2.07-6.98-1.41-6.98-1.41l-.23-2.44-.78-8.1h15.69Z"/><path class="k" d="M69.1,55.51l-.27,4.39c-2.42,1.54-8.14,4.56-14.64,3.71l-.78-8.1h15.69Z"/><path class="g" d="M42.54,43.22s-1.99,2.63-.83,5.11c1.16,2.48,3.36,2.04,3.36,2.04,0,0-.22,3.27,1.77,4.22,1.99,.95,4.46-1.64,4.04-4.22-.42-2.58-4.25-8.95-8.34-7.16h0Z"/><path class="g" d="M79.3,43.22s1.99,2.63,.83,5.11c-1.16,2.48-3.37,2.04-3.37,2.04,0,0,.22,3.27-1.77,4.22-1.99,.95-4.46-1.64-4.04-4.22,.42-2.58,4.25-8.95,8.34-7.16h0Z"/><path class="k" d="M46.67,29.86s-3.52-5.28-8.8-2.82c-5.28,2.46-3.28,18.26,5.93,16.96,0,0,4.46-6.58,2.87-14.15h0Z"/><path class="f" d="M41.65,38.78c-.39,0-.72-.31-.73-.7-.16-3.69-2.91-6.34-2.94-6.36-.29-.28-.31-.74-.03-1.04,.28-.29,.74-.31,1.04-.03,.13,.12,3.21,3.07,3.4,7.37,.02,.4-.3,.75-.7,.77h-.03Z"/><path class="f" d="M38.84,37.02h-.11c-.4-.07-.68-.44-.62-.84,.01-.09,.33-2.1,2.17-2.82,.38-.15,.8,.04,.95,.42,.15,.38-.04,.8-.42,.95-1.04,.4-1.25,1.66-1.25,1.67-.05,.36-.37,.63-.73,.63h0Z"/><path class="k" d="M76.17,30.12s2.11-5.63,7.4-3.17c5.28,2.46,3.28,18.26-5.93,16.96,0,0-3.05-6.22-1.46-13.8h0Z"/><path class="f" d="M80.15,38.78h-.03c-.4-.02-.72-.36-.7-.77,.19-4.3,3.27-7.25,3.4-7.37,.3-.28,.76-.27,1.04,.03,.28,.29,.26,.76-.03,1.04-.04,.04-2.78,2.69-2.94,6.36-.02,.39-.34,.7-.73,.7h0Z"/><path class="f" d="M82.96,37.02c-.36,0-.67-.26-.73-.62,0-.03-.22-1.27-1.25-1.67-.38-.15-.56-.58-.42-.95,.15-.38,.57-.56,.95-.42,1.84,.72,2.16,2.74,2.17,2.82,.06,.4-.22,.77-.62,.83h-.11Z"/><path class="n" d="M41.34,17.14s-5.05,41.52,19.65,41.52,18.49-41.88,18.49-41.88l-38.15,.37h0Z"/><path class="g" d="M51.82,30.62c0,1,.81,1.81,1.81,1.81s1.81-.81,1.81-1.81-.81-1.81-1.81-1.81-1.81,.81-1.81,1.81h0Z"/><path class="g" d="M70.9,30.62c0,1-.81,1.81-1.81,1.81s-1.81-.81-1.81-1.81,.81-1.81,1.81-1.81,1.81,.81,1.81,1.81h0Z"/><path class="g" d="M67.03,22.51s-1.63,1.8-1.06,2.76c0,0,6.14,1.6,9.32,3.87,0,0,.79-2.77-1.75-4.2-2.54-1.43-6.51-2.43-6.51-2.43h0Z"/><path class="g" d="M56,22.51s1.47,1.92,.82,2.83c0,0-6.23,1.08-9.59,3.07,0,0-.55-2.82,2.09-4.03,2.65-1.21,6.68-1.87,6.68-1.87h0Z"/><path class="k" d="M60.42,41.07c-.83,0-1.65-.17-2.28-.38-.38-.13-.59-.54-.46-.93,.13-.39,.54-.59,.93-.46,.03,0,3.05,.96,3.66-.62,.57-1.49-.46-5.89-1.24-8.31-.12-.39,.09-.8,.47-.93,.39-.13,.8,.09,.93,.47,.22,.69,2.17,6.83,1.22,9.3-.55,1.43-1.89,1.87-3.22,1.87h0Z"/><path class="k" d="M61.44,53.31c-1.17,0-2.5-.27-3.84-1.11-.23-.14-.3-.45-.15-.68,.14-.23,.45-.3,.67-.15,3.22,2.02,6.44,.25,6.57,.17,.23-.13,.53-.05,.67,.18,.13,.23,.05,.53-.18,.67-.1,.06-1.65,.92-3.74,.92h0Z"/><path class="d" d="M53.62,43.59s.17,.9,.69,2.04c.19,.42,.43,.86,.73,1.31,1.11,1.68,3.03,3.35,6.25,3.35,3.61,0,5.58-1.69,6.65-3.38h0c.29-.46,.51-.91,.68-1.33,.45-1.11,.55-1.98,.55-1.98,0,0-6.62,2.35-15.55,0h0Z"/><path class="j" d="M63.7,47.11s2.42,.2,4.25-.21h0c.29-.46,.51-.91,.68-1.33-.8,.39-2.79,1.27-4.93,1.54h0Z"/><path class="j" d="M54.32,45.63c.19,.42,.43,.86,.73,1.31,1.81,.36,4.09,.17,4.09,.17-2.04-.26-3.95-1.07-4.82-1.48h0Z"/><path class="g" d="M65.41,41.1c1.4-.3,2.84-.68,4.45-.84,.4-.04,.82-.07,1.26-.06,.44,0,.9,.04,1.41,.16,.25,.06,.51,.14,.78,.25,.13,.05,.27,.12,.4,.2,.14,.08,.28,.17,.41,.27,.53,.4,.92,.94,1.17,1.46,.25,.52,.39,1.04,.47,1.53,.08,.49,.1,.95,.09,1.4-.02,.9-.15,1.74-.34,2.55-.39,1.61-1.01,3.12-1.81,4.54-.4,.71-.85,1.4-1.37,2.06-.13,.16-.26,.33-.4,.49l-.21,.24-.25,.26c-.34,.35-.71,.66-1.09,.94-1.54,1.1-3.21,1.66-4.83,2-1.63,.33-3.24,.44-4.84,.4-1.6-.12-3.16-.38-4.72-.81-.78-.21-1.55-.48-2.34-.82-.4-.18-.79-.38-1.2-.63l-.16-.1-.18-.12c-.11-.08-.22-.16-.32-.24-.2-.16-.38-.33-.55-.49-.34-.33-.62-.67-.89-1-.27-.34-.51-.68-.74-1.02-.46-.68-.86-1.37-1.23-2.08-.37-.71-.71-1.42-1.02-2.16-.31-.74-.58-1.5-.8-2.3-.22-.8-.39-1.64-.43-2.57-.02-.46,0-.96,.09-1.49,.09-.53,.26-1.11,.61-1.7,.34-.59,.92-1.17,1.59-1.49,.32-.17,.68-.28,.98-.34,.29-.06,.57-.1,.82-.1,1.02-.04,1.82,.15,2.59,.36,.76,.22,1.47,.48,2.16,.72,.35,.11,.69,.23,1.02,.32,.34,.1,.64,.16,1.01,.25,.71,.16,1.42,.33,2.12,.43,.7,.11,1.41,.17,2.11,.19,.7,.02,1.4-.03,2.09-.17,.69-.13,1.37-.31,2.05-.47h0Zm-15.08,2.35s-.07,.16-.1,.35c-.03,.19-.05,.43-.05,.69,0,.53,.08,1.13,.2,1.75,.25,1.23,.69,2.51,1.29,3.69,.3,.59,.63,1.16,1,1.67,.37,.51,.78,.98,1.18,1.32,.1,.08,.19,.16,.28,.21l.12,.07,.14,.07c.22,.11,.49,.21,.77,.31,.56,.2,1.19,.35,1.82,.48,1.28,.25,2.61,.38,3.93,.38,1.31,.08,2.63,.06,3.86-.14,1.23-.19,2.4-.56,3.26-1.12,.22-.14,.41-.29,.59-.45l.13-.13,.16-.16c.11-.11,.21-.23,.31-.34,.4-.47,.78-.98,1.13-1.52,.69-1.08,1.25-2.27,1.61-3.47,.18-.6,.3-1.2,.35-1.76,.05-.55-.01-1.07-.13-1.35-.06-.14-.1-.21-.15-.26l-.04-.04-.08-.06c-.06-.04-.15-.08-.25-.12-.41-.16-1.03-.23-1.67-.25-1.3-.02-2.73,.16-4.21,.3-.76,.06-1.52,.05-2.29,.03-.76-.03-1.52-.04-2.28-.06-.75-.02-1.5-.06-2.25-.09-.74-.03-1.48-.04-2.22-.05-.18,0-.36,0-.57-.02l-.58-.04-1.13-.07c-.74-.04-1.46-.05-2.14-.04-.67,0-1.32,.04-1.76,.12-.11,.02-.18,.04-.24,.07l-.02,.04h0Z"/><path class="g" d="M40.07,20.33s-6.56-3.1-5.3-10.86c.76-4.66,6.33-7.06,9.68-4.21,0,0,.37-3.86,7.37-5.14,5.02-.92,8.19,3.8,8.19,3.8,0,0,1.55-2.59,7.28-1.96,5.04,.55,6.15,4.08,6.15,4.08,0,0,4.05-1.77,7.64,.16,6.08,3.27,1.6,10.45,0,12.41,0,0,2.51,7.57-.93,11.83h-1.21s-1.53-3.19-.12-6.99c0,0-2.51-3.22-2.26-5.56,0,0-7.49,2.22-10.69,0,0,0-4.01,2.44-8.21,.72,0,0-7.94,1.96-11.5,.16,0,0,.27,5.31-2.26,6.29,0,0,.56,3.83-1.06,5.55h-1.75s-3.18-6.53-1-10.29h0Z"/><path class="n" d="M17.83,172.97s1.11,3.68,2.34,6.36c1.23,2.68,.39,4.74,1.12,7.16,.74,2.42-2.15,2.24-2.71-.3-.56-2.53-.32-3.73-.85-3.82-.53-.08-2.04,6.1-2.26,7.87-.22,1.77,.15,6.22-.52,6.91-.67,.69-2.26-1.81-1.76-6.43,.51-4.62,.13-4.52,.13-4.52,0,0-.44,1.79-.9,3.72-.46,1.93-.46,4.28-.38,5.6,.09,1.32-1.26,1.97-1.65,1.27-.4-.71-1.03-5.31-.49-7.11,.53-1.8,1.18-4.88,1.18-4.88,0,0-1.77,4.14-2.07,5.2-.3,1.07,.2,5.14-.73,5.89-.38,.31-1.62-.1-1.41-5.91,0,0,.42-2.83,1.04-4.59,0,0-.95,1.31-1.41,3.07-.41,1.55-.63,3.18-.77,4.75-.14,1.57-1.5,1.36-1.5-1.41,0-2.77,.46-5.82,1.24-7.29,.78-1.47,1.91-10.09,4.22-13.25l8.12,1.71h0Z"/><path class="l" d="M43.89,80.64s-6.63,30.68-12.18,41.3c0,0-3.05,14.93-13.67,51.59,0,0-5.54,2.2-8.78-2,0,0,5.13-40.3,8.22-53.18,0,0,13.87-44.52,18.51-50.26,0,0,7.16,2.91,7.89,12.56h0Z"/><path class="d" d="M42,77.73h-.38c0,1.07-.43,2.04-1.13,2.74-.7,.7-1.67,1.13-2.74,1.13s-2.04-.43-2.74-1.13c-.7-.7-1.13-1.67-1.13-2.74,0-1.07,.43-2.04,1.13-2.74,.7-.7,1.67-1.13,2.74-1.13s2.04,.43,2.74,1.13c.7,.7,1.13,1.67,1.13,2.74h.75c0-2.55-2.07-4.62-4.62-4.62s-4.62,2.07-4.62,4.62c0,2.55,2.07,4.62,4.62,4.62s4.62-2.07,4.62-4.62h-.38Z"/><path class="d" d="M38.66,77.73c0,.5-.41,.91-.91,.91s-.91-.41-.91-.91,.41-.91,.91-.91,.91,.41,.91,.91h0Z"/><path class="d" d="M29.9,119.91h-.38c0,1.07-.43,2.03-1.13,2.74-.7,.7-1.67,1.13-2.74,1.13s-2.04-.43-2.74-1.13c-.7-.7-1.13-1.67-1.13-2.74,0-1.07,.43-2.04,1.13-2.74,.7-.7,1.67-1.13,2.74-1.13s2.04,.43,2.74,1.13c.7,.7,1.13,1.67,1.13,2.74h.75c0-2.55-2.07-4.62-4.62-4.62s-4.62,2.07-4.62,4.62c0,2.55,2.07,4.62,4.62,4.62,2.55,0,4.62-2.07,4.62-4.62h-.38Z"/><path class="d" d="M26.56,119.91c0,.5-.41,.9-.91,.9s-.91-.4-.91-.9,.41-.91,.91-.91,.91,.41,.91,.91h0Z"/><path class="d" d="M17.07,178.33h-.38c0,1.07-.43,2.04-1.13,2.74-.7,.7-1.67,1.13-2.74,1.13-1.07,0-2.04-.43-2.74-1.13-.7-.7-1.13-1.67-1.13-2.74,0-1.07,.43-2.03,1.13-2.74,.7-.7,1.67-1.13,2.74-1.13,1.07,0,2.04,.43,2.74,1.13,.7,.7,1.13,1.67,1.13,2.74h.75c0-2.55-2.07-4.62-4.62-4.62-2.55,0-4.62,2.07-4.62,4.62,0,2.55,2.07,4.62,4.62,4.62,2.55,0,4.62-2.07,4.62-4.62h-.38Z"/><path class="d" d="M13.73,178.33c0,.5-.41,.91-.91,.91s-.91-.41-.91-.91,.41-.91,.91-.91,.91,.41,.91,.91h0Z"/><polygon class="d" points="37.39 77.62 25.29 119.82 12.46 178.25 13.19 178.41 26.02 120 38.11 77.83 37.39 77.62 37.39 77.62"/><path class="n" d="M106.25,172.97s-1.11,3.68-2.34,6.36c-1.23,2.68-.39,4.74-1.12,7.16-.74,2.42,2.15,2.24,2.71-.3,.56-2.53,.32-3.73,.85-3.82,.53-.08,2.04,6.1,2.25,7.87,.22,1.77-.15,6.22,.52,6.91,.67,.69,2.26-1.81,1.76-6.43-.51-4.62-.13-4.52-.13-4.52,0,0,.44,1.79,.9,3.72,.46,1.93,.46,4.28,.38,5.6-.09,1.32,1.26,1.97,1.65,1.27,.4-.71,1.03-5.31,.49-7.11-.54-1.8-1.18-4.88-1.18-4.88,0,0,1.77,4.14,2.07,5.2,.3,1.07-.2,5.14,.73,5.89,.38,.31,1.62-.1,1.41-5.91,0,0-.43-2.83-1.04-4.59,0,0,.95,1.31,1.41,3.07,.41,1.55,.63,3.18,.77,4.75,.13,1.57,1.49,1.36,1.5-1.41,0-2.77-.46-5.82-1.24-7.29-.78-1.47-1.91-10.09-4.22-13.25l-8.12,1.71h0Z"/><path class="l" d="M80.19,80.64s6.63,30.68,12.18,41.3c0,0,3.05,14.93,13.67,51.59,0,0,5.54,2.2,8.78-2,0,0-5.13-40.3-8.22-53.18,0,0-13.87-44.52-18.51-50.26,0,0-7.16,2.91-7.89,12.56h0Z"/><path class="d" d="M82.08,77.73h-.38c0,2.55,2.07,4.62,4.62,4.62s4.62-2.07,4.62-4.62-2.07-4.62-4.62-4.62-4.62,2.07-4.62,4.62h.75c0-1.07,.43-2.04,1.13-2.74,.7-.7,1.67-1.13,2.74-1.13s2.04,.43,2.74,1.13c.7,.7,1.13,1.67,1.13,2.74s-.43,2.04-1.13,2.74-1.67,1.13-2.74,1.13-2.04-.43-2.74-1.13c-.7-.7-1.13-1.67-1.13-2.74h-.38Z"/><path class="d" d="M85.42,77.73c0,.5,.41,.91,.91,.91s.91-.41,.91-.91-.41-.91-.91-.91-.91,.41-.91,.91h0Z"/><path class="d" d="M94.17,119.91h-.38c0,2.55,2.07,4.62,4.62,4.62,2.55,0,4.62-2.07,4.62-4.62s-2.07-4.62-4.62-4.62-4.62,2.07-4.62,4.62h.75c0-1.07,.43-2.04,1.13-2.74,.7-.7,1.67-1.13,2.74-1.13s2.03,.43,2.74,1.13c.7,.7,1.13,1.67,1.13,2.74s-.43,2.03-1.13,2.74c-.7,.7-1.67,1.13-2.74,1.13s-2.04-.43-2.74-1.13c-.7-.7-1.13-1.67-1.13-2.74h-.38Z"/><path class="d" d="M97.51,119.91c0,.5,.41,.9,.91,.9s.91-.4,.91-.9-.41-.91-.91-.91-.91,.41-.91,.91h0Z"/><path class="d" d="M107,178.33h-.38c0,2.55,2.07,4.62,4.62,4.62,2.55,0,4.62-2.07,4.62-4.62s-2.07-4.62-4.62-4.62c-2.55,0-4.62,2.07-4.62,4.62h.75c0-1.07,.43-2.03,1.13-2.74,.7-.7,1.67-1.13,2.74-1.13,1.07,0,2.04,.43,2.74,1.13,.7,.7,1.13,1.67,1.13,2.74s-.43,2.04-1.13,2.74-1.67,1.13-2.74,1.13c-1.07,0-2.04-.43-2.74-1.13-.7-.7-1.13-1.67-1.13-2.74h-.38Z"/><path class="d" d="M110.34,178.33c0,.5,.41,.91,.91,.91s.91-.41,.91-.91-.41-.91-.91-.91-.91,.41-.91,.91h0Z"/><polygon class="d" points="85.96 77.83 98.05 120 110.88 178.41 111.61 178.25 98.78 119.82 86.69 77.62 85.96 77.83 85.96 77.83"/></g></g></g></svg>