<?xml version="1.0" encoding="UTF-8"?><svg xmlns="http://www.w3.org/2000/svg" viewBox="0 0 121.94 372.73"><defs><style>.d{fill:#fff;}.e{fill:#009059;}.f{fill:#ef7b62;}.g{fill:#d5951f;}.h{fill:#352e32;}.i{fill:#3d314c;}.j{fill:#e8e6e9;}.k{fill:#f39975;}.l{fill:#b97923;}.m{fill:#e1dfde;}.n{fill:#f5a67f;}</style></defs><g id="a"/><g id="b"><g id="c"><g><path class="j" d="M60.97,372.73c-33.67,0-60.97-4.14-60.97-9.25s27.3-9.25,60.97-9.25,60.97,4.14,60.97,9.25-27.3,9.25-60.97,9.25"/><path class="h" d="M30.93,195.77c-.04-12.83,3.13-21.44,3.13-21.44,20.61-1.33,53.01,0,53.01,0,.04,.12,.09,.25,.13,.37,0,0,3.33,11.71,1.38,21.06-20.05,12.42-39.37,11.6-57.66,0h0Z"/><path class="h" d="M88.98,193.34s4.43,60.38,3.91,75.45l3.97,79.14-13.16-.78c-2.86-36.26-7.75-54.45-7.61-77.84l-11.27-70.4s10.96-5.31,24.16-5.57h0Z"/><path class="g" d="M83.23,346.49c.37-5.2,5.02-8.04,9.76-6.74,4.64,1.27,5.19,9.01,5.19,9.01,0,0,5.66,5.03,6.9,13.95,.03,.2,.06,.39,.08,.6,.19,1.65-.97,3.16-2.6,3.43-8.22,1.36-16.21,1.47-23.92,.06-1.62-.29-2.74-1.8-2.54-3.45l.02-.19c.52-3.94,1.59-11.17,6.41-13.85l.69-2.82h0Z"/><path class="d" d="M85.06,352.49l-.42-.95c.29-.13,7.12-3.05,12.09,.2l-.57,.87c-4.51-2.94-11.04-.14-11.11-.11h0Z"/><path class="d" d="M85.92,352.35c-.11,.64-.71,1.07-1.34,.96-.64-.11-1.07-.71-.96-1.34,.11-.64,.71-1.07,1.34-.96,.63,.11,1.06,.71,.96,1.34h0Z"/><path class="d" d="M97.65,352.07c-.11,.64-.71,1.07-1.34,.96-.64-.11-1.07-.71-.96-1.34,.11-.64,.71-1.07,1.34-.96,.64,.11,1.07,.71,.96,1.34h0Z"/><path class="d" d="M85.18,349.56l-.42-.95c.29-.13,7.11-3.05,12.09,.2l-.57,.87c-4.51-2.94-11.04-.14-11.11-.11h0Z"/><path class="d" d="M86.03,349.42c-.11,.64-.71,1.07-1.34,.96-.64-.1-1.07-.71-.96-1.34,.11-.64,.71-1.07,1.34-.96,.64,.11,1.07,.71,.96,1.34h0Z"/><path class="d" d="M97.77,349.14c-.11,.64-.71,1.07-1.34,.96-.64-.11-1.06-.71-.96-1.34,.11-.64,.71-1.07,1.34-.96,.64,.11,1.07,.71,.96,1.34h0Z"/><path class="d" d="M85.06,355.41l-.42-.95c.29-.13,7.12-3.05,12.09,.19l-.57,.87c-4.51-2.94-11.04-.14-11.11-.11h0Z"/><path class="d" d="M85.92,355.27c-.11,.64-.71,1.07-1.34,.96-.64-.11-1.07-.71-.96-1.34,.11-.64,.71-1.06,1.34-.96,.63,.11,1.06,.71,.96,1.34h0Z"/><path class="d" d="M97.65,354.99c-.11,.64-.71,1.07-1.34,.96-.64-.11-1.07-.71-.96-1.34,.11-.64,.71-1.06,1.34-.96,.64,.11,1.07,.71,.96,1.34h0Z"/><path class="d" d="M93.66,343.11s-3.51-1.21-6.5,.26c-.27,.63-.31,1.54,0,2.39,0,0,4.03-.65,6.58-.15,0,0,.48-1.44-.08-2.5h0Z"/><path class="l" d="M102.56,366.75c-8.22,1.36-16.21,1.47-23.92,.06-1.62-.29-2.74-1.8-2.54-3.45l.02-.19c4.81,1.35,16.05,3.54,28.95-.46,.03,.2,.06,.39,.08,.6,.19,1.65-.97,3.16-2.6,3.43h0Z"/><path class="d" d="M74.95,200.79l-.37-.07c-.05,.28-.07,.57-.07,.84,0,2.26,1.62,4.27,3.92,4.68,.28,.05,.56,.07,.84,.07,2.26,0,4.27-1.62,4.68-3.92,.05-.28,.07-.57,.07-.84,0-2.26-1.62-4.27-3.92-4.68-.28-.05-.57-.08-.84-.08-2.26,0-4.27,1.62-4.68,3.92l.37,.07,.37,.07c.35-1.94,2.04-3.3,3.94-3.3,.23,0,.47,.02,.71,.06,1.94,.35,3.3,2.04,3.3,3.94,0,.23-.02,.47-.06,.71-.35,1.94-2.04,3.31-3.94,3.31-.23,0-.47-.02-.71-.06-1.94-.35-3.31-2.04-3.31-3.94,0-.24,.02-.47,.06-.71l-.37-.07h0Z"/><path class="d" d="M78.35,201.39c-.09,.51,.25,1,.76,1.09,.51,.09,.99-.25,1.09-.76,.09-.51-.25-1-.76-1.09-.51-.09-1,.25-1.09,.76h0Z"/><path class="d" d="M81.46,268.25l-.37-.07c-.05,.28-.07,.57-.07,.84,0,2.26,1.62,4.27,3.92,4.68,.28,.05,.56,.07,.84,.07,2.26,0,4.27-1.62,4.68-3.92,.05-.28,.07-.57,.07-.84,0-2.26-1.62-4.27-3.92-4.68-.28-.05-.57-.08-.84-.08-2.26,0-4.27,1.62-4.68,3.92l.37,.07,.37,.07c.35-1.94,2.04-3.31,3.94-3.31,.23,0,.47,.02,.71,.06,1.94,.35,3.3,2.04,3.3,3.94,0,.23-.02,.47-.06,.71-.35,1.94-2.04,3.31-3.94,3.31-.23,0-.47-.02-.71-.06-1.94-.35-3.31-2.04-3.31-3.94,0-.24,.02-.47,.06-.71l-.37-.07h0Z"/><path class="d" d="M84.86,268.86c-.09,.51,.25,1,.76,1.09,.51,.09,1-.25,1.09-.76s-.25-.99-.76-1.09c-.51-.09-1,.25-1.09,.76h0Z"/><path class="d" d="M84.91,331.87l-.37-.07c-.05,.28-.07,.57-.07,.84,0,2.26,1.62,4.27,3.92,4.68,.28,.05,.57,.08,.84,.08,2.26,0,4.27-1.62,4.68-3.92,.05-.28,.07-.57,.07-.84,0-2.26-1.62-4.27-3.92-4.68-.28-.05-.57-.08-.84-.08-2.26,0-4.27,1.62-4.68,3.92l.37,.07,.37,.07c.35-1.94,2.04-3.31,3.94-3.31,.23,0,.47,.02,.71,.06,1.94,.35,3.31,2.04,3.31,3.94,0,.23-.02,.47-.06,.71-.35,1.94-2.04,3.3-3.94,3.3-.23,0-.47-.02-.71-.06-1.94-.35-3.3-2.04-3.3-3.94,0-.23,.02-.47,.06-.71l-.37-.07h0Z"/><path class="d" d="M88.31,332.48c-.09,.51,.25,1,.76,1.09,.51,.09,.99-.25,1.09-.76,.09-.51-.25-.99-.76-1.09-.51-.09-.99,.25-1.09,.76h0Z"/><polygon class="d" points="78.9 201.59 85.41 269.05 89.03 332.67 89.78 332.62 86.15 269 79.64 201.52 78.9 201.59 78.9 201.59"/><path class="h" d="M31,193.34s-4.43,60.38-3.91,75.45l-3.98,79.14,13.16-.78c2.86-36.26,7.75-54.45,7.61-77.84l11.27-70.4s-10.96-5.31-24.16-5.57h0Z"/><path class="g" d="M36.75,346.49c-.37-5.2-5.02-8.04-9.76-6.74-4.64,1.27-5.19,9.01-5.19,9.01,0,0-5.66,5.03-6.9,13.95-.03,.2-.06,.39-.08,.6-.19,1.65,.97,3.16,2.6,3.43,8.22,1.36,16.21,1.47,23.92,.06,1.62-.29,2.74-1.8,2.54-3.45l-.02-.19c-.52-3.94-1.59-11.17-6.41-13.85l-.69-2.82h0Z"/><path class="d" d="M34.92,352.49l.42-.95c-.29-.13-7.11-3.05-12.09,.2l.57,.87c4.51-2.94,11.04-.14,11.11-.11h0Z"/><path class="d" d="M34.06,352.35c.11,.64,.71,1.07,1.34,.96,.64-.11,1.07-.71,.96-1.34-.11-.64-.71-1.07-1.34-.96-.64,.11-1.06,.71-.96,1.34h0Z"/><path class="d" d="M22.33,352.07c.11,.64,.71,1.07,1.34,.96,.64-.11,1.07-.71,.96-1.34-.11-.64-.71-1.07-1.34-.96-.64,.11-1.07,.71-.96,1.34h0Z"/><path class="d" d="M34.8,349.56l.42-.95c-.29-.13-7.11-3.05-12.09,.2l.57,.87c4.51-2.94,11.04-.14,11.11-.11h0Z"/><path class="d" d="M33.94,349.42c.11,.64,.71,1.07,1.34,.96,.64-.1,1.07-.71,.96-1.34-.11-.64-.71-1.07-1.34-.96-.64,.11-1.07,.71-.96,1.34h0Z"/><path class="d" d="M22.21,349.14c.11,.64,.71,1.07,1.34,.96,.64-.11,1.07-.71,.96-1.34-.11-.64-.71-1.07-1.34-.96-.64,.11-1.07,.71-.96,1.34h0Z"/><path class="d" d="M34.92,355.41l.42-.95c-.29-.13-7.11-3.05-12.09,.19l.57,.87c4.51-2.94,11.04-.14,11.11-.11h0Z"/><path class="d" d="M34.06,355.27c.11,.64,.71,1.07,1.34,.96,.64-.11,1.07-.71,.96-1.34-.11-.64-.71-1.06-1.34-.96-.64,.11-1.06,.71-.96,1.34h0Z"/><path class="d" d="M22.33,354.99c.11,.64,.71,1.07,1.34,.96,.64-.11,1.07-.71,.96-1.34-.11-.64-.71-1.06-1.34-.96-.64,.11-1.07,.71-.96,1.34h0Z"/><path class="d" d="M26.32,343.11s3.51-1.21,6.5,.26c.27,.63,.31,1.54,0,2.39,0,0-4.03-.65-6.58-.15,0,0-.48-1.44,.08-2.5h0Z"/><path class="l" d="M17.42,366.75c8.22,1.36,16.21,1.47,23.92,.06,1.62-.29,2.74-1.8,2.54-3.45l-.02-.19c-4.81,1.35-16.05,3.54-28.95-.46-.03,.2-.06,.39-.08,.6-.19,1.65,.97,3.16,2.6,3.43h0Z"/><path class="d" d="M45.03,200.79l-.37,.07c.04,.24,.06,.48,.06,.71,0,1.9-1.36,3.6-3.3,3.94-.24,.04-.48,.06-.71,.06-1.9,0-3.6-1.36-3.94-3.31-.04-.24-.06-.48-.06-.71,0-1.9,1.36-3.6,3.3-3.94,.24-.04,.48-.06,.71-.06,1.9,0,3.6,1.36,3.94,3.3l.37-.07,.37-.07c-.41-2.3-2.42-3.92-4.68-3.92-.28,0-.56,.02-.84,.08-2.3,.41-3.92,2.42-3.92,4.68,0,.28,.02,.56,.08,.84,.41,2.3,2.42,3.92,4.68,3.92,.28,0,.56-.03,.84-.07,2.3-.41,3.92-2.42,3.92-4.68,0-.28-.02-.56-.08-.84l-.37,.07h0Z"/><path class="d" d="M41.63,201.39c.09,.51-.25,1-.76,1.09-.51,.09-1-.25-1.09-.76-.09-.51,.25-1,.76-1.09,.51-.09,1,.25,1.09,.76h0Z"/><path class="d" d="M38.52,268.25l-.37,.07c.04,.24,.06,.48,.06,.71,0,1.9-1.36,3.6-3.3,3.94-.24,.04-.48,.06-.71,.06-1.9,0-3.6-1.36-3.94-3.31-.04-.24-.06-.48-.06-.71,0-1.9,1.36-3.6,3.3-3.94,.24-.04,.48-.06,.71-.06,1.9,0,3.6,1.36,3.94,3.31l.37-.07,.37-.07c-.41-2.3-2.42-3.92-4.68-3.92-.28,0-.56,.02-.84,.08-2.3,.41-3.92,2.42-3.92,4.68,0,.28,.02,.56,.08,.84,.41,2.3,2.42,3.92,4.68,3.92,.28,0,.56-.03,.84-.07,2.3-.41,3.92-2.42,3.92-4.68,0-.28-.02-.56-.08-.84l-.37,.07h0Z"/><path class="d" d="M35.12,268.86c.09,.51-.25,1-.76,1.09-.51,.09-1-.25-1.09-.76-.09-.51,.25-.99,.76-1.09,.51-.09,1,.25,1.09,.76h0Z"/><path class="d" d="M35.07,331.87l-.37,.07c.04,.24,.06,.48,.06,.71,0,1.9-1.36,3.6-3.31,3.94-.24,.04-.48,.06-.71,.06-1.9,0-3.6-1.36-3.94-3.31-.04-.24-.06-.48-.06-.71,0-1.9,1.36-3.6,3.31-3.94,.24-.04,.48-.06,.71-.06,1.9,0,3.6,1.36,3.94,3.31l.37-.07,.37-.07c-.41-2.3-2.42-3.92-4.68-3.92-.28,0-.56,.02-.84,.08-2.3,.41-3.92,2.42-3.92,4.68,0,.28,.02,.56,.08,.84,.41,2.3,2.42,3.92,4.68,3.92,.28,0,.56-.03,.84-.08,2.3-.41,3.92-2.42,3.92-4.68,0-.28-.02-.56-.08-.84l-.37,.07h0Z"/><path class="d" d="M31.67,332.48c.09,.51-.25,1-.76,1.09-.51,.09-1-.25-1.09-.76-.09-.51,.25-.99,.76-1.09,.51-.09,1,.25,1.09,.76h0Z"/><polygon class="d" points="40.34 201.52 33.83 269 30.2 332.62 30.95 332.67 34.57 269.05 41.08 201.59 40.34 201.52 40.34 201.52"/><path class="e" d="M89.66,179.46c-5.86,3.07-11.3,5.33-16.75,6.69-4.1,1.03-8.21,1.55-12.52,1.52-3.81,.03-7.42-.38-10.99-1.18-5.83-1.31-11.57-3.69-17.94-7.03l2.41-50.04-.26-58.37,14.82-3.98,4.46-1.19c2.46-.66,4.98-.98,7.5-1,2.52,.02,5.04,.34,7.5,1l5.02,1.35,14.26,3.82-.26,58.37,2.75,50.04h0Z"/><path class="d" d="M72.91,67.23v118.92c-4.1,1.03-8.21,1.55-12.52,1.52-3.81,.03-7.42-.38-10.99-1.18l-.02-2.96-.03-3.1-.06-7.2-.02-3.1-.06-7.19-.03-3.1-.05-7.19-.03-3.09-.06-7.19-.02-3.08-.06-7.2-.03-3.09-.06-7.2-.02-3.08-.06-7.21-.02-3.07-.06-7.22-.03-3.06-.06-7.22-.02-3.06-.06-7.21-.02-3.06-.06-7.23-.03-3.05v-.26l4.46-1.19c2.46-.66,4.98-.98,7.5-1,2.52,.02,5.04,.34,7.5,1l4.97,1.34h.05Z"/><path class="m" d="M72.91,70.4v3.02c-4.27,.74-8.44,1-12.27,1-4.74,0-8.96-.41-12.18-.87l-.03-3.05c5.67,.82,14.9,1.57,24.43-.11h.05Z"/><path class="m" d="M72.91,79v3.04c-4.21,.73-8.32,1-12.09,1-4.78,0-9.04-.43-12.28-.91l-.02-3.06c5.68,.85,14.88,1.63,24.39-.07h0Z"/><path class="m" d="M72.91,87.84v3.06c-4.15,.73-8.2,1-11.92,1-4.81,0-9.09-.45-12.37-.96l-.02-3.06c5.67,.89,14.82,1.71,24.31-.04h0Z"/><path class="m" d="M72.91,98.16v3.06c-4.1,.73-8.09,1-11.77,1-4.83,0-9.13-.47-12.43-1l-.03-3.06c5.67,.92,14.77,1.77,24.23,0h0Z"/><path class="m" d="M72.91,108.49v3.05c-4.04,.73-7.98,1.01-11.63,1.01-4.86,0-9.18-.49-12.49-1.04l-.02-3.07c5.66,.96,14.7,1.83,24.14,.05h0Z"/><path class="m" d="M72.91,118.8v3.06c-4,.74-7.89,1.01-11.49,1.01-4.88,0-9.22-.51-12.55-1.07l-.02-3.08c5.65,1,14.65,1.9,24.06,.08h0Z"/><path class="m" d="M72.91,129.12v3.06c-3.95,.74-7.81,1.02-11.37,1.02-4.88,0-9.23-.52-12.58-1.11l-.03-3.09c5.65,1.03,14.59,1.96,23.98,.12h0Z"/><path class="m" d="M72.91,139.44v3.06c-3.92,.75-7.73,1.03-11.25,1.03-4.9,0-9.25-.54-12.62-1.16l-.02-3.08c5.64,1.06,14.53,2.01,23.89,.15h0Z"/><path class="m" d="M72.91,149.76v3.07c-3.88,.74-7.65,1.02-11.15,1.02-4.9,0-9.25-.56-12.63-1.2l-.03-3.09c5.63,1.11,14.48,2.08,23.81,.2h0Z"/><path class="m" d="M72.91,160.08v3.06c-3.85,.75-7.58,1.04-11.05,1.04-4.9,0-9.26-.58-12.65-1.24l-.03-3.1c5.63,1.14,14.42,2.14,23.73,.24h0Z"/><path class="m" d="M72.91,170.39v3.08c-3.82,.75-7.52,1.04-10.95,1.04-4.91,0-9.27-.59-12.67-1.28l-.02-3.1c5.62,1.17,14.36,2.19,23.64,.26h0Z"/><path class="m" d="M72.91,180.71v3.08c-3.79,.75-7.45,1.04-10.86,1.04-4.9,0-9.26-.6-12.67-1.3l-.03-3.1c5.61,1.19,14.31,2.23,23.56,.28h0Z"/><path class="n" d="M14.85,179.41s1.15,3.81,2.42,6.57c1.27,2.77,.4,4.9,1.16,7.4,.76,2.5-2.22,2.31-2.8-.31-.58-2.62-.33-3.86-.88-3.94-.55-.08-2.11,6.3-2.33,8.13-.22,1.83,.15,6.42-.54,7.14-.69,.72-2.34-1.87-1.82-6.64,.52-4.78,.14-4.67,.14-4.67,0,0-.45,1.85-.92,3.85-.47,1.99-.48,4.42-.39,5.79,.09,1.36-1.3,2.04-1.71,1.31-.41-.73-1.06-5.48-.51-7.34,.55-1.86,1.22-5.04,1.22-5.04,0,0-1.83,4.27-2.14,5.37-.31,1.1,.21,5.31-.75,6.08-.4,.32-1.67-.11-1.46-6.1,0,0,.44-2.93,1.07-4.74,0,0-.98,1.35-1.46,3.17-.42,1.6-.66,3.28-.8,4.9-.14,1.62-1.54,1.41-1.55-1.45,0-2.86,.48-6.01,1.28-7.54,.8-1.52,1.98-10.43,4.36-13.69l8.39,1.77h0Z"/><path class="e" d="M41.77,84.02s-6.85,31.7-12.59,42.67c0,0-3.15,15.43-14.12,53.3,0,0-5.73,2.28-9.07-2.07,0,0,5.3-41.63,8.49-54.94,0,0,14.32-45.99,19.13-51.92,0,0,7.4,3,8.15,12.97h0Z"/><path class="d" d="M39.81,81.02h-.38c0,1.11-.45,2.11-1.17,2.84-.73,.73-1.73,1.17-2.84,1.17s-2.11-.45-2.84-1.17c-.73-.73-1.17-1.73-1.17-2.84,0-1.11,.45-2.11,1.17-2.84,.73-.73,1.73-1.17,2.84-1.17s2.11,.45,2.84,1.17c.73,.73,1.17,1.73,1.17,2.84h.75c0-2.63-2.13-4.76-4.76-4.76s-4.76,2.13-4.76,4.76c0,2.63,2.13,4.76,4.76,4.76s4.76-2.13,4.76-4.76h-.38Z"/><path class="d" d="M36.36,81.02c0,.52-.42,.94-.94,.94s-.94-.42-.94-.94,.42-.94,.94-.94,.94,.42,.94,.94h0Z"/><path class="d" d="M27.32,124.59h-.38c0,1.11-.45,2.11-1.17,2.84-.73,.73-1.73,1.17-2.84,1.17-1.11,0-2.11-.45-2.84-1.17-.73-.73-1.17-1.73-1.17-2.84,0-1.11,.45-2.11,1.17-2.84,.73-.73,1.73-1.17,2.84-1.17s2.11,.45,2.84,1.17c.73,.73,1.17,1.73,1.17,2.84h.75c0-2.63-2.13-4.76-4.76-4.76s-4.76,2.13-4.76,4.76c0,2.63,2.13,4.76,4.76,4.76,2.63,0,4.76-2.13,4.76-4.76h-.38Z"/><path class="d" d="M23.87,124.59c0,.52-.42,.94-.94,.94s-.94-.42-.94-.94,.42-.94,.94-.94,.94,.42,.94,.94h0Z"/><path class="d" d="M14.07,184.95h-.38c0,1.11-.45,2.11-1.17,2.84-.73,.73-1.73,1.17-2.84,1.18-1.11,0-2.11-.45-2.84-1.18-.73-.73-1.17-1.73-1.17-2.84,0-1.11,.45-2.11,1.17-2.84,.73-.73,1.73-1.17,2.84-1.17s2.11,.45,2.84,1.17c.73,.73,1.17,1.73,1.17,2.84h.75c0-2.63-2.13-4.76-4.76-4.76s-4.76,2.13-4.76,4.76c0,2.63,2.13,4.76,4.76,4.76,2.63,0,4.76-2.13,4.76-4.76h-.38Z"/><path class="d" d="M10.62,184.95c0,.52-.42,.94-.94,.94s-.94-.42-.94-.94,.42-.94,.94-.94,.94,.42,.94,.94h0Z"/><polygon class="d" points="35.07 80.91 22.57 124.5 9.31 184.87 10.05 185.03 23.3 124.69 35.79 81.12 35.07 80.91 35.07 80.91"/><path class="n" d="M106.19,179.41s-1.15,3.81-2.42,6.57c-1.27,2.77-.4,4.9-1.16,7.4-.76,2.5,2.22,2.31,2.8-.31,.58-2.62,.33-3.86,.88-3.94,.55-.08,2.11,6.3,2.33,8.13,.22,1.83-.15,6.42,.54,7.14,.69,.72,2.34-1.87,1.82-6.64-.52-4.78-.14-4.67-.14-4.67,0,0,.45,1.85,.93,3.85,.47,1.99,.48,4.42,.39,5.79-.09,1.36,1.3,2.04,1.71,1.31,.41-.73,1.06-5.48,.51-7.34-.55-1.86-1.22-5.04-1.22-5.04,0,0,1.83,4.27,2.14,5.37,.31,1.1-.21,5.31,.75,6.08,.4,.32,1.67-.11,1.46-6.1,0,0-.44-2.93-1.07-4.74,0,0,.98,1.35,1.46,3.17,.42,1.6,.65,3.28,.79,4.9,.14,1.62,1.54,1.41,1.55-1.45,0-2.86-.48-6.01-1.28-7.54-.8-1.52-1.98-10.43-4.36-13.69l-8.39,1.77h0Z"/><path class="e" d="M79.27,84.02s6.85,31.7,12.58,42.67c0,0,3.16,15.43,14.12,53.3,0,0,5.73,2.28,9.07-2.07,0,0-5.3-41.63-8.49-54.94,0,0-14.32-45.99-19.13-51.92,0,0-7.4,3-8.15,12.97h0Z"/><path class="d" d="M81.22,81.02h-.38c0,2.63,2.13,4.76,4.76,4.76s4.76-2.13,4.76-4.76-2.13-4.76-4.76-4.76-4.76,2.13-4.76,4.76h.75c0-1.11,.45-2.11,1.18-2.84,.73-.73,1.73-1.17,2.84-1.17s2.11,.45,2.84,1.17c.73,.73,1.18,1.73,1.18,2.84s-.45,2.11-1.18,2.84c-.73,.73-1.73,1.17-2.84,1.17s-2.11-.45-2.84-1.17c-.73-.73-1.17-1.73-1.18-2.84h-.38Z"/><path class="d" d="M84.67,81.02c0,.52,.42,.94,.94,.94s.94-.42,.94-.94-.42-.94-.94-.94-.94,.42-.94,.94h0Z"/><path class="d" d="M93.72,124.59h-.38c0,2.63,2.13,4.76,4.76,4.76,2.63,0,4.76-2.13,4.76-4.76s-2.13-4.76-4.76-4.76-4.76,2.13-4.76,4.76h.75c0-1.11,.45-2.11,1.17-2.84,.73-.73,1.73-1.17,2.84-1.17s2.11,.45,2.84,1.17c.73,.73,1.17,1.73,1.17,2.84s-.45,2.11-1.17,2.84c-.73,.73-1.73,1.17-2.84,1.17-1.11,0-2.11-.45-2.84-1.17-.73-.73-1.17-1.73-1.17-2.84h-.38Z"/><path class="d" d="M97.17,124.59c0,.52,.42,.94,.94,.94s.94-.42,.94-.94-.42-.94-.94-.94-.94,.42-.94,.94h0Z"/><path class="d" d="M106.97,184.95h-.38c0,2.63,2.13,4.76,4.76,4.76,2.63,0,4.76-2.13,4.76-4.76s-2.13-4.76-4.76-4.76-4.76,2.13-4.76,4.76h.75c0-1.11,.45-2.11,1.18-2.84,.73-.73,1.73-1.17,2.84-1.17s2.11,.45,2.84,1.17c.73,.73,1.17,1.73,1.17,2.84s-.45,2.11-1.17,2.84c-.73,.73-1.73,1.17-2.84,1.18-1.11,0-2.11-.45-2.84-1.18-.73-.73-1.17-1.73-1.18-2.84h-.38Z"/><path class="d" d="M110.42,184.95c0,.52,.42,.94,.94,.94s.94-.42,.94-.94-.42-.94-.94-.94-.94,.42-.94,.94h0Z"/><polygon class="d" points="85.25 81.12 97.74 124.69 110.99 185.03 111.72 184.87 98.47 124.5 85.97 80.91 85.25 81.12 85.25 81.12"/><path class="n" d="M68.17,57.53l-.26,4.85-.32,6.07s-1.21,2.29-6.65,2.29-6.56-1.56-6.56-1.56l-.22-2.69-.73-8.95h14.74Z"/><path class="f" d="M68.17,57.53l-.26,4.85c-2.27,1.7-7.65,5.04-13.75,4.1l-.73-8.95h14.74Z"/><path class="k" d="M44.13,35.49s-4.17-4.08-7.5-1.42c-3.93,3.14,.18,14.46,7.16,13.27l.34-11.85h0Z"/><path class="f" d="M41.7,44.52c-.35-.01-.63-.28-.66-.63-.45-5.57-3.71-6.54-3.85-6.58-.37-.1-.58-.48-.48-.84,.1-.37,.47-.59,.84-.49,.18,.05,4.34,1.2,4.87,7.8,.03,.38-.25,.71-.63,.74h-.08Z"/><path class="f" d="M37.8,41.68c-.16,0-.32-.07-.45-.19-.28-.26-.29-.7-.02-.98,.06-.06,1.48-1.51,3.72-.94,.37,.09,.59,.47,.5,.84-.09,.37-.47,.59-.84,.5-1.48-.38-2.37,.54-2.38,.55-.14,.15-.33,.22-.52,.21h0Z"/><path class="k" d="M76,35.49s4.17-4.08,7.5-1.42c3.93,3.14-.18,14.46-7.16,13.27l-.34-11.85h0Z"/><path class="f" d="M78.44,44.52c.35-.01,.64-.28,.66-.63,.45-5.57,3.71-6.54,3.85-6.58,.37-.1,.58-.48,.49-.84-.1-.37-.47-.59-.84-.49-.18,.05-4.34,1.2-4.87,7.8-.03,.38,.25,.71,.63,.74h.08Z"/><path class="f" d="M82.34,41.68c.16,0,.32-.07,.45-.19,.28-.26,.29-.7,.03-.98-.06-.06-1.47-1.51-3.72-.94-.37,.09-.59,.47-.5,.84,.09,.37,.47,.59,.84,.5,1.48-.38,2.37,.54,2.38,.55,.14,.15,.33,.22,.52,.21h0Z"/><path class="n" d="M60.28,62.29c-14.41,0-18.86-17.11-20.18-29.64-1.22-11.55,7.75-21.73,19.36-21.87,.15,0,.31,0,.47,0,.19,0,.39,0,.58,0,11.47,.15,20.41,10.06,19.42,21.49-1.1,12.69-5.24,30.02-19.64,30.02h0Z"/><path class="i" d="M78.57,1.57c7.31,5,.7,14.75,.7,14.75,0,0,7.28,7.12-.21,23.9l-1.33-.27c.85-5.37,.34-11.91,0-12.94-1.01-3.07-6.39-4.7-6.12-8.02,0,0-16.49,5.16-25.42,.09,0,0-.7,4.25-3.15,6.93-2.05,2.24-.88,10.05-.62,13.43l-1.37,.13c-.81-3.44-2.79-9.64-3.01-11.46-.13-1.15-.62-5.71-.83-8.98-.18-2.86,.33-5.74,1.62-8.29,.72-1.41,1.71-2.83,3.08-3.85,4.79-3.57,30.03-9.95,36.66-5.42h0Z"/><path class="i" d="M53.54,35.46c0,1.44-.64,2.61-1.43,2.61-.79,0-1.43-1.17-1.43-2.61,0-1.44,.64-2.61,1.43-2.61,.79,0,1.43,1.17,1.43,2.61h0Z"/><path class="i" d="M46.25,29.89s1.38-2.83,4.02-3.54c2.45-.66,4.2-.03,5.08,.45,.38,.21,.55,.67,.4,1.08-.18,.48-.73,.71-1.2,.49-1.48-.69-4.75-1.58-8.3,1.52h0Z"/><path class="i" d="M67.58,35.46c0,1.44,.64,2.61,1.43,2.61,.79,0,1.43-1.17,1.43-2.61,0-1.44-.64-2.61-1.43-2.61-.79,0-1.43,1.17-1.43,2.61h0Z"/><path class="i" d="M74.87,29.89s-1.38-2.83-4.02-3.54c-2.45-.66-4.2-.03-5.08,.45-.38,.21-.55,.67-.4,1.08,.18,.48,.73,.71,1.2,.49,1.48-.69,4.75-1.58,8.3,1.52h0Z"/><path class="f" d="M60.31,44.3c-.23-.02-.44-.15-.57-.36-.22-.36-.11-.82,.25-1.04l2.17-1.34-1.7-.63c-.28-.1-.48-.37-.5-.67l-.29-4.89c-.02-.42,.29-.78,.71-.8,.42-.03,.78,.29,.8,.71l.26,4.39,2.7,.99c.27,.1,.46,.35,.49,.64,.03,.29-.11,.57-.36,.72l-3.5,2.16c-.15,.09-.31,.13-.47,.11h0Z"/><path class="f" d="M63.52,51.68c-2.81,.56-6.5,.53-10.1-1.83-.35-.23-.45-.7-.22-1.05,.23-.35,.7-.45,1.05-.22,6.31,4.14,13.2,.09,13.27,.05,.36-.22,.82-.1,1.04,.26,.22,.36,.1,.82-.26,1.04-.15,.09-2.05,1.21-4.78,1.75h0Z"/><path class="f" d="M60.95,54.97c-1.26,.03-2.71-.23-4.19-1.11-.25-.15-.33-.48-.18-.73,.15-.25,.48-.33,.73-.18,3.53,2.1,6.97,.1,7.11,.01,.25-.15,.58-.07,.73,.18,.15,.25,.07,.58-.18,.73-.11,.06-1.76,1.04-4.02,1.09h0Z"/></g></g></g></svg>