<?xml version="1.0" encoding="UTF-8"?><svg xmlns="http://www.w3.org/2000/svg" viewBox="0 0 124.9 367.94"><defs><style>.d{fill:#fff;}.e{fill:#ef7b62;}.f{fill:#bb2251;}.g{fill:#e9475c;}.h{fill:#3d314c;}.i{fill:#e8e6e9;}.j{fill:#f39975;}.k{fill:#db265c;}.l{fill:#90201d;}.m{fill:#f5a67f;}.n{fill:#2779be;}.o{fill:#3c4a9a;}</style></defs><g id="a"/><g id="b"><g id="c"><g><path class="i" d="M62.9,367.94c-33.67,0-60.97-4.14-60.97-9.25s27.3-9.25,60.97-9.25,60.97,4.14,60.97,9.25-27.3,9.25-60.97,9.25"/><path class="h" d="M32.86,180.98c-.04-12.83,3.13-21.44,3.13-21.44,20.61-1.33,53.01,0,53.01,0,.04,.12,.09,.25,.13,.37,0,0,2.19,9.29,1.38,21.07-20.05,12.42-39.37,11.6-57.66,0h0Z"/><path class="h" d="M90.52,180.98s4.82,67.95,4.3,83.03l3.97,79.14-13.16-.78c-2.31-40.83-10.04-59.33-7.61-77.84-7.37-24.29-11.21-53.08-12.44-75.97,0,0,11.74-7.31,24.93-7.58h0Z"/><path class="o" d="M85.16,341.71c.37-5.2,5.02-8.04,9.76-6.74,4.64,1.27,5.19,9.01,5.19,9.01,0,0,5.66,5.03,6.9,13.95,.03,.2,.06,.39,.08,.6,.19,1.65-.97,3.16-2.6,3.43-8.22,1.36-16.21,1.47-23.92,.06-1.62-.29-2.74-1.8-2.54-3.45l.02-.19c.52-3.94,1.59-11.17,6.41-13.85l.69-2.82h0Z"/><path class="d" d="M86.99,347.7l-.42-.95c.29-.13,7.12-3.05,12.09,.2l-.57,.87c-4.51-2.94-11.04-.14-11.11-.11h0Z"/><path class="d" d="M87.85,347.57c-.11,.64-.71,1.07-1.34,.96-.64-.11-1.07-.71-.96-1.34,.11-.64,.71-1.07,1.34-.96,.63,.11,1.06,.71,.96,1.34h0Z"/><path class="d" d="M99.58,347.29c-.11,.64-.71,1.07-1.34,.96-.64-.11-1.07-.71-.96-1.34,.11-.64,.71-1.07,1.34-.96,.64,.11,1.07,.71,.96,1.34h0Z"/><path class="d" d="M87.11,344.77l-.42-.95c.29-.13,7.11-3.05,12.09,.2l-.57,.87c-4.51-2.94-11.04-.14-11.11-.11h0Z"/><path class="d" d="M87.96,344.64c-.11,.64-.71,1.07-1.34,.96-.64-.1-1.07-.71-.96-1.34,.11-.64,.71-1.07,1.34-.96,.64,.11,1.07,.71,.96,1.34h0Z"/><path class="d" d="M99.7,344.35c-.11,.64-.71,1.07-1.34,.96-.64-.11-1.06-.71-.96-1.34,.11-.64,.71-1.07,1.34-.96,.64,.11,1.07,.71,.96,1.34h0Z"/><path class="d" d="M86.99,350.62l-.42-.95c.29-.13,7.12-3.05,12.09,.19l-.57,.87c-4.51-2.94-11.04-.14-11.11-.11h0Z"/><path class="d" d="M87.85,350.49c-.11,.64-.71,1.07-1.34,.96-.64-.11-1.07-.71-.96-1.34,.11-.64,.71-1.06,1.34-.96,.63,.11,1.06,.71,.96,1.34h0Z"/><path class="d" d="M99.58,350.21c-.11,.64-.71,1.07-1.34,.96-.64-.11-1.07-.71-.96-1.34,.11-.64,.71-1.06,1.34-.96,.64,.11,1.07,.71,.96,1.34h0Z"/><path class="d" d="M95.59,338.32s-3.51-1.21-6.5,.26c-.27,.63-.31,1.54,0,2.39,0,0,4.03-.65,6.58-.15,0,0,.48-1.44-.08-2.5h0Z"/><path class="n" d="M104.49,361.96c-8.22,1.36-16.21,1.47-23.92,.06-1.62-.29-2.74-1.8-2.54-3.45l.02-.19c4.81,1.35,16.05,3.54,28.95-.46,.03,.2,.06,.39,.08,.6,.19,1.65-.97,3.16-2.6,3.43h0Z"/><path class="d" d="M76.88,196l-.37-.07c-.05,.28-.07,.57-.07,.84,0,2.26,1.62,4.27,3.92,4.68,.28,.05,.56,.07,.84,.07,2.26,0,4.27-1.62,4.68-3.92,.05-.28,.08-.57,.07-.84,0-2.26-1.62-4.27-3.92-4.68-.28-.05-.57-.08-.84-.08-2.26,0-4.27,1.62-4.68,3.92l.37,.07,.37,.07c.35-1.94,2.04-3.3,3.94-3.3,.23,0,.47,.02,.71,.06,1.94,.35,3.3,2.04,3.3,3.94,0,.23-.02,.47-.06,.71-.35,1.94-2.04,3.31-3.94,3.31-.23,0-.47-.02-.71-.06-1.94-.35-3.31-2.04-3.31-3.94,0-.24,.02-.47,.06-.71l-.37-.07h0Z"/><path class="d" d="M80.28,196.61c-.09,.51,.25,1,.76,1.09,.51,.09,.99-.25,1.09-.76,.09-.51-.25-1-.76-1.09-.51-.09-1,.25-1.09,.76h0Z"/><path class="d" d="M83.39,263.47l-.37-.07c-.05,.28-.07,.57-.07,.84,0,2.26,1.62,4.27,3.92,4.68,.28,.05,.56,.07,.84,.07,2.26,0,4.27-1.62,4.68-3.92,.05-.28,.07-.57,.07-.84,0-2.26-1.62-4.27-3.92-4.68-.28-.05-.57-.08-.84-.08-2.26,0-4.27,1.62-4.68,3.92l.37,.07,.37,.07c.35-1.94,2.04-3.31,3.94-3.31,.23,0,.47,.02,.71,.06,1.94,.35,3.3,2.04,3.3,3.94,0,.23-.02,.47-.06,.71-.35,1.94-2.04,3.31-3.94,3.31-.24,0-.47-.02-.71-.06-1.94-.35-3.31-2.04-3.31-3.94,0-.23,.02-.47,.06-.71l-.37-.07h0Z"/><path class="d" d="M86.79,264.07c-.09,.51,.25,1,.76,1.09,.51,.09,1-.25,1.09-.76s-.25-.99-.76-1.09c-.51-.09-1,.25-1.09,.76h0Z"/><path class="d" d="M86.84,327.09l-.37-.07c-.05,.28-.07,.57-.07,.84,0,2.26,1.62,4.27,3.92,4.68,.28,.05,.57,.08,.84,.08,2.26,0,4.27-1.62,4.68-3.92,.05-.28,.07-.57,.07-.84,0-2.26-1.62-4.27-3.92-4.68-.28-.05-.57-.08-.84-.08-2.26,0-4.27,1.62-4.68,3.92l.37,.07,.37,.07c.35-1.94,2.04-3.31,3.94-3.31,.23,0,.47,.02,.71,.06,1.94,.35,3.31,2.04,3.31,3.94,0,.23-.02,.47-.06,.71-.35,1.94-2.04,3.3-3.94,3.3-.23,0-.47-.02-.71-.06-1.94-.35-3.3-2.04-3.3-3.94,0-.23,.02-.47,.06-.71l-.37-.07h0Z"/><path class="d" d="M90.24,327.69c-.09,.51,.25,1,.76,1.09,.51,.09,.99-.25,1.09-.76,.09-.51-.25-.99-.76-1.09-.51-.09-.99,.25-1.09,.76h0Z"/><polygon class="d" points="80.83 196.81 87.34 264.27 90.96 327.88 91.71 327.84 88.08 264.21 81.57 196.74 80.83 196.81 80.83 196.81"/><path class="h" d="M32.86,180.98s-4.36,67.95-3.85,83.03l-3.98,79.14,13.16-.78c.8-30.91,11.13-55.83,7.61-77.84,6.57-21.26,10-50.56,11.27-75.97,0,0-11.02-7.31-24.22-7.58h0Z"/><path class="o" d="M38.68,341.71c-.37-5.2-5.02-8.04-9.76-6.74-4.64,1.27-5.19,9.01-5.19,9.01,0,0-5.66,5.03-6.9,13.95-.03,.2-.06,.39-.08,.6-.19,1.65,.97,3.16,2.6,3.43,8.22,1.36,16.21,1.47,23.92,.06,1.62-.29,2.74-1.8,2.54-3.45l-.02-.19c-.52-3.94-1.59-11.17-6.41-13.85l-.69-2.82h0Z"/><path class="d" d="M36.85,347.7l.42-.95c-.29-.13-7.11-3.05-12.09,.2l.57,.87c4.51-2.94,11.04-.14,11.11-.11h0Z"/><path class="d" d="M35.99,347.57c.11,.64,.71,1.07,1.34,.96,.64-.11,1.07-.71,.96-1.34-.11-.64-.71-1.07-1.34-.96-.64,.11-1.06,.71-.96,1.34h0Z"/><path class="d" d="M24.26,347.29c.11,.64,.71,1.07,1.34,.96,.64-.11,1.06-.71,.96-1.34-.11-.64-.71-1.07-1.34-.96-.64,.11-1.07,.71-.96,1.34h0Z"/><path class="d" d="M36.73,344.77l.42-.95c-.29-.13-7.11-3.05-12.09,.2l.57,.87c4.51-2.94,11.04-.14,11.11-.11h0Z"/><path class="d" d="M35.87,344.64c.11,.64,.71,1.07,1.34,.96,.64-.1,1.07-.71,.96-1.34-.11-.64-.71-1.07-1.34-.96-.64,.11-1.07,.71-.96,1.34h0Z"/><path class="d" d="M24.14,344.35c.11,.64,.71,1.07,1.34,.96,.64-.11,1.07-.71,.96-1.34-.11-.64-.71-1.07-1.34-.96-.64,.11-1.07,.71-.96,1.34h0Z"/><path class="d" d="M36.85,350.62l.42-.95c-.29-.13-7.11-3.05-12.09,.19l.57,.87c4.51-2.94,11.04-.14,11.11-.11h0Z"/><path class="d" d="M35.99,350.49c.11,.64,.71,1.07,1.34,.96,.64-.11,1.07-.71,.96-1.34-.11-.64-.71-1.06-1.34-.96-.64,.11-1.06,.71-.96,1.34h0Z"/><path class="d" d="M24.26,350.21c.11,.64,.71,1.07,1.34,.96,.64-.11,1.06-.71,.96-1.34-.11-.64-.71-1.06-1.34-.96-.64,.11-1.07,.71-.96,1.34h0Z"/><path class="d" d="M28.25,338.32s3.51-1.21,6.5,.26c.27,.63,.31,1.54,0,2.39,0,0-4.03-.65-6.58-.15,0,0-.48-1.44,.08-2.5h0Z"/><path class="n" d="M19.35,361.96c8.22,1.36,16.21,1.47,23.92,.06,1.62-.29,2.74-1.8,2.54-3.45l-.02-.19c-4.81,1.35-16.05,3.54-28.95-.46-.03,.2-.06,.39-.08,.6-.19,1.65,.97,3.16,2.6,3.43h0Z"/><path class="d" d="M46.96,196l-.37,.07c.04,.24,.06,.48,.06,.71,0,1.9-1.36,3.6-3.3,3.94-.24,.04-.48,.06-.71,.06-1.9,0-3.6-1.36-3.94-3.31-.04-.24-.06-.48-.06-.71,0-1.9,1.36-3.6,3.3-3.94,.24-.04,.48-.06,.71-.06,1.9,0,3.6,1.36,3.94,3.3l.37-.07,.37-.07c-.41-2.3-2.42-3.92-4.68-3.92-.28,0-.56,.02-.84,.08-2.3,.41-3.92,2.42-3.92,4.68,0,.28,.02,.56,.08,.84,.41,2.3,2.42,3.92,4.68,3.92,.28,0,.56-.03,.84-.07,2.3-.41,3.92-2.42,3.92-4.68,0-.28-.02-.56-.08-.84l-.37,.07h0Z"/><path class="d" d="M43.56,196.61c.09,.51-.25,1-.76,1.09-.51,.09-1-.25-1.09-.76-.09-.51,.25-1,.76-1.09,.51-.09,1,.25,1.09,.76h0Z"/><path class="d" d="M40.45,263.47l-.37,.07c.04,.24,.06,.48,.06,.71,0,1.9-1.36,3.6-3.3,3.94-.24,.04-.48,.06-.71,.06-1.9,0-3.6-1.36-3.94-3.31-.04-.24-.06-.48-.06-.71,0-1.9,1.36-3.6,3.3-3.94,.24-.04,.48-.06,.71-.06,1.9,0,3.6,1.36,3.94,3.31l.37-.07,.37-.07c-.41-2.31-2.42-3.92-4.68-3.92-.28,0-.56,.02-.84,.08-2.3,.41-3.92,2.42-3.92,4.68,0,.28,.02,.56,.08,.84,.41,2.3,2.42,3.92,4.68,3.92,.28,0,.56-.03,.84-.07,2.3-.41,3.92-2.42,3.92-4.68,0-.28-.02-.56-.08-.84l-.37,.07h0Z"/><path class="d" d="M37.05,264.07c.09,.51-.25,1-.76,1.09-.51,.09-1-.25-1.09-.76-.09-.51,.25-.99,.76-1.09,.51-.09,1,.25,1.09,.76h0Z"/><path class="d" d="M37,327.09l-.37,.07c.04,.24,.06,.48,.06,.71,0,1.9-1.36,3.6-3.31,3.94-.24,.04-.48,.06-.71,.06-1.9,0-3.6-1.36-3.94-3.31-.04-.24-.06-.48-.06-.71,0-1.9,1.36-3.6,3.31-3.94,.24-.04,.48-.06,.71-.06,1.9,0,3.6,1.36,3.94,3.31l.37-.07,.37-.07c-.41-2.3-2.42-3.92-4.68-3.92-.28,0-.56,.02-.84,.08-2.3,.41-3.92,2.42-3.92,4.68,0,.28,.02,.56,.08,.84,.41,2.3,2.42,3.92,4.68,3.92,.28,0,.56-.03,.84-.08,2.3-.41,3.92-2.42,3.92-4.68,0-.28-.02-.56-.08-.84l-.37,.07h0Z"/><path class="d" d="M33.6,327.69c.09,.51-.25,1-.76,1.09-.51,.09-1-.25-1.09-.76-.09-.51,.25-.99,.76-1.09,.51-.09,1,.25,1.09,.76h0Z"/><polygon class="d" points="42.27 196.74 35.76 264.21 32.13 327.84 32.88 327.88 36.5 264.27 43.01 196.81 42.27 196.74 42.27 196.74"/><path class="k" d="M83.46,120.63l6.48,39.72s-13.13,6.68-28.16,6.68c-16.04,0-26.82-6.68-26.82-6.68l6.48-39.72-.85-17.27c-5.21-3.92-3.42-14.54-3.42-14.54l-2.2-15.98,20.53-8.73,13.19-.15,21.38,7.95-2.32,16.9s2.2,9.82-2.83,14.41l-1.46,17.4h0Z"/><path class="f" d="M80.7,104.95s-14.5,10.25-35.37,.62c0,0,19.5,5.25,35.37-.62"/><path class="m" d="M14.03,184.14s1.15,3.81,2.42,6.57c1.27,2.76,.4,4.9,1.16,7.4,.76,2.5-2.22,2.31-2.8-.31-.58-2.62-.33-3.86-.88-3.95-.55-.08-2.11,6.3-2.33,8.13-.22,1.83,.15,6.42-.54,7.14-.69,.71-2.34-1.87-1.82-6.64,.52-4.78,.14-4.68,.14-4.68,0,0-.45,1.86-.92,3.85-.47,1.99-.48,4.43-.39,5.79,.09,1.36-1.3,2.04-1.71,1.31-.41-.73-1.06-5.48-.51-7.34,.55-1.86,1.22-5.04,1.22-5.04,0,0-1.83,4.27-2.14,5.38-.31,1.1,.21,5.31-.75,6.08-.4,.32-1.67-.1-1.46-6.1,0,0,.44-2.93,1.07-4.74,0,0-.98,1.35-1.46,3.17-.42,1.6-.66,3.28-.8,4.9C1.41,206.67,0,206.46,0,203.6c0-2.86,.48-6.01,1.28-7.54,.8-1.52,1.98-10.43,4.36-13.69l8.39,1.77h0Z"/><path class="k" d="M40.96,88.76s-7.06,32.69-12.8,43.66c0,0-2.94,14.44-13.91,52.3,0,0-5.73,2.28-9.07-2.07,0,0,6.13-41.82,9.33-55.13,0,0,10.33-46.91,20.45-54.67,0,0,5.23,5.94,5.99,15.91h0Z"/><path class="d" d="M39,85.75h-.38c0,1.11-.45,2.11-1.17,2.84-.73,.73-1.73,1.18-2.84,1.18s-2.11-.45-2.84-1.18c-.73-.73-1.17-1.73-1.17-2.84,0-1.11,.45-2.11,1.17-2.84,.73-.73,1.73-1.17,2.84-1.17s2.11,.45,2.84,1.17c.73,.73,1.17,1.73,1.17,2.84h.75c0-2.63-2.13-4.76-4.76-4.76s-4.76,2.13-4.76,4.76c0,2.63,2.13,4.76,4.76,4.76s4.76-2.13,4.76-4.76h-.38Z"/><path class="d" d="M35.55,85.75c0,.52-.42,.94-.94,.94s-.94-.42-.94-.94,.42-.94,.94-.94,.94,.42,.94,.94h0Z"/><path class="d" d="M26.51,129.32h-.38c0,1.11-.45,2.11-1.17,2.84-.73,.73-1.73,1.17-2.84,1.18-1.11,0-2.11-.45-2.84-1.18-.73-.73-1.17-1.73-1.17-2.84,0-1.11,.45-2.11,1.17-2.84,.73-.73,1.73-1.17,2.84-1.17s2.11,.45,2.84,1.17c.73,.73,1.17,1.73,1.17,2.84h.75c0-2.63-2.13-4.76-4.76-4.76s-4.76,2.13-4.76,4.76c0,2.63,2.13,4.76,4.76,4.76,2.63,0,4.76-2.13,4.76-4.76h-.38Z"/><path class="d" d="M23.06,129.32c0,.52-.42,.94-.94,.94s-.94-.42-.94-.94,.42-.94,.94-.94,.94,.42,.94,.94h0Z"/><path class="d" d="M13.25,189.68h-.38c0,1.11-.45,2.11-1.17,2.84-.73,.73-1.73,1.17-2.84,1.17s-2.11-.45-2.84-1.17c-.73-.73-1.17-1.73-1.17-2.84,0-1.11,.45-2.11,1.17-2.84,.73-.73,1.73-1.17,2.84-1.17s2.11,.45,2.84,1.17c.73,.73,1.17,1.73,1.17,2.84h.75c0-2.63-2.13-4.76-4.76-4.76s-4.76,2.13-4.76,4.76c0,2.63,2.13,4.76,4.76,4.76s4.76-2.13,4.76-4.76h-.38Z"/><path class="d" d="M9.8,189.68c0,.52-.42,.94-.94,.94s-.94-.42-.94-.94,.42-.94,.94-.94,.94,.42,.94,.94h0Z"/><polygon class="d" points="34.25 85.64 21.76 129.23 8.5 189.6 9.23 189.76 22.48 129.42 34.97 85.85 34.25 85.64 34.25 85.64"/><path class="m" d="M110.87,184.14s-1.15,3.81-2.42,6.57c-1.27,2.76-.4,4.9-1.16,7.4-.76,2.5,2.23,2.31,2.8-.31,.58-2.62,.33-3.86,.88-3.95,.55-.08,2.11,6.3,2.33,8.13,.22,1.83-.15,6.42,.54,7.14,.69,.71,2.34-1.87,1.82-6.64-.52-4.78-.14-4.68-.14-4.68,0,0,.45,1.86,.93,3.85,.47,1.99,.48,4.43,.39,5.79-.09,1.36,1.3,2.04,1.71,1.31,.41-.73,1.06-5.48,.51-7.34-.55-1.86-1.23-5.04-1.23-5.04,0,0,1.83,4.27,2.14,5.38,.31,1.1-.21,5.31,.75,6.08,.4,.32,1.67-.1,1.46-6.1,0,0-.44-2.93-1.07-4.74,0,0,.98,1.35,1.46,3.17,.42,1.6,.65,3.28,.79,4.9,.14,1.62,1.54,1.41,1.55-1.46,0-2.86-.48-6.01-1.28-7.54-.8-1.52-1.98-10.43-4.36-13.69l-8.39,1.77h0Z"/><path class="k" d="M83.94,88.76s6.85,31.7,12.59,42.67c0,0,3.15,15.43,14.12,53.3,0,0,5.73,2.28,9.07-2.07,0,0-5.3-41.63-8.49-54.94,0,0-13.67-47.26-21.16-55.78,0,0-5.37,6.86-6.12,16.83h0Z"/><path class="d" d="M85.9,85.75h-.38c0,2.63,2.13,4.76,4.76,4.76s4.76-2.13,4.76-4.76-2.13-4.76-4.76-4.76-4.76,2.13-4.76,4.76h.75c0-1.11,.45-2.11,1.17-2.84,.73-.73,1.73-1.17,2.84-1.17s2.11,.45,2.84,1.17c.73,.73,1.17,1.73,1.17,2.84s-.45,2.11-1.17,2.84c-.73,.73-1.73,1.18-2.84,1.18s-2.11-.45-2.84-1.18c-.73-.73-1.17-1.73-1.17-2.84h-.38Z"/><path class="d" d="M89.35,85.75c0,.52,.42,.94,.94,.94s.94-.42,.94-.94-.42-.94-.94-.94-.94,.42-.94,.94h0Z"/><path class="d" d="M98.39,129.32h-.38c0,2.63,2.13,4.76,4.76,4.76,2.63,0,4.76-2.13,4.76-4.76s-2.13-4.76-4.76-4.76-4.76,2.13-4.76,4.76h.75c0-1.11,.45-2.11,1.18-2.84,.73-.73,1.73-1.17,2.84-1.17s2.11,.45,2.84,1.17c.73,.73,1.18,1.73,1.18,2.84s-.45,2.11-1.18,2.84c-.73,.73-1.73,1.17-2.84,1.18-1.11,0-2.11-.45-2.84-1.18-.73-.73-1.18-1.73-1.18-2.84h-.38Z"/><path class="d" d="M101.84,129.32c0,.52,.42,.94,.94,.94s.94-.42,.94-.94-.42-.94-.94-.94-.94,.42-.94,.94h0Z"/><path class="d" d="M111.65,189.68h-.38c0,2.63,2.13,4.76,4.76,4.76s4.76-2.13,4.76-4.76c0-2.63-2.13-4.76-4.76-4.76s-4.76,2.13-4.76,4.76h.75c0-1.11,.45-2.11,1.17-2.84,.73-.73,1.73-1.17,2.84-1.17s2.11,.45,2.84,1.17c.73,.73,1.17,1.73,1.18,2.84,0,1.11-.45,2.11-1.18,2.84-.73,.73-1.73,1.17-2.84,1.17s-2.11-.45-2.84-1.17c-.73-.73-1.17-1.73-1.17-2.84h-.38Z"/><path class="d" d="M115.09,189.68c0,.52,.42,.94,.94,.94s.94-.42,.94-.94-.42-.94-.94-.94-.94,.42-.94,.94h0Z"/><polygon class="d" points="89.92 85.85 102.41 129.42 115.67 189.76 116.4 189.6 103.14 129.23 90.64 85.64 89.92 85.85 89.92 85.85"/><path class="h" d="M91.73,36.08c1.04,2.11,2.11,4.29,3.17,6.6,3.37,7.36-3.58,8.29-3.58,8.29,0,0,3.04,5.02,.07,9.03-2.97,4.02-7.84,1.86-7.84,1.86,0,0-1.31,2.19-5.59,2.46-6.2,.4-8.87-2.11-8.87-2.11l-6.73-1.17c-.79,.48-2.93,2.13-8.14,2.76-4.71,.57-8.48-1.85-8.48-1.85-1.17,3.26-10.24,3.23-11.91-1.93-1.57-4.85,.38-6.83,.63-7.05-3.63,2.88-11.6-4.9-5.53-12.28,2.47-3,3.87-4.4,4.74-5.9-3.14,.77-7.12-3.02-6.17-6.32,1.23-4.27,4.92-2.57,7.35-8.69,3.22-8.13,6.21-10.91,6.39-11.06h0C46.17,3.24,54.16-.52,63.56,.06c7.99,.49,13.24,4.99,16.42,8.31,2.74,2.87,4.45,6.46,5.09,10.14,.13,.77,.29,1.53,.48,2.28,1.52,2.69,4.51,7.46,7.41,8.9,3.94,1.97,2.7,7.2-1.22,6.39h0Z"/><path class="j" d="M45.75,32.79s-3.69-3.62-6.65-1.26c-3.49,2.79,.16,12.82,6.34,11.76l.3-10.5h0Z"/><path class="d" d="M43.83,42.81c0,.98-.79,1.77-1.77,1.77s-1.77-.79-1.77-1.77,.79-1.77,1.77-1.77,1.77,.79,1.77,1.77h0Z"/><path class="e" d="M44.76,39.97c-.5-1.51-1.91-4.62-5.42-6,0,0,3.74,3.53,4.03,6.26,.04,.36,.33,.64,.69,.62h.08c.45-.02,.75-.46,.61-.88h0Z"/><path class="j" d="M76.94,32.79s3.69-3.62,6.65-1.26c3.49,2.79-.16,12.82-6.34,11.76l-.3-10.5h0Z"/><path class="d" d="M83.03,42.81c0,.98-.79,1.77-1.77,1.77s-1.77-.79-1.77-1.77,.79-1.77,1.77-1.77,1.77,.79,1.77,1.77h0Z"/><path class="e" d="M77.93,39.97c.5-1.51,1.91-4.62,5.42-6,0,0-3.74,3.53-4.03,6.26-.04,.36-.33,.64-.69,.62h-.08c-.45-.02-.76-.46-.61-.88h0Z"/><path class="m" d="M69.44,54.23l-.26,4.85-.32,6.08s-1.21,2.29-6.65,2.29-6.56-1.56-6.56-1.56l-.22-2.7-.73-8.95h14.74Z"/><path class="e" d="M69.44,54.23l-.26,4.85c-2.27,1.7-7.64,5.04-13.75,4.1l-.73-8.95h14.74Z"/><path class="m" d="M81.18,28.97c-.05,.58-.11,1.18-.17,1.78-1.28,12.47-5.13,28.23-18.88,28.23s-18.72-14.87-20.45-27.03c-.12-.89-.23-1.75-.32-2.6-1.23-11.56,7.74-21.74,19.36-21.87h1.04c8.64,.11,15.83,5.74,18.44,13.39,.32,.92,.56,1.86,.74,2.83,.31,1.69,.4,3.46,.24,5.27h0Z"/><path class="h" d="M53.69,34.18c-1.23,.17-2.37-.68-2.55-1.91-.06-.44,0-.86,.18-1.23-1.85-.22-1.81-1.34-1.81-1.34,.29,.48,2.44,.2,3.34,.06h0c.11-.02,.2-.03,.27-.04h.12c1.16-.09,2.2,.74,2.37,1.92,.18,1.23-.68,2.37-1.91,2.55h0Z"/><path class="e" d="M62.02,53.56c-1.71-.19-2.93-.88-3.02-.93-.25-.14-.33-.45-.19-.7,.14-.24,.45-.33,.7-.19,.14,.08,3.46,1.92,6.64-.11,.24-.15,.56-.08,.71,.16,.15,.24,.08,.55-.16,.71-1.65,1.06-3.32,1.22-4.69,1.07h0Z"/><path class="e" d="M63.61,41.04h-2.66c-.3,0-.55-.24-.55-.55s.24-.55,.55-.55h2.66l.1-.05,.02-.11-2.21-7.58c-.08-.29,.08-.6,.37-.68,.29-.08,.6,.08,.68,.37l2.21,7.58c.11,.37,.04,.76-.19,1.07-.23,.31-.59,.49-.98,.49h0Z"/><path class="h" d="M56.61,24.14h0c.07,.61-.39,1.16-1.01,1.17-2.06,.06-6.35,.45-8.43,2.65,0,0,.69-3.81,8.27-4.74,.58-.07,1.11,.34,1.17,.92h0Z"/><path class="h" d="M67.31,23.91h0c-.06,.61,.43,1.14,1.04,1.14,2.06,0,6.36,.26,8.51,2.4,0,0-.8-3.79-8.4-4.5-.58-.05-1.09,.37-1.15,.95h0Z"/><path class="h" d="M69.79,33.89c1.23,.18,2.37-.68,2.55-1.91,.06-.44,0-.86-.17-1.24,1.84-.22,1.81-1.34,1.81-1.34-.29,.48-2.44,.2-3.33,.06h0c-.11-.02-.2-.03-.27-.04h-.12c-1.16-.09-2.2,.74-2.37,1.92-.18,1.23,.68,2.37,1.91,2.55h0Z"/><path class="l" d="M69.86,43.8c0,.44-.03,.87-.1,1.29-.23,1.37-.85,2.62-1.74,3.61-1.29,1.44-3.16,2.35-5.25,2.38-2.09,.03-3.98-.84-5.31-2.24-.92-.97-1.57-2.2-1.84-3.56-.08-.42-.13-.85-.13-1.28v-.06l14.36-.19v.06h0Z"/><path class="d" d="M69.86,43.8c0,.44-.03,.87-.1,1.29l-14.14,.19c-.08-.42-.13-.85-.13-1.28v-.06l14.36-.19v.06h0Z"/><path class="g" d="M68.02,48.7c-1.29,1.44-3.16,2.35-5.25,2.38-2.09,.03-3.98-.84-5.31-2.24,1.25-1.26,3.13-2.07,5.25-2.1,2.12-.03,4.02,.74,5.3,1.96h0Z"/><path class="h" d="M78.84,23.55c-5.15-.44-18.44-4.53-30.54-8.91,0,0,1.06,12.36-6.12,18.59,0,0-.09-.58-.5-1.28-.12-.89-.23-1.75-.32-2.6-1.23-11.56,7.74-21.74,19.36-21.87h1.04c8.64,.11,15.83,5.74,18.44,13.39,.32,.92,.56,1.86,.74,2.83,0,0-.76-.03-2.1-.15h0Z"/><path class="h" d="M81.18,28.97c-.05,.58-.11,1.18-.17,1.78-1.62-.93-2.06-4.78-2.17-7.2-.06-1.19-.04-2.03-.04-2.03,0,0,.09-.42,1.4-.65,.32,.92,.56,1.86,.74,2.83,.31,1.69,.4,3.46,.24,5.27h0Z"/></g></g></g></svg>