<?xml version="1.0" encoding="UTF-8"?><svg xmlns="http://www.w3.org/2000/svg" viewBox="0 0 235 235"><defs><style>.d{fill:#4d4d4d;}.e{fill:none;}</style></defs><g id="a"/><g id="b"><g id="c"><rect class="e" width="235" height="235"/><path class="d" d="M86.17,167.26c-5.01,5.02-9.84,9.81-14.58,14.68-.5,.52-.72,1.56-.67,2.33,.85,14.14-11.44,25.27-25.38,22.95-10.24-1.71-17.95-10.74-18.06-21.14-.11-10.62,7.31-19.76,17.65-21.64,1.72-.31,3.52-.46,5.27-.34,1.53,.11,2.51-.42,3.53-1.46,4.18-4.28,8.44-8.48,12.67-12.72,.33-.33,.62-.7,1.16-1.31-3.21-3.12-6.5-6.08-9.51-9.29-6.88-7.35-3.51-19.07,6.16-21.56,4.44-1.14,8.52-.19,11.96,2.9,1.2,1.08,2.16,2.44,3.79,4.33,.69-1.13,.97-1.89,1.49-2.41,28.5-28.53,57.03-57.03,85.5-85.58,1.93-1.93,3.84-3.27,6.68-3.77,9.49-1.7,18.91-3.76,28.36-5.68,3.21-.65,5.87,2.02,5.22,5.4-1.99,10.19-4.03,20.38-6.15,30.54-.2,.98-.94,1.96-1.68,2.7-29.37,29.39-58.76,58.75-88.15,88.12-.14,.14-.26,.31-.54,.64,1.18,1.25,2.45,2.44,3.55,3.77,3.6,4.34,4.35,9.2,1.88,14.26-2.43,4.98-6.67,7.41-12.2,7.32-3.55-.05-6.56-1.57-9.05-4.1-2.91-2.94-5.84-5.88-8.9-8.96Zm6.22-30.87c.6-.57,1.19-1.11,1.76-1.68,24.57-24.57,49.14-49.13,73.71-73.7,.58-.58,1.13-1.19,1.76-1.7,1.75-1.41,4.2-1.29,5.77,.24,1.55,1.51,1.73,3.99,.37,5.76-.49,.64-1.1,1.2-1.68,1.78-24.62,24.62-49.24,49.23-73.85,73.84-.56,.56-1.09,1.14-1.46,1.53,2.02,2.11,3.93,4.11,5.95,6.22,.6-.57,1.19-1.12,1.75-1.68,27.89-27.88,55.76-55.78,83.7-83.62,1.97-1.96,3.31-3.96,3.62-6.77,.25-2.35,.93-4.66,1.39-6.99,.79-3.96,1.55-7.93,2.34-11.98-.53,0-.8-.04-1.05,0-6.32,1.27-12.63,2.64-18.98,3.77-2.14,.38-3.7,1.31-5.2,2.81-28.1,28.16-56.23,56.27-84.38,84.38-.56,.56-1.35,.89-1.85,1.21,2.4,2.48,4.32,4.47,6.35,6.56Zm-43.15,62.4c7.27-.01,13.02-5.81,12.99-13.1-.03-7.14-5.81-12.95-12.94-13-7.14-.06-13.14,5.91-13.16,13.06-.01,7.2,5.88,13.05,13.11,13.04Zm14.09-67.58c.47,.67,1.16,2.06,2.2,3.11,11.68,11.76,23.42,23.47,35.15,35.19,.48,.48,.96,.98,1.51,1.36,1.75,1.2,4.14,.92,5.58-.61,1.41-1.49,1.59-3.74,.39-5.43-.43-.6-.98-1.13-1.51-1.65-9.27-9.28-18.54-18.55-27.81-27.82-2.69-2.69-5.36-5.4-8.09-8.04-1.4-1.36-3.1-1.66-4.89-.84-1.62,.75-2.45,2.08-2.53,4.73Zm10.62,24.3c-4.08,4.07-8.19,8.18-11.82,11.8,1.83,1.79,3.8,3.72,5.63,5.51,3.6-3.6,7.72-7.71,11.82-11.82-1.85-1.8-3.83-3.73-5.64-5.49Z"/></g></g></svg>