<?xml version="1.0" encoding="UTF-8"?><svg xmlns="http://www.w3.org/2000/svg" viewBox="0 0 49.93 70.44"><defs><style>.d{fill:#fff;}.e{fill:#ef7b62;}.f{fill:#e9475c;}.g{fill:#3d314c;}.h{fill:#f39975;}.i{fill:#90201d;}.j{fill:#f5a67f;}</style></defs><g id="a"/><g id="b"><g id="c"><g><path class="j" d="M33.07,57.23l-.26,4.85-.32,6.07s-1.21,2.29-6.65,2.29-6.56-1.56-6.56-1.56l-.22-2.69-.73-8.95h14.74Z"/><path class="e" d="M33.07,57.23l-.26,4.85c-2.27,1.7-7.64,5.04-13.75,4.1l-.73-8.95h14.74Z"/><path class="h" d="M9.03,35.19s-4.17-4.08-7.5-1.42c-3.93,3.15,.18,14.46,7.16,13.27l.34-11.85h0Z"/><path class="e" d="M6.59,44.22c-.35-.01-.63-.28-.66-.63-.45-5.57-3.71-6.54-3.85-6.58-.37-.1-.58-.48-.49-.84,.1-.37,.47-.59,.84-.49,.18,.05,4.34,1.2,4.87,7.8,.03,.38-.25,.71-.63,.74h-.08Z"/><path class="e" d="M2.7,41.38c-.16,0-.32-.07-.45-.19-.28-.26-.29-.7-.02-.98,.06-.06,1.48-1.52,3.72-.94,.37,.09,.59,.47,.5,.84-.1,.37-.47,.59-.84,.5-1.48-.38-2.37,.54-2.38,.55-.14,.15-.33,.22-.52,.21h0Z"/><path class="h" d="M40.9,35.19s4.17-4.08,7.5-1.42c3.93,3.15-.18,14.46-7.16,13.27l-.34-11.85h0Z"/><path class="e" d="M43.33,44.22c.34-.01,.64-.28,.66-.63,.45-5.57,3.71-6.54,3.85-6.58,.37-.1,.58-.48,.49-.84-.1-.37-.47-.59-.84-.49-.18,.05-4.34,1.2-4.87,7.8-.03,.38,.25,.71,.63,.74h.08Z"/><path class="e" d="M47.23,41.38c.16,0,.32-.07,.45-.19,.28-.26,.29-.7,.03-.98-.06-.06-1.48-1.52-3.72-.94-.37,.09-.59,.47-.5,.84,.09,.37,.47,.59,.84,.5,1.47-.38,2.37,.54,2.38,.55,.14,.15,.33,.22,.52,.21h0Z"/><path class="j" d="M25.17,61.99c-14.41,0-18.86-17.11-20.18-29.64-1.22-11.55,7.75-21.73,19.36-21.87,.15,0,.31,0,.47,0,.19,0,.39,0,.58,0,11.48,.15,20.41,10.06,19.42,21.49-1.1,12.69-5.24,30.02-19.64,30.02h0Z"/><path class="g" d="M43.65,1.57c7.31,5,.7,14.75,.7,14.75,0,0,7.28,7.12-.21,23.9l-1.33-.27c.85-5.37,.34-11.91,0-12.94-1.01-3.07-6.39-4.7-6.12-8.02,0,0-16.49,5.16-25.42,.09,0,0-.7,4.25-3.15,6.93-2.05,2.24-.88,10.05-.62,13.43l-1.37,.13c-.81-3.44-2.79-9.64-3.01-11.46-.13-1.15-.62-5.71-.83-8.98-.18-2.86,.33-5.74,1.62-8.29,.72-1.41,1.71-2.83,3.08-3.85C11.78,3.42,37.02-2.97,43.65,1.57h0Z"/><path class="i" d="M34.65,45.17s-.21,.68-.67,1.55c-.6,1.14-1.65,2.67-3.31,3.79-.2,.13-.4,.26-.62,.38-1.17,.65-2.6,1.09-4.35,1.09-1.58,0-2.91-.33-4-.85-.19-.09-.38-.19-.55-.28-1.69-.95-2.77-2.33-3.42-3.42-.56-.96-.79-1.69-.81-1.74,.01,0,.26,.15,.7,.36,1.27,.6,4.16,1.72,7.91,1.7h.34c3.65-.1,6.56-1.37,7.93-2.08,.52-.27,.82-.46,.85-.48h0Z"/><path class="f" d="M30.04,50.88c-1.17,.65-2.6,1.09-4.35,1.09-1.58,0-2.91-.33-4-.85,.88-.49,2.26-.95,4.28-.95,1.69,0,3.04,.32,4.07,.71h0Z"/><path class="d" d="M34.65,45.17s-.21,.68-.67,1.55c-1.29,.82-4.02,2.18-8,2.18s-7-.96-8.25-1.49c-.56-.96-.79-1.69-.81-1.74,.01,0,.26,.15,.7,.36,1.27,.6,4.16,1.72,7.91,1.7h.34c3.65-.1,6.56-1.37,7.93-2.08,.52-.27,.82-.46,.85-.48h0Z"/><path class="g" d="M18.43,35.17c0,1.44-.64,2.61-1.43,2.61-.79,0-1.43-1.17-1.43-2.61,0-1.44,.64-2.61,1.43-2.61,.79,0,1.43,1.17,1.43,2.61h0Z"/><path class="g" d="M11.97,31.07s.33-3.13,2.58-4.7c2.08-1.45,3.94-1.46,4.93-1.31,.43,.07,.74,.44,.74,.88,0,.52-.45,.92-.96,.87-1.63-.14-5,.14-7.29,4.26h0Z"/><path class="g" d="M32.48,35.17c0,1.44,.64,2.61,1.43,2.61,.79,0,1.43-1.17,1.43-2.61,0-1.44-.64-2.61-1.43-2.61-.79,0-1.43,1.17-1.43,2.61h0Z"/><path class="g" d="M38.77,31.26s-.17-3.15-2.33-4.83c-2-1.56-3.86-1.66-4.85-1.56-.44,.04-.77,.4-.79,.84-.02,.52,.4,.94,.91,.92,1.64-.06,4.99,.39,7.06,4.63h0Z"/><path class="e" d="M25.2,44c-.23-.02-.44-.15-.57-.36-.22-.36-.11-.82,.25-1.05l2.17-1.34-1.7-.63c-.28-.1-.48-.37-.5-.67l-.29-4.89c-.03-.42,.29-.78,.71-.8,.42-.03,.78,.29,.8,.71l.26,4.39,2.7,.99c.27,.1,.46,.35,.49,.64,.03,.29-.11,.57-.36,.72l-3.5,2.16c-.15,.09-.31,.13-.47,.11h0Z"/><path class="e" d="M25.84,55.04c-1.26,.03-2.71-.23-4.18-1.11-.25-.15-.33-.48-.18-.73,.15-.25,.48-.33,.73-.18,3.53,2.1,6.97,.1,7.11,.01,.25-.15,.58-.07,.73,.18,.15,.25,.07,.58-.18,.73-.11,.06-1.76,1.04-4.02,1.09h0Z"/></g></g></g></svg>