<?xml version="1.0" encoding="UTF-8"?><svg xmlns="http://www.w3.org/2000/svg" viewBox="0 0 69.1 67.44"><defs><style>.d{fill:#fff;}.e{fill:#ef7b62;}.f{fill:#3d314c;}.g{fill:#f39975;}.h{fill:#e1dfde;}.i{fill:#90201d;}.j{fill:#f5a67f;}</style></defs><g id="a"/><g id="b"><g id="c"><g><path class="f" d="M65.01,36.08c1.04,2.11,2.11,4.29,3.17,6.6,3.37,7.37-3.59,8.3-3.59,8.3,0,0,3.04,5.02,.07,9.03-2.97,4.01-7.84,1.86-7.84,1.86,0,0-1.31,2.18-5.59,2.46-6.2,.4-8.87-2.12-8.87-2.12l-6.73-1.17c-.79,.48-2.92,2.19-8.14,2.76-6.19,.67-9.62-1.31-9.62-1.31-1.17,3.26-9.09,2.69-10.76-2.47-1.57-4.85,.38-6.83,.63-7.05-3.63,2.88-11.6-4.9-5.53-12.28,2.47-3,3.87-4.4,4.74-5.9-3.14,.77-7.12-3.02-6.17-6.32,1.23-4.27,4.92-2.57,7.35-8.69,3.22-8.13,6.21-10.91,6.39-11.06h0C19.45,3.24,27.43-.52,36.84,.06c7.99,.49,13.24,4.99,16.42,8.31,2.74,2.87,4.45,6.46,5.09,10.14,.13,.77,.29,1.53,.48,2.28,1.52,2.69,4.51,7.46,7.41,8.9,3.95,1.97,2.7,7.2-1.23,6.39h0Z"/><path class="g" d="M18.23,32.79s-3.7-3.62-6.65-1.26c-3.48,2.79,.16,12.82,6.35,11.75l.3-10.5h0Z"/><path class="d" d="M16.32,42.81c0,.98-.79,1.77-1.77,1.77s-1.77-.79-1.77-1.77,.79-1.77,1.77-1.77,1.77,.79,1.77,1.77h0Z"/><path class="e" d="M17.24,39.97c-.5-1.51-1.91-4.61-5.42-6,0,0,3.74,3.53,4.03,6.26,.04,.36,.33,.64,.69,.62h.08c.45-.02,.76-.46,.62-.88h0Z"/><path class="g" d="M49.42,32.79s3.69-3.62,6.65-1.26c3.49,2.79-.16,12.82-6.35,11.75l-.3-10.5h0Z"/><path class="d" d="M55.51,42.81c0,.98-.79,1.77-1.77,1.77s-1.77-.79-1.77-1.77,.79-1.77,1.77-1.77,1.77,.79,1.77,1.77h0Z"/><path class="e" d="M50.41,39.97c.5-1.51,1.91-4.61,5.42-6,0,0-3.74,3.53-4.03,6.26-.04,.36-.33,.64-.69,.62h-.08c-.45-.02-.76-.46-.61-.88h0Z"/><path class="j" d="M41.92,54.23l-.26,4.85-.32,6.07s-1.21,2.29-6.65,2.29-6.56-1.56-6.56-1.56l-.22-2.69-.73-8.95h14.74Z"/><path class="e" d="M41.92,54.23l-.26,4.85c-2.27,1.7-7.65,5.04-13.75,4.1l-.73-8.95h14.74Z"/><path class="j" d="M53.66,28.97c-.05,.58-.11,1.18-.17,1.78-1.28,12.47-5.13,28.23-18.88,28.23S15.89,44.11,14.16,31.95c-.12-.89-.23-1.75-.32-2.6-1.23-11.56,7.74-21.74,19.36-21.87h1.04c8.64,.11,15.83,5.74,18.44,13.39,.32,.92,.56,1.86,.74,2.83,.31,1.69,.4,3.46,.24,5.27h0Z"/><path class="i" d="M42.81,42.11s-.15,1.64-.87,3.44c-.84,2.09-2.47,4.4-5.55,4.64-3.74,.29-6.53-.24-8.21-3.11-.68-1.17-1.18-2.72-1.49-4.77,0,0,.27,.17,.78,.41,1.32,.63,4.24,1.71,7.95,1.24,3.4-.43,5.54-1.1,6.59-1.51,.54-.21,.8-.35,.8-.35h0Z"/><path class="d" d="M41.85,44.41h0c-.05,.23-.09,.37-.09,.37h0s-.5,.76-2.62,1.4c-.66,.2-1.47,.38-2.47,.54-1.66,.26-3.24,.19-4.54,0-2.02-.28-3.41-.83-3.53-.88h0c-.09-.11-.17-.25-.25-.41h0c-.39-.75-.71-1.96-.86-2.7,1.32,.63,4.24,1.71,7.95,1.24,3.4-.43,5.54-1.1,6.59-1.51,.05,.77-.07,1.52-.17,1.95h0Z"/><path class="d" d="M44.71,42.4c-2.73,.15-2.86,.28-3.01,3.01-.15-2.73-.28-2.86-3.01-3.01,2.73-.15,2.86-.28,3.01-3.01,.16,2.73,.28,2.86,3.01,3.01h0Z"/><path class="d" d="M41.94,45.55c-.84,2.09-2.47,4.4-5.55,4.64-3.74,.29-6.53-.24-8.21-3.11,.08-.42,.21-.79,.3-1.01,.06-.15,.1-.24,.1-.24h0c2.2,.59,4.29,.71,6.14,.59,1.97-.12,3.66-.5,4.89-.87,1.33-.39,2.11-.77,2.14-.79h0l.07,.3,.11,.47h0Z"/><path class="h" d="M36,46.49s-1.8,.3-3.89,.23c-1.22-.04-2.54-.21-3.64-.65,.06-.15,.1-.24,.1-.24-.09-.11-.17-.25-.25-.41,.06,.02,2.14,.75,6.4,1,.4,.02,.83,.04,1.28,.06h0Z"/><path class="h" d="M41.75,44.78l.07,.3c-.75,.64-1.78,.95-2.7,1.1-1.13,.19-2.43,.23-2.43,.23,.9-.13,2.15-.53,2.92-.85,1.27-.53,2.18-1.12,2.23-1.15-.05,.23-.09,.37-.09,.37h0Z"/><path class="f" d="M26.17,34.18c-1.23,.18-2.37-.68-2.55-1.91-.06-.44,0-.86,.17-1.23-1.85-.22-1.81-1.34-1.81-1.34,.29,.48,2.44,.2,3.33,.06h0c.11-.02,.2-.03,.27-.04h.12c1.16-.09,2.2,.74,2.37,1.92,.18,1.23-.68,2.37-1.91,2.55h0Z"/><path class="e" d="M33.87,52.83c-1.8-.2-3.1-.93-3.19-.98-.26-.15-.35-.48-.2-.74,.15-.26,.48-.35,.74-.2,.15,.09,3.66,2.04,7.03-.12,.25-.16,.59-.09,.75,.16,.16,.25,.09,.59-.17,.75-1.75,1.12-3.52,1.29-4.96,1.13h0Z"/><path class="e" d="M36.09,41.04h-2.66c-.3,0-.55-.25-.55-.55s.24-.55,.55-.55h2.66l.1-.05,.02-.11-2.21-7.58c-.08-.29,.08-.59,.37-.68,.29-.08,.6,.08,.68,.37l2.21,7.58c.11,.37,.04,.76-.19,1.07-.23,.31-.59,.49-.98,.49h0Z"/><path class="f" d="M29.09,24.49h0c.07,.61-.39,1.16-1.01,1.17-2.06,.06-6.35,.45-8.43,2.65,0,0,.69-3.81,8.27-4.74,.58-.07,1.11,.34,1.17,.92h0Z"/><path class="f" d="M39.79,24.26h0c-.05,.61,.43,1.14,1.04,1.14,2.06,0,6.37,.26,8.51,2.4,0,0-.8-3.79-8.4-4.5-.58-.05-1.1,.37-1.15,.95h0Z"/><path class="f" d="M51.32,23.55c-5.15-.44-18.45-4.53-30.54-8.91,0,0,1.06,12.36-6.12,18.59,0,0-.09-.58-.5-1.28-.12-.89-.23-1.75-.32-2.6-1.23-11.56,7.74-21.74,19.36-21.87h1.04c8.64,.11,15.83,5.74,18.44,13.39,.32,.92,.56,1.86,.74,2.83,0,0-.76-.03-2.1-.15h0Z"/><path class="f" d="M53.66,28.97c-.05,.58-.11,1.18-.17,1.78-1.62-.93-2.06-4.78-2.17-7.2-.06-1.19-.04-2.03-.04-2.03,0,0,.09-.42,1.4-.65,.32,.92,.56,1.86,.74,2.83,.31,1.69,.4,3.46,.24,5.27h0Z"/><path class="f" d="M39.57,33.14s.92-2.88,3.52-3.22c2.59-.34,4.03,2.31,4.03,2.31,0,0-3.84-2.72-7.55,.91h0Z"/></g></g></g></svg>