<?xml version="1.0" encoding="UTF-8"?><svg xmlns="http://www.w3.org/2000/svg" viewBox="0 0 52.4 68.21"><defs><style>.d{fill:#fff;}.e{fill:#d46b58;}.f{fill:#3d314c;}.g{fill:#e1dfde;}.h{fill:#f2937c;}.i{fill:#90201d;}.j{fill:#f5b59b;}</style></defs><g id="a"/><g id="b"><g id="c"><g><path class="j" d="M34.87,56.12l-.28,4.44-.35,5.56s-1.3,2.09-7.16,2.09-7.06-1.43-7.06-1.43l-.24-2.47-.79-8.19h15.87Z"/><path class="h" d="M34.87,56.12l-.28,4.44c-2.44,1.56-8.23,4.61-14.8,3.75l-.79-8.19h15.87Z"/><path class="f" d="M8.02,43.7s-2.02,2.66-.84,5.17c1.17,2.51,3.4,2.07,3.4,2.07,0,0-.22,3.31,1.79,4.27,2.01,.96,4.51-1.65,4.09-4.27-.42-2.61-4.3-9.05-8.43-7.24h0Z"/><path class="f" d="M45.19,43.7s2.02,2.66,.84,5.17c-1.17,2.51-3.4,2.07-3.4,2.07,0,0,.23,3.31-1.79,4.27-2.01,.96-4.51-1.65-4.09-4.27,.42-2.61,4.3-9.05,8.43-7.24h0Z"/><path class="h" d="M12.2,30.19s-3.56-5.34-8.9-2.85C-2.05,29.83-.02,45.8,9.29,44.49c0,0,4.51-6.65,2.9-14.3h0Z"/><path class="e" d="M7.12,39.21c-.39,0-.72-.31-.74-.71-.16-3.73-2.94-6.41-2.97-6.44-.3-.28-.31-.75-.03-1.05,.28-.3,.75-.31,1.05-.03,.13,.12,3.25,3.11,3.44,7.45,.02,.41-.3,.76-.71,.77h-.03Z"/><path class="e" d="M4.27,37.43h-.11c-.41-.07-.69-.45-.63-.85,.01-.09,.34-2.13,2.19-2.85,.38-.15,.81,.04,.96,.42,.15,.38-.04,.81-.42,.96-1.05,.41-1.26,1.67-1.26,1.69-.05,.37-.37,.63-.73,.63h0Z"/><path class="h" d="M42.02,30.45s2.14-5.7,7.48-3.2c5.34,2.49,3.32,18.46-6,17.15,0,0-3.08-6.29-1.48-13.95h0Z"/><path class="e" d="M46.04,39.21h-.03c-.41-.02-.73-.37-.71-.78,.19-4.35,3.31-7.33,3.44-7.45,.3-.28,.77-.27,1.05,.03,.28,.3,.27,.77-.03,1.05-.05,.04-2.81,2.72-2.97,6.44-.02,.4-.35,.71-.74,.71h0Z"/><path class="e" d="M48.89,37.43c-.36,0-.68-.26-.73-.63,0-.03-.22-1.28-1.26-1.69-.38-.15-.57-.58-.42-.96,.15-.38,.58-.57,.96-.42,1.86,.73,2.18,2.77,2.19,2.85,.06,.41-.22,.78-.63,.84h-.11Z"/><path class="j" d="M6.81,17.33S1.71,59.31,26.68,59.31,45.38,16.96,45.38,16.96l-38.57,.37h0Z"/><path class="f" d="M32.45,31.27s1.68-2.23,4.26-1.55c2.58,.68,2.44,3.41,2.44,3.41,0,0-2.2-3.61-6.7-1.86h0Z"/><path class="f" d="M17.4,30.96c0,1.01,.82,1.83,1.83,1.83s1.83-.82,1.83-1.83-.82-1.83-1.83-1.83-1.83,.82-1.83,1.83h0Z"/><path class="f" d="M32.78,22.76s-1.65,1.82-1.07,2.79c0,0,6.2,1.62,9.43,3.91,0,0,.8-2.8-1.77-4.25-2.57-1.45-6.59-2.45-6.59-2.45h0Z"/><path class="f" d="M21.63,22.76s1.49,1.95,.83,2.86c0,0-6.3,1.09-9.69,3.1,0,0-.56-2.85,2.11-4.07,2.68-1.22,6.75-1.89,6.75-1.89h0Z"/><path class="h" d="M26.1,41.53c-.84,0-1.67-.17-2.3-.38-.39-.13-.6-.55-.47-.94,.13-.39,.55-.6,.94-.47,.03,0,3.09,.97,3.7-.63,.58-1.51-.46-5.96-1.26-8.41-.13-.39,.09-.81,.48-.94,.39-.13,.81,.09,.94,.48,.23,.7,2.19,6.91,1.23,9.4-.56,1.45-1.91,1.89-3.25,1.89h0Z"/><path class="h" d="M27.13,53.9c-1.18,0-2.53-.28-3.89-1.13-.23-.15-.3-.45-.16-.68,.15-.23,.45-.3,.68-.16,3.25,2.04,6.51,.25,6.65,.17,.24-.13,.54-.05,.68,.19,.13,.24,.05,.54-.19,.67-.1,.06-1.67,.93-3.78,.93h0Z"/><path class="f" d="M31.14,41.56c1.41-.3,2.88-.68,4.5-.85,.41-.04,.83-.07,1.28-.06,.45,0,.91,.04,1.42,.16,.25,.06,.52,.14,.79,.25,.13,.05,.27,.12,.4,.2,.14,.08,.28,.17,.42,.28,.54,.41,.93,.95,1.18,1.47,.26,.53,.39,1.05,.47,1.54,.08,.49,.1,.96,.09,1.42-.02,.91-.15,1.76-.35,2.58-.39,1.63-1.02,3.15-1.82,4.59-.41,.72-.86,1.42-1.38,2.08-.13,.17-.27,.33-.4,.49l-.21,.24-.25,.27c-.34,.35-.72,.67-1.1,.95-1.55,1.11-3.25,1.67-4.88,2.02-1.65,.33-3.28,.45-4.89,.4-1.61-.12-3.2-.39-4.77-.82-.79-.22-1.57-.48-2.37-.83-.4-.18-.8-.38-1.22-.64l-.16-.1-.18-.12c-.11-.08-.22-.16-.33-.24-.2-.17-.39-.33-.56-.5-.34-.33-.63-.67-.9-1.02-.27-.34-.52-.68-.74-1.03-.46-.69-.87-1.39-1.25-2.1-.37-.71-.72-1.44-1.03-2.18-.31-.75-.59-1.51-.81-2.32-.22-.81-.39-1.66-.43-2.6-.02-.47,0-.97,.09-1.5,.09-.53,.26-1.12,.61-1.72,.35-.59,.93-1.18,1.61-1.51,.33-.17,.69-.28,.99-.34,.3-.06,.57-.1,.83-.1,1.03-.04,1.84,.15,2.62,.36,.77,.22,1.49,.49,2.19,.73,.35,.11,.7,.23,1.03,.33,.35,.1,.65,.16,1.02,.25,.72,.16,1.43,.33,2.15,.44,.71,.11,1.43,.17,2.13,.19,.71,.02,1.42-.03,2.11-.17,.7-.13,1.38-.32,2.07-.48h0Zm-15.25,2.38s-.07,.16-.1,.35c-.03,.19-.05,.43-.05,.7,0,.53,.08,1.15,.21,1.77,.26,1.25,.7,2.54,1.3,3.73,.3,.59,.64,1.17,1.01,1.69,.37,.52,.79,1,1.19,1.33,.1,.08,.2,.16,.29,.21l.13,.07,.14,.07c.22,.11,.49,.21,.78,.31,.57,.2,1.2,.35,1.84,.48,1.29,.25,2.64,.38,3.97,.39,1.33,.08,2.66,.06,3.91-.14,1.25-.19,2.42-.56,3.3-1.14,.22-.14,.42-.3,.6-.46l.13-.13,.16-.17c.11-.11,.21-.23,.31-.35,.41-.48,.79-.99,1.14-1.54,.7-1.09,1.27-2.3,1.63-3.51,.18-.61,.31-1.21,.35-1.78,.05-.56-.01-1.08-.13-1.36-.05-.14-.1-.21-.15-.26l-.04-.04-.09-.06c-.07-.04-.15-.08-.25-.12-.41-.16-1.04-.24-1.69-.25-1.32-.02-2.76,.16-4.25,.31-.76,.06-1.54,.05-2.31,.03-.77-.03-1.54-.04-2.3-.06-.76-.02-1.52-.06-2.27-.09-.75-.03-1.5-.04-2.24-.05-.19,0-.37,0-.58-.02l-.59-.04-1.14-.07c-.75-.04-1.48-.05-2.16-.04-.68,0-1.34,.04-1.78,.12-.11,.02-.18,.04-.24,.07l-.02,.04h0Z"/><path class="f" d="M5.52,20.55S-1.11,17.42,.16,9.57C.93,4.86,6.56,2.43,9.95,5.32c0,0,.37-3.9,7.45-5.2,5.08-.93,8.28,3.84,8.28,3.84,0,0,1.57-2.61,7.36-1.98,5.1,.56,6.22,4.13,6.22,4.13,0,0,4.09-1.79,7.72,.17,6.14,3.3,1.62,10.57,0,12.55,0,0,2.53,7.65-.95,11.96h-1.23s-1.55-3.23-.12-7.07c0,0-2.54-3.25-2.29-5.62,0,0-7.57,2.24-10.8,0,0,0-4.05,2.46-8.31,.73,0,0-8.03,1.98-11.63,.17,0,0,.28,5.37-2.28,6.36,0,0,.57,3.88-1.07,5.61h-1.77s-3.21-6.6-1.01-10.4h0Z"/><path class="i" d="M34.74,43.93s-.15,1.62-.87,3.41c-.84,2.07-2.45,4.36-5.5,4.6-3.7,.28-6.48-.24-8.14-3.08-.68-1.16-1.17-2.7-1.47-4.73,0,0,.27,.17,.77,.41,1.31,.62,4.2,1.69,7.88,1.23,3.37-.42,5.49-1.09,6.53-1.5,.54-.21,.79-.34,.79-.34h0Z"/><path class="d" d="M33.78,46.21h0c-.05,.23-.09,.36-.09,.36h0s-.49,.76-2.6,1.39c-.65,.19-1.46,.38-2.45,.53-1.65,.25-3.2,.18-4.5,0-2-.28-3.38-.83-3.49-.87h0c-.09-.11-.17-.25-.25-.41h0c-.38-.75-.7-1.94-.85-2.67,1.31,.62,4.2,1.69,7.88,1.23,3.37-.42,5.49-1.09,6.53-1.5,.05,.76-.07,1.51-.16,1.93h0Z"/><path class="d" d="M36.62,44.21c-2.71,.15-2.83,.28-2.98,2.98-.15-2.71-.28-2.83-2.98-2.98,2.71-.15,2.83-.28,2.98-2.98,.15,2.71,.28,2.83,2.98,2.98h0Z"/><path class="d" d="M33.87,47.34c-.84,2.07-2.45,4.36-5.5,4.6-3.7,.28-6.48-.24-8.14-3.08,.08-.42,.21-.78,.29-1,.06-.15,.1-.23,.1-.23h0c2.17,.58,4.25,.7,6.09,.59,1.95-.12,3.63-.5,4.85-.86,1.31-.39,2.09-.77,2.12-.78h0l.07,.3,.11,.47h0Z"/><path class="g" d="M27.99,48.27s-1.79,.3-3.85,.23c-1.21-.04-2.51-.21-3.61-.64,.06-.15,.1-.23,.1-.23-.09-.11-.17-.25-.25-.41,.06,.02,2.12,.75,6.34,1,.4,.02,.82,.04,1.26,.06h0Z"/><path class="g" d="M33.69,46.57l.07,.3c-.74,.63-1.77,.94-2.67,1.09-1.12,.19-2.41,.23-2.41,.23,.9-.13,2.13-.52,2.89-.84,1.26-.52,2.16-1.11,2.21-1.14-.05,.23-.09,.36-.09,.36h0Z"/></g></g></g></svg>