<?xml version="1.0" encoding="UTF-8"?><svg xmlns="http://www.w3.org/2000/svg" viewBox="0 0 701.5 177.61"><defs><style>.d{fill:#212e4f;}</style></defs><g id="a"/><g id="b"><g id="c"><g><g><path class="d" d="M83.63,15.81c0-1.18,.05-3.18,.16-6.02,.11-2.57,.16-4.57,.16-6.02-.05-.91-.16-1.43-.32-1.57-.16-.13-.78-.2-1.85-.2-.05,0-3.56,.27-10.51,.8-12.95,1.02-21.83,1.52-26.64,1.52-16.96,0-29.77-.56-38.44-1.69-.64-.05-1.02-.08-1.12-.08-.91,0-1.55,2.01-1.93,6.02-.21,2.52-.4,5.03-.56,7.54-.11,.8-.59,3.08-1.45,6.82-.75,3.42-1.12,5.48-1.12,6.18,0,.54,.43,.8,1.28,.8,6.37,0,14.9-.53,25.6-1.6,.43,14.45,.64,23.76,.64,27.93,0,6.31-.27,15.78-.8,28.41-.54,12.63-.8,22.1-.8,28.41,0,1.39,.75,2.22,2.25,2.49,2.78,.43,7.62,.64,14.53,.64,6.21,0,10.91-.21,14.12-.64,1.34-.16,2.09-.29,2.25-.4,.48-.27,.72-.91,.72-1.93,0-6.31-.25-15.81-.76-28.49-.51-12.68-.76-22.18-.76-28.49,0-5.35,.16-14.79,.48-28.33,14.07,.8,22.12,1.2,24.16,1.2,1.18,0,1.77-.53,1.77-1.6,0-1.28-.17-3.22-.52-5.82-.35-2.59-.52-4.56-.52-5.9Z"/><path class="d" d="M92.78,113.14s-.01-.04-.01-.06c0,.1,0,.12,.01,.06Z"/><path class="d" d="M127.69,4.73c0-1.18-.78-1.77-2.33-1.77-1.66,0-4.11,.08-7.34,.24-3.24,.16-5.69,.24-7.34,.24s-4.16-.08-7.5-.24c-3.34-.16-5.85-.24-7.5-.24-1.23,0-1.85,.59-1.85,1.77,0,5.73,.19,14.31,.56,25.76,.37,11.45,.56,20.04,.56,25.76,0,6.8-.48,21.03-1.45,42.7-.42,9.06-.66,13.79-.71,14.19,.03,1.3,.79,2.11,2.32,2.42,2.14,.43,7.11,.64,14.93,.64,5.83,0,10.49-.21,13.96-.64,1.28-.16,1.98-.27,2.09-.32,.48-.27,.72-.94,.72-2.01,0-6.31-.16-15.81-.48-28.49-.32-12.68-.48-22.18-.48-28.49,0-5.72,.31-14.31,.92-25.76,.61-11.45,.92-20.04,.92-25.76Z"/><path class="d" d="M260.43,60.67c0-6.31,.23-15.74,.68-28.29,.45-12.55,.68-21.98,.68-28.29,0-1.28-.8-1.93-2.41-1.93-1.34,0-3.38,.13-6.14,.4-2.76,.27-4.8,.4-6.14,.4-1.6,0-3.97-.08-7.1-.24-3.13-.16-5.47-.24-7.02-.24-1.07,0-2.06,1.04-2.97,3.13-10.59,22.63-18.59,39.56-24,50.8-1.93,4.01-3.18,6.02-3.77,6.02-1.12,0-2.52-1.74-4.17-5.22L174.63,5.78c-1.07-2.25-1.9-3.37-2.49-3.37-2.94,0-7.36,.09-13.24,.28-5.89,.19-10.3,.28-13.24,.28-2.3,0-3.42,.54-3.37,1.6l.08,1.36c.43,8.78,.67,15.38,.72,19.82,.53,17.07,.8,28.7,.8,34.91,0,5.83-.28,14.59-.84,26.28-.56,11.69-.84,20.45-.84,26.28,0,.86,.12,1.46,.36,1.81,.24,.35,.9,.52,1.97,.52h26.8c1.5,0,2.25-.94,2.25-2.81,0-5.24-.13-13.11-.4-23.59-.27-10.49-.4-18.35-.4-23.59,0-1.07,.19-1.85,.56-2.33,.37,.32,.62,.62,.72,.88,2.51,5.3,6.29,13.88,11.32,25.76,4.71,11.24,8.51,19.8,11.4,25.68,.53,1.07,2.19,1.6,4.98,1.6,1.87,0,2.94-.03,3.21-.08,.8-.21,1.47-.94,2.01-2.17,3.85-9.47,7.7-18.97,11.56-28.49,6.58-16.21,10.16-24.48,10.75-24.8,.48,.11,.72,.94,.72,2.49,0,5.41-.2,13.51-.6,24.32-.4,10.81-.6,18.91-.6,24.32,0,1.87,.78,2.81,2.33,2.81h28.41c1.55,0,2.33-.83,2.33-2.49,0-5.78-.24-14.5-.72-26.16-.48-11.66-.72-20.41-.72-26.24Z"/><path class="d" d="M331.05,0c-16.53,0-30.26,5.81-41.17,17.42-10.7,11.34-16.05,25.33-16.05,41.97s5.35,30.52,16.05,41.81c10.91,11.56,24.64,17.33,41.17,17.33s30.39-5.72,41.25-17.17c10.65-11.29,15.97-25.28,15.97-41.97s-5.38-30.52-16.13-41.97c-10.97-11.61-24.67-17.42-41.09-17.42Zm19.26,79.37c-5.3,6.05-11.72,9.07-19.26,9.07-8.08,0-14.63-2.86-19.66-8.59-4.76-5.46-7.14-12.28-7.14-20.47,0-7.65,2.54-14.42,7.62-20.3,5.24-6.1,11.64-9.15,19.18-9.15,7.92,0,14.42,2.94,19.5,8.83,4.87,5.62,7.3,12.44,7.3,20.46s-2.52,14.37-7.54,20.14Z"/><path class="d" d="M477.35,15.81c0-1.18,.05-3.18,.16-6.02,.11-2.57,.16-4.57,.16-6.02-.05-.91-.16-1.43-.32-1.57-.16-.13-.78-.2-1.85-.2-.05,0-3.56,.27-10.51,.8-12.95,1.02-21.83,1.52-26.64,1.52-16.96,0-29.77-.56-38.44-1.69-.64-.05-1.02-.08-1.12-.08-.91,0-1.55,2.01-1.93,6.02-.21,2.52-.4,5.03-.56,7.54-.11,.8-.59,3.08-1.45,6.82-.75,3.42-1.12,5.48-1.12,6.18,0,.54,.43,.8,1.28,.8,6.37,0,14.9-.53,25.6-1.6,.43,14.45,.64,23.76,.64,27.93,0,6.31-.27,15.78-.8,28.41-.53,12.63-.8,22.1-.8,28.41,0,1.39,.75,2.22,2.25,2.49,2.78,.43,7.62,.64,14.53,.64,6.21,0,10.91-.21,14.12-.64,1.34-.16,2.09-.29,2.25-.4,.48-.27,.72-.91,.72-1.93,0-6.31-.26-15.81-.76-28.49-.51-12.68-.76-22.18-.76-28.49,0-5.35,.16-14.79,.48-28.33,14.07,.8,22.12,1.2,24.16,1.2,1.18,0,1.77-.53,1.77-1.6,0-1.28-.17-3.22-.52-5.82-.35-2.59-.52-4.56-.52-5.9Z"/><path class="d" d="M593,60.67c0-6.21,.25-15.52,.76-27.93,.51-12.41,.76-21.69,.76-27.85,0-1.28-.78-1.93-2.33-1.93s-4,.08-7.18,.24c-3.18,.16-5.55,.24-7.1,.24s-4-.08-7.18-.24-5.55-.24-7.1-.24c-1.34,0-2.01,.83-2.01,2.49,0,3.91,.19,9.75,.56,17.54,.37,7.78,.56,13.6,.56,17.46,0,1.87-.64,2.97-1.93,3.29-1.82,.43-8.45,.64-19.9,.64-12.31,0-19.15-.21-20.55-.64-1.02-.32-1.52-1.42-1.52-3.29,0-4.01,.29-10.02,.88-18.02,.59-8,.88-14,.88-18.02,0-.96-.46-1.45-1.36-1.45-1.71,0-4.29,.08-7.74,.24-3.45,.16-6.03,.24-7.74,.24s-4.16-.08-7.5-.24c-3.35-.16-5.85-.24-7.5-.24-1.12,0-1.69,.59-1.69,1.77,0,6.21,.27,15.53,.8,27.97s.8,21.76,.8,27.97c0,5.83-.28,14.58-.84,26.24-.56,11.66-.84,20.38-.84,26.16,0,1.39,.78,2.22,2.33,2.49,1.98,.32,6.58,.48,13.8,.48,8.35,0,13.37-.16,15.09-.48,1.45-.27,2.17-1.2,2.17-2.81,0-4.17-.13-10.42-.4-18.74-.27-8.32-.4-14.57-.4-18.74,0-2.14,.59-3.34,1.76-3.61,1.87-.43,8.4-.64,19.58-.64s17.6,.21,19.42,.64c1.18,.32,1.77,1.52,1.77,3.61,0,4.23-.2,10.58-.6,19.06-.4,8.48-.6,14.83-.6,19.06,0,1.12,.74,1.85,2.21,2.17,1.47,.32,6.41,.48,14.81,.48,5.94,0,10.54-.16,13.8-.48,1.28-.11,2.03-.24,2.25-.4,.48-.27,.72-.96,.72-2.09,0-5.78-.28-14.5-.84-26.16-.56-11.66-.84-20.41-.84-26.24Z"/><path class="d" d="M701.34,19.22c-.11-5.7-.16-9.96-.16-12.8,0-2.3-.54-3.45-1.61-3.45-3.26,0-8.12,.15-14.57,.44-6.45,.29-11.28,.44-14.49,.44h-2.01c-.48,.16-.72,.8-.72,1.93,0,2.68,.2,6.73,.6,12.16,.4,5.43,.6,9.48,.6,12.16,0,1.34-2.3,5.22-6.9,11.64-3.64,5.14-6.56,8.99-8.75,11.56-2.41-2.73-5.48-6.61-9.23-11.64-4.71-6.42-7.06-10.43-7.06-12.04,0-2.73,.12-6.83,.36-12.32,.24-5.48,.36-9.59,.36-12.32,0-.8-.62-1.2-1.85-1.2-3.32,0-8.29-.13-14.93-.4-6.63-.27-11.58-.4-14.85-.4-1.07,0-1.6,.88-1.6,2.65,0,3.21,.16,8.02,.48,14.45,.32,6.42,.48,11.24,.48,14.45,0,1.34,.61,3.05,1.85,5.14,12.04,18.89,21.29,32.9,27.77,42.05,1.28,1.98,1.93,3.83,1.93,5.54,0,2.89-.24,7.24-.72,13.04-.48,5.81-.72,10.13-.72,12.96,0,1.34,.75,2.11,2.25,2.33,2.14,.32,7.09,.48,14.85,.48s12.52-.16,14.45-.48c1.34-.21,2.06-.35,2.17-.4,.43-.21,.64-.8,.64-1.77,0-2.78-.16-7.01-.48-12.68-.32-5.67-.48-9.92-.48-12.76,0-1.82,.85-3.85,2.57-6.1,12.09-15.3,21.64-29.88,28.65-43.74,.86-1.71,1.28-3.72,1.28-6.02,0-2.89-.05-7.18-.16-12.88Z"/></g><g><g><path class="d" d="M213.82,164.28c0,3.52-1.48,6.54-4.45,9.06-2.6,2.22-5.77,3.63-9.5,4.24-.14,.02-.25,.03-.34,.03-.4,0-1.28-1.22-2.65-3.66-1.37-2.44-2.06-3.93-2.06-4.46,0-.19,.13-.31,.39-.36,2.52-.57,4.18-1.06,5-1.46,1.8-.9,2.71-2.24,2.71-4.01,0-1.13-.59-2.39-1.77-3.77-2.05-2.36-3.16-3.67-3.33-3.93-1.2-1.8-1.8-3.8-1.8-5.99,0-3.18,1.47-5.81,4.4-7.91,2.39-1.73,5.34-2.86,8.82-3.38,.19-.02,.34-.03,.44-.03,.26,0,.47,.21,.62,.62,.45,1.27,1.5,3.56,3.15,6.87,.05,.1,.08,.19,.08,.26,0,.3-.16,.44-.47,.44-.14,0-.37-.03-.7-.08-.33-.05-.58-.08-.75-.08-1.25,0-2.34,.29-3.28,.86-1.13,.66-1.69,1.58-1.69,2.76,0,1.06,.62,2.36,1.87,3.9,2.2,2.78,3.36,4.23,3.46,4.37,1.23,1.91,1.85,3.81,1.85,5.7Z"/><path class="d" d="M244.79,168.16c0,.75-.15,2.12-.44,4.11-.31,2.17-.59,3.46-.83,3.88-.21,.33-.49,.49-.86,.49-.16,0-.42-.03-.78-.08-1.27-.17-4.96-.26-11.09-.26-1.34,0-3.32,0-5.96-.03-2.64-.02-4.62-.03-5.93-.03-.57,0-.86-.25-.86-.75,0-1.94,.11-4.86,.33-8.76,.22-3.9,.33-6.81,.33-8.76s-.1-5.66-.31-11.06c-.05-1.39-.15-3.46-.29-6.22l-.03-.36c-.03-.4,.18-.6,.65-.6,1.28,0,3.21,.03,5.79,.1,2.58,.07,4.51,.1,5.79,.1s3.18-.03,5.73-.1c2.55-.07,4.46-.1,5.73-.1,.9,0,1.42,.34,1.56,1.01,.09,.4,.22,1.61,.4,3.63,.18,2.02,.27,3.25,.27,3.68,0,.36-.17,.55-.52,.55-.1,0-.29,0-.55-.03-4.62-.38-8.76-.57-12.44-.57-.92,0-1.48,.22-1.69,.65-.09,.21-.13,.88-.13,2s.17,1.96,.52,2.34c.29,.33,.86,.49,1.69,.49,.17,0,.51-.01,1.02-.04,.5-.03,.92-.04,1.25-.04,2.19,0,4.4-.06,6.64-.18,.19-.02,.67-.06,1.43-.13,.59-.07,1.06-.1,1.41-.1,.42,0,.62,.2,.62,.6,0-.37-.16,.96-.47,3.98-.14,1.39-.21,2.78-.21,4.16,0,.35-.25,.52-.75,.52l-2.34-.26c-.99-.1-3.24-.16-6.77-.16h-2.76c-.71,0-1.13,.17-1.25,.52-.02,.09-.03,.62-.03,1.61,0,1.32,.09,2.17,.26,2.55,.3,.66,1.41,1.05,3.33,1.17-.04,0,1.23,0,3.8,0,.92,0,2.29-.08,4.1-.25,1.81-.16,3.17-.25,4.07-.25,.38,0,.57,.31,.57,.94Z"/><path class="d" d="M282.59,175.61c0,.31-.22,.53-.65,.65-.52,.14-2.13,.21-4.84,.21-2.48,0-4.08-.07-4.79-.21-.59-.12-.96-.51-1.12-1.17-.59-2.5-1.05-3.83-1.38-4.01-.28-.12-2.6-.18-6.97-.18-2.95,0-4.52,.08-4.71,.23-.3,.28-.62,1.21-.99,2.78-.33,1.44-.73,2.22-1.2,2.34-.59,.14-2.57,.21-5.93,.21-2.65,0-3.98-.25-3.98-.75,0-.45,1.96-5.99,5.88-16.63,4.25-11.5,6.56-17.83,6.92-18.97,.21-.66,.45-.99,.73-.99,.47,0,1.19,.04,2.17,.13,.98,.09,1.71,.13,2.2,.13s1.16-.03,2.07-.09,1.59-.09,2.04-.09c.33,0,.63,.29,.91,.86,.85,1.82,3.33,8.07,7.44,18.74,4.13,10.74,6.19,16.34,6.19,16.81Zm-18.45-23.71c-.37,.76-.98,2.42-1.85,4.97-.94,2.71-1.41,4.29-1.41,4.76,0,.31,.52,.49,1.56,.52,.54,.04,1.42,.05,2.65,.05,1.15,0,1.78-.14,1.9-.42,.03-.09,.05-.21,.05-.36,0-.57-.4-2.15-1.2-4.74-.78-2.5-1.35-4.09-1.72-4.79Z"/><path class="d" d="M302.99,164.28c0,3.52-1.48,6.54-4.45,9.06-2.6,2.22-5.77,3.63-9.5,4.24-.14,.02-.25,.03-.34,.03-.4,0-1.28-1.22-2.65-3.66-1.37-2.44-2.06-3.93-2.06-4.46,0-.19,.13-.31,.39-.36,2.52-.57,4.18-1.06,5-1.46,1.8-.9,2.71-2.24,2.71-4.01,0-1.13-.59-2.39-1.77-3.77-2.05-2.36-3.16-3.67-3.33-3.93-1.2-1.8-1.8-3.8-1.8-5.99,0-3.18,1.47-5.81,4.4-7.91,2.39-1.73,5.34-2.86,8.82-3.38,.19-.02,.34-.03,.44-.03,.26,0,.47,.21,.62,.62,.45,1.27,1.5,3.56,3.15,6.87,.05,.1,.08,.19,.08,.26,0,.3-.16,.44-.47,.44-.14,0-.37-.03-.7-.08-.33-.05-.58-.08-.75-.08-1.25,0-2.34,.29-3.28,.86-1.13,.66-1.69,1.58-1.69,2.76,0,1.06,.62,2.36,1.87,3.9,2.2,2.78,3.36,4.23,3.46,4.37,1.23,1.91,1.85,3.81,1.85,5.7Z"/><path class="d" d="M343.46,158.04c0,5.41-1.73,9.95-5.18,13.61-3.52,3.71-7.98,5.57-13.38,5.57s-9.81-1.87-13.35-5.62c-3.47-3.66-5.21-8.18-5.21-13.56s1.73-9.93,5.21-13.61c3.54-3.76,7.99-5.65,13.35-5.65s9.77,1.88,13.33,5.65c3.49,3.71,5.23,8.25,5.23,13.61Zm-9.86-.05c0-2.6-.79-4.81-2.37-6.64-1.65-1.91-3.76-2.86-6.32-2.86s-4.52,.99-6.22,2.97c-1.65,1.91-2.47,4.1-2.47,6.59,0,2.65,.77,4.87,2.32,6.64,1.63,1.86,3.76,2.78,6.38,2.78,2.45,0,4.53-.98,6.25-2.94,1.63-1.87,2.45-4.05,2.45-6.53Z"/><path class="d" d="M382.16,140.55c0,1.98-.08,4.95-.25,8.91-.17,3.97-.25,6.94-.25,8.94v17.15c0,.47-.25,.7-.75,.7-.42,0-1.05,.02-1.89,.05s-1.47,.05-1.89,.05c-.45,0-1.13-.04-2.03-.1-.9-.07-1.58-.1-2.03-.1-.31,0-.69-.29-1.12-.86-1.25-1.68-4.06-5.41-8.43-11.19-1.2-1.61-3.02-3.99-5.47-7.13-.07-.1-.2-.21-.39-.31-.14,.12-.21,.31-.21,.57,0,2.01,.06,5.03,.17,9.06,.11,4.03,.17,7.04,.17,9.06,0,.61-.23,.91-.7,.91h-9.01c-.5,0-.75-.27-.75-.81,0-1.87,.09-4.7,.27-8.49,.18-3.78,.27-6.62,.27-8.51,0-1.99-.08-4.98-.25-8.95-.17-3.97-.25-6.95-.25-8.93,0-.38,.34-.57,1.01-.57,1.01,0,2.25-.07,3.72-.21,.35-.03,1.03-.15,2.06-.34,.87-.16,1.55-.23,2.06-.23,.21,0,.53,.3,.96,.88l9.71,13.3c.87,1.2,2.18,2.95,3.93,5.26,.43,.54,.81,.81,1.12,.81,.23,0,.34-.68,.34-2.03,0-1.82-.1-4.56-.3-8.22-.2-3.66-.3-6.41-.3-8.25,0-.64,.18-.96,.55-.96,1.04,0,2.61-.04,4.71-.13,2.1-.09,3.67-.13,4.71-.13,.33,0,.49,.27,.49,.81Z"/><path class="d" d="M436.48,158.04c0,5.41-1.73,9.95-5.18,13.61-3.52,3.71-7.98,5.57-13.38,5.57s-9.81-1.87-13.35-5.62c-3.47-3.66-5.2-8.18-5.2-13.56s1.73-9.93,5.2-13.61c3.54-3.76,7.99-5.65,13.35-5.65s9.77,1.88,13.33,5.65c3.49,3.71,5.23,8.25,5.23,13.61Zm-9.86-.05c0-2.6-.79-4.81-2.37-6.64-1.65-1.91-3.76-2.86-6.33-2.86s-4.52,.99-6.22,2.97c-1.65,1.91-2.47,4.1-2.47,6.59,0,2.65,.77,4.87,2.32,6.64,1.63,1.86,3.76,2.78,6.38,2.78,2.45,0,4.53-.98,6.25-2.94,1.63-1.87,2.45-4.05,2.45-6.53Z"/><path class="d" d="M475.19,140.55c0,1.98-.08,4.95-.25,8.91-.17,3.97-.25,6.94-.25,8.94v17.15c0,.47-.25,.7-.75,.7-.42,0-1.05,.02-1.89,.05s-1.47,.05-1.89,.05c-.45,0-1.13-.04-2.03-.1-.9-.07-1.58-.1-2.03-.1-.31,0-.68-.29-1.12-.86-1.25-1.68-4.06-5.41-8.43-11.19-1.2-1.61-3.02-3.99-5.47-7.13-.07-.1-.2-.21-.39-.31-.14,.12-.21,.31-.21,.57,0,2.01,.06,5.03,.17,9.06,.11,4.03,.17,7.04,.17,9.06,0,.61-.23,.91-.7,.91h-9c-.5,0-.76-.27-.76-.81,0-1.87,.09-4.7,.27-8.49,.18-3.78,.27-6.62,.27-8.51,0-1.99-.08-4.98-.25-8.95-.17-3.97-.25-6.95-.25-8.93,0-.38,.34-.57,1.02-.57,1.01,0,2.25-.07,3.72-.21,.35-.03,1.03-.15,2.05-.34,.87-.16,1.55-.23,2.06-.23,.21,0,.53,.3,.96,.88l9.71,13.3c.87,1.2,2.18,2.95,3.93,5.26,.43,.54,.81,.81,1.12,.81,.23,0,.34-.68,.34-2.03,0-1.82-.1-4.56-.3-8.22-.2-3.66-.3-6.41-.3-8.25,0-.64,.18-.96,.55-.96,1.04,0,2.61-.04,4.71-.13,2.1-.09,3.67-.13,4.71-.13,.33,0,.49,.27,.49,.81Z"/><path class="d" d="M506.68,168.16c0,.75-.15,2.12-.44,4.11-.31,2.17-.59,3.46-.83,3.88-.21,.33-.49,.49-.86,.49-.16,0-.42-.03-.78-.08-1.27-.17-4.96-.26-11.09-.26-1.34,0-3.32,0-5.96-.03-2.64-.02-4.62-.03-5.93-.03-.57,0-.86-.25-.86-.75,0-1.94,.11-4.86,.32-8.76s.33-6.81,.33-8.76-.11-5.66-.31-11.06c-.05-1.39-.15-3.46-.29-6.22l-.03-.36c-.03-.4,.18-.6,.65-.6,1.28,0,3.21,.03,5.79,.1,2.58,.07,4.51,.1,5.79,.1s3.18-.03,5.73-.1c2.55-.07,4.46-.1,5.73-.1,.9,0,1.42,.34,1.56,1.01,.09,.4,.22,1.61,.4,3.63,.18,2.02,.27,3.25,.27,3.68,0,.36-.17,.55-.52,.55-.1,0-.29,0-.55-.03-4.61-.38-8.76-.57-12.44-.57-.92,0-1.48,.22-1.69,.65-.09,.21-.13,.88-.13,2s.17,1.96,.52,2.34c.29,.33,.86,.49,1.69,.49,.17,0,.51-.01,1.02-.04,.5-.03,.92-.04,1.25-.04,2.19,0,4.4-.06,6.64-.18,.19-.02,.67-.06,1.43-.13,.59-.07,1.06-.1,1.41-.1,.42,0,.62,.2,.62,.6,0-.37-.16,.96-.47,3.98-.14,1.39-.21,2.78-.21,4.16,0,.35-.25,.52-.76,.52l-2.34-.26c-.99-.1-3.24-.16-6.77-.16h-2.76c-.71,0-1.13,.17-1.25,.52-.02,.09-.03,.62-.03,1.61,0,1.32,.09,2.17,.26,2.55,.3,.66,1.41,1.05,3.33,1.17-.03,0,1.23,0,3.8,0,.92,0,2.29-.08,4.1-.25,1.81-.16,3.17-.25,4.07-.25,.38,0,.57,.31,.57,.94Z"/></g><rect class="d" x="20.82" y="148.9" width="158.43" height="18.46"/><rect class="d" x="522.25" y="148.9" width="158.43" height="18.46"/></g></g></g></g></svg>