<?xml version="1.0" encoding="UTF-8"?><svg xmlns="http://www.w3.org/2000/svg" xmlns:xlink="http://www.w3.org/1999/xlink" viewBox="0 0 162.75 372.11"><defs><style>.e{fill:#fff;}.f{fill:#ef7b62;}.g{fill:#bb2251;}.h{fill:#e9475c;}.i{fill:#3d314c;}.j{clip-path:url(#d);}.k{fill:#db265c;}.l{fill:#90201d;}.m{fill:#f5a67f;}.n{fill:#2779be;}.o{fill:#3c4a9a;}.p{fill:#2f2236;}</style><clipPath id="d"><path class="e" d="M78.18,372.11c-33.67,0-60.97-4.14-60.97-9.25s27.3-9.25,60.97-9.25,60.97,4.14,60.97,9.25-27.3,9.25-60.97,9.25"/></clipPath></defs><g id="a"/><g id="b"><g id="c"><g><g><path class="e" d="M78.18,372.11c-33.67,0-60.97-4.14-60.97-9.25s27.3-9.25,60.97-9.25,60.97,4.14,60.97,9.25-27.3,9.25-60.97,9.25"/><g class="j"><rect class="e" x="17.21" y="353.61" width="121.94" height="18.5"/></g></g><path class="e" d="M78.04,332.98c-23.3,0-46.86-9.74-64.03-31.39-9.67-12.19-11.98-41.58-9.48-57.08,10.1-62.49,42.14-68.87,18.22-108.4C-1.08,96.74-3.38,25.39,61.88,25.39c.26,0,.51,0,.77,0,66.05,.56,23.47,106.13,68.97,135.66,20.81,13.51,33.46,53.84,30.77,93.42-3.29,48.43-43.42,78.51-84.36,78.51"/><path class="e" d="M134.11,144.52c-2.98,0-5.89-1.37-7.86-3.76-4.3-5.21-11.15-15.72-9.11-27.96,.93-5.59,3.84-7.97,7.41-7.97,7.59,0,18.22,10.73,19.4,24.09,.87,9.83-2.75,13.66-6.59,15.03-1.06,.38-2.16,.56-3.25,.56"/><path class="e" d="M115.29,98.24c-.54,0-1.05-.1-1.52-.25-2.1-.68-3.49-2.66-3.56-4.87-.11-3.52,.42-10.05,5.17-14.44,1.26-1.16,2.44-1.67,3.5-1.67,4.67,0,6.94,9.83,2.41,16.88-2.13,3.32-4.22,4.34-6,4.34"/><path class="e" d="M5.64,183.46c-.23,0-.46-.02-.68-.05-2.19-.29-3.92-1.98-4.38-4.14-.75-3.44-1.41-9.96,2.47-15.14,1.22-1.63,2.5-2.33,3.73-2.33,4.33,0,7.88,8.79,4.84,16.22-1.74,4.26-4,5.44-5.97,5.44"/><path class="m" d="M121.81,165.86s3.56,.73,6.44,2.05c2.89,1.32,6.35,3.01,8.11,3.85,2.12,1.02,.28,2.9-2.73,1.65-3.01-1.25-3.71-1.52-3.71-1.52,0,0,10.1,7.57,11.81,10.5,1.56,2.67-4.22-1.22-9.18-4.18,0,0,8.49,9,7.96,11.04-.69,2.68-10.94-8.26-10.94-8.26,0,0,6.36,9.19,5.15,9.8-1.34,.68-9-7.93-9-7.93,0,0,3.81,6.7,2.87,6.82-1.86,.23-12.69-12.09-13.06-19.58,0,0,4.43-4.24,6.26-4.24h0Z"/><path class="f" d="M131.64,175.71s-3.4,4.85-8.85,5.67c0,0,5.32,1.69,8.85-5.67h0Z"/><path class="f" d="M125.63,175.76s-6.41-2.61-3.96-8.21c0,0-4.8,5.41,3.96,8.21h0Z"/><path class="g" d="M99.44,124.26c-4.89-42.06-14.08-57.78-14.08-57.78-8.61,35.21-2.21,53.25,.69,62.43,2.89,9.18,29.51,42.29,29.51,42.29,2.05-2.58,4.81-4.45,7.44-5.06,0,0-8.43-14.87-11.42-20.44-2.99-5.57-12.13-21.44-12.13-21.44h0Z"/><path class="p" d="M101.54,265.41l-6.75,81.57h-11.9c-2.75-31.79-8.69-73.86,.6-85.18-16.45-38.39-11.59-77.23-11.59-77.23,9.08-4.16,23.29-8.87,23.29-8.87,4.83,27.44,6.35,89.7,6.35,89.7h0Z"/><path class="o" d="M122.42,366.21h-38.92c-1.84,0-3.34-1.37-3.57-3.12-.03-.25-.04-.5-.02-.76l1.58-20.44s1.62-.75,3.89-1.28c1.35-.32,2.48-1.3,2.89-2.62,.03-.1,.05-.2,.08-.3,.89-3.93,6.57-5.18,7.61-1.34,.14,.5,.25,.98,.35,1.45,.02,.11,.05,.23,.07,.34,.17,.83,.29,1.59,.38,2.25v.04c.22,1.69,.2,2.78,.2,2.78,.52,.65,1.01,1.3,1.49,1.93,.25,.32,.48,.63,.72,.94,.51,.67,1.01,1.31,1.5,1.93,.23,.29,.45,.58,.68,.86,.54,.68,1.07,1.32,1.61,1.91,.24,.27,.48,.54,.73,.79,2.01,2.11,4.03,3.55,6.42,3.88,4.22,.58,11.11,1.04,14.44,7.24,.07,.13,.13,.26,.17,.39,.49,1.49-.63,3.12-2.29,3.12h0Z"/><path class="n" d="M122.42,366.21h-38.92c-1.84,0-3.34-1.37-3.57-3.12h44.78c.49,1.49-.63,3.12-2.29,3.12h0Z"/><path class="e" d="M99.16,346.08c-.45,.66-1.37,1.46-3.22,2.2-.32,.13-.66,.25-1.03,.38l-.34-1.02c.37-.12,.7-.24,1-.36,2.13-.86,2.71-1.7,2.87-2.14,.25,.32,.48,.63,.72,.94h0Z"/><path class="e" d="M95.95,348.15c0,.67-.54,1.21-1.21,1.21s-1.21-.54-1.21-1.21,.54-1.21,1.21-1.21,1.21,.54,1.21,1.21h0Z"/><path class="e" d="M101.34,348.87c-.51,.53-1.33,1.12-2.66,1.68-.37,.16-.78,.31-1.23,.46l-.34-1.02c.42-.14,.8-.28,1.14-.42,1.36-.57,2.06-1.12,2.42-1.56,.23,.29,.45,.58,.68,.86h0Z"/><path class="e" d="M98.68,350.5c0,.67-.54,1.21-1.21,1.21s-1.21-.54-1.21-1.21,.54-1.21,1.21-1.21,1.21,.54,1.21,1.21h0Z"/><path class="e" d="M103.67,351.57c-.5,.52-1.31,1.07-2.58,1.61-.38,.16-.79,.32-1.25,.47l-.33-1.02c.43-.14,.8-.28,1.15-.43,1.22-.51,1.91-1.01,2.3-1.42,.24,.27,.48,.54,.73,.79h0Z"/><path class="e" d="M101.09,353.14c0,.67-.54,1.21-1.21,1.21s-1.21-.54-1.21-1.21,.54-1.21,1.21-1.21,1.21,.54,1.21,1.21h0Z"/><path class="e" d="M96.75,340.39c-1.78-.02-3.47,.2-3.47,.2l.02-1.95c1.06-.39,2.15-.51,3.07-.5,.17,.83,.29,1.59,.38,2.25h0Z"/><path class="i" d="M75.4,184.58s-2.81,43.53-8.52,81.01c-1.22,8.01-2.72,59.34-6.42,81.4h-11.92l-2.29-80.11s-6.44-51.14-.51-85.73l29.66,3.44h0Z"/><path class="o" d="M70.91,363.49c-.34,6.86-21.78,4.49-25.21,2.44-1.32-.79-1.88-2.33-1.98-4.18-.17-2.96,.81-6.74,1.65-9.71,1.37-4.83,1.18-4.74,2.14-8.04,0,0-.25-5.37,6.78-7.42,7.03-2.05,9.6,11.32,10.8,13.89,1.1,2.36,5.37,5.58,5.81,11.38,.04,.53,.05,1.08,.02,1.65h0Z"/><path class="e" d="M50.46,348.33l-.56-.86c.26-.17,6.46-4.14,11.86-1.78l-.41,.94c-4.89-2.15-10.82,1.66-10.88,1.7h0Z"/><path class="e" d="M51.07,354.3l-.56-.86c.26-.17,6.46-4.14,11.86-1.78l-.41,.94c-4.89-2.15-10.82,1.66-10.88,1.7h0Z"/><path class="e" d="M50.77,351.31l-.56-.86c.26-.17,6.46-4.15,11.86-1.78l-.41,.94c-4.89-2.15-10.82,1.66-10.88,1.7h0Z"/><path class="e" d="M51.28,348.06c0,.64-.52,1.16-1.16,1.16s-1.16-.52-1.16-1.16,.52-1.16,1.16-1.16,1.16,.52,1.16,1.16h0Z"/><path class="e" d="M51.34,350.89c0,.64-.52,1.16-1.16,1.16s-1.16-.52-1.16-1.16,.52-1.16,1.16-1.16,1.16,.52,1.16,1.16h0Z"/><path class="e" d="M51.95,353.72c0,.64-.52,1.16-1.16,1.16s-1.16-.52-1.16-1.16,.52-1.16,1.16-1.16,1.16,.52,1.16,1.16h0Z"/><path class="e" d="M63.32,352.05c0,.64-.52,1.16-1.16,1.16s-1.16-.52-1.16-1.16,.52-1.16,1.16-1.16,1.16,.52,1.16,1.16h0Z"/><path class="e" d="M63.01,348.96c0,.64-.52,1.16-1.16,1.16s-1.16-.52-1.16-1.16,.52-1.16,1.16-1.16,1.16,.52,1.16,1.16h0Z"/><path class="e" d="M62.71,345.87c0,.64-.52,1.16-1.16,1.16s-1.16-.52-1.16-1.16,.52-1.16,1.16-1.16,1.16,.52,1.16,1.16h0Z"/><path class="n" d="M70.91,363.49c-.34,6.86-21.78,4.49-25.21,2.44-1.32-.79-1.88-2.33-1.98-4.18,2.25,1.29,6.22,2.89,12.15,2.99,7.27,.13,12.52-1.34,15.02-2.9,.04,.53,.05,1.08,.02,1.65h0Z"/><path class="e" d="M57.31,338.69s-3.26-.34-6.03,1.2l.31,2.17s3.89-1.14,6.46-.97c0,0-.05-1.43-.74-2.4h0Z"/><path class="i" d="M46.82,172.09c-1.17,6.22-2.2,16.6,.94,27.04,0,0,21.89,5.43,37.28-6.79,10.07-8,10.54-17.36,10.42-20.25H46.82Z"/><path class="m" d="M29.86,175.8s2.85,2.59,4.33,5.39c1.48,2.8,2.91,5.8,3.8,7.55,1.06,2.1-1.17,2.24-2.72,.74-2.34-2.27-2.68-3.94-2.68-3.94,0,0,3.38,12.16,2.95,15.53-.39,3.07-2.59-3.54-4.72-8.91,0,0,1.22,12.31-.43,13.61-2.18,1.7-3.62-13.22-3.62-13.22,0,0-.57,11.16-1.9,10.9-1.48-.28-2.29-11.78-2.29-11.78,0,0-1.07,7.63-1.89,7.15-1.62-.95-2.67-17.32,1.61-23.48,0,0,6.1-.66,7.54,.46h0Z"/><path class="k" d="M51.88,90.86c-6.06,19.44-14.01,32.63-16.8,36.94-.18,2.74-1.1,15.7-2.74,27.96-1.09,8.13-1.48,15.96-1.62,21.01-3.2,1.42-6.44,1.38-9.73,0-1.41-20.77-.32-37.72,2.58-50.3-.18-16.41,16.97-56.53,16.97-56.53,8.19,6.02,11.34,20.93,11.34,20.93h0Z"/><path class="i" d="M92.7,35.78c.74,2.17,1.5,4.4,2.22,6.78,2.31,7.56-4.97,8.52-4.97,8.52,0,0,2.34,5.15-1.34,9.27-3.67,4.12-8.33,1.91-8.33,1.91,0,0-1.69,2.24-6.12,2.52-6.43,.41-8.77-2.17-8.77-2.17l-6.72-1.21c-.88,.49-1.57,3.78-8.67,4.61-6.45,.75-9.78-3.12-9.78-3.12-1.71,3.35-9.74,2.76-10.66-2.54-.86-4.98,1.46-7.01,1.74-7.24-4.17,2.95-11.13-5.04-3.76-12.61,3-3.08,4.66-4.52,5.78-6.06-3.34,.79-6.83-3.1-5.34-6.49,1.93-4.38,5.45-2.64,8.9-8.92,4.57-8.35,8.08-11.2,8.28-11.36h0C51.09,2.05,59.81-.51,69.37,.08c8.12,.5,12.86,3.82,15.6,7.24,2.36,2.94,3.56,6.64,3.64,10.41,.02,.79,.06,1.57,.13,2.34,1.14,2.76,3.46,7.66,6.22,9.14,3.74,2.03,1.65,7.39-2.25,6.56h0Z"/><path class="f" d="M81.22,30.37s4.21-4.81,7.65-.63c3.02,3.67,1.14,13.4-6.22,13.13l-1.43-12.49h0Z"/><path class="e" d="M87.8,42.26c0,.98-.79,1.77-1.77,1.77s-1.77-.79-1.77-1.77,.79-1.77,1.77-1.77,1.77,.79,1.77,1.77h0Z"/><path class="m" d="M73.64,67.1c-.37,4.4-9.48,7-14.66-.48l-.54-9.66-.4-7.1,16.63,3.23-.82,11.19-.21,2.82h0Z"/><path class="f" d="M73.74,65.62c-5.68,.08-12.02-3.84-15.19-6.54l-.52-9.23,16.63,3.23-.92,12.54h0Z"/><path class="m" d="M67.3,58.27c-17.56-4.02-20.75-27.03-20.75-27.03,0,0-.05-1.54,.24-3.78,.16-1.23,.42-2.68,.86-4.2,1.26-4.42,3.96-9.46,9.73-11.66,.18-.07,.36-.14,.55-.2,9.57-3.39,23.57-1.81,27.83,10.87,.25,.75,.47,1.57,.65,2.45,.1,.5,.19,1.02,.27,1.55,1.91,13.09-3.59,35.61-19.37,32h0Z"/><path class="i" d="M63.81,34.76c-1.23,.17-2.37-.68-2.55-1.91-.06-.44,0-.86,.18-1.23-1.85-.22-1.81-1.34-1.81-1.34,.29,.48,2.44,.2,3.33,.06h0c.11-.02,.2-.03,.27-.04h.12c1.16-.09,2.2,.74,2.37,1.92,.18,1.23-.68,2.37-1.91,2.55h0Z"/><path class="m" d="M49.58,31.71s-6.3-3.45-8.32,2.28c-1.78,5.04,3.96,14.59,11.63,11.46l-3.31-13.74h0Z"/><path class="l" d="M77.86,48.5c-.27,.59-.62,1.17-1.11,1.69-.98,1.04-2.48,1.8-4.76,1.79-1.92,0-3.42-1.07-4.53-2.34-.76-.86-1.33-1.82-1.74-2.62-.49-.96-.73-1.67-.73-1.67,0,0,9.19-.29,13.59-.93h0s.05,.8-.09,1.81c-.09,.68-.28,1.48-.63,2.27h0Z"/><path class="e" d="M78.49,46.23c-4.19,.82-10.97,.75-12.77,.79-.49-.96-.73-1.67-.73-1.67,0,0,9.19-.29,13.59-.93h0s.05,.8-.09,1.81h0Z"/><path class="f" d="M49.97,41.29c-.55-1.66-2.1-5.08-5.96-6.6,0,0,4.12,3.88,4.43,6.88,.04,.39,.36,.7,.76,.69h.09c.49-.02,.83-.5,.68-.97h0Z"/><path class="h" d="M76.75,50.19c-.98,1.04-2.48,1.8-4.76,1.79-1.92,0-3.42-1.07-4.53-2.34,.61-.35,2.3-1.07,4.71-.27,0,0,.85-.52,2.35-.34,.87,.1,1.66,.39,2.22,1.16h0Z"/><path class="f" d="M71.06,54.65c-1.69-.33-2.85-1.11-2.94-1.17-.23-.16-.29-.48-.13-.71,.16-.23,.48-.29,.71-.13,.14,.09,3.29,2.19,6.63,.42,.25-.13,.56-.04,.69,.21,.13,.25,.04,.56-.21,.69-1.73,.92-3.41,.95-4.76,.69h0Z"/><path class="f" d="M73.34,42.33h-2.67c-.3,0-.55-.24-.55-.55s.25-.55,.55-.55h2.67l.1-.05,.02-.11-2.21-7.58c-.08-.29,.08-.59,.37-.68,.29-.08,.6,.08,.68,.37l2.21,7.58c.11,.37,.04,.76-.19,1.07-.23,.31-.59,.49-.97,.49h0Z"/><path class="i" d="M66.61,25.52h0c.12,.6-.31,1.18-.92,1.24-2.05,.2-6.31,.89-8.23,3.24,0,0,.42-3.85,7.91-5.31,.57-.11,1.13,.26,1.24,.83h0Z"/><path class="i" d="M75.07,25.45h0c0,.62,.51,1.11,1.13,1.06,2.05-.16,6.36-.22,8.67,1.75,0,0-1.08-3.71-8.72-3.85-.58-.01-1.06,.45-1.07,1.04h0Z"/><path class="i" d="M78.68,34.48c1.23,.18,2.37-.68,2.55-1.91,.06-.44,0-.86-.18-1.23,1.84-.22,1.81-1.34,1.81-1.34-.29,.48-2.44,.2-3.33,.06h0c-.11-.02-.2-.03-.27-.04h-.12c-1.16-.09-2.2,.74-2.37,1.92-.17,1.23,.68,2.37,1.91,2.55h0Z"/><path class="i" d="M58.91,12.62s-.88,15.41-8.07,21.63c0,0-.62-4.09-6.21-3.47,0,0-.53-.96-1.35-5.59-.82-4.63,2.13-23.77,23.35-22.54,0,0,6.75-1.37,16.19,6.71,9.45,8.08,3.85,16.91,3.85,16.91,0,0-15.75-2.18-27.76-13.64h0Z"/><path class="e" d="M50.09,46.19c0,.98-.79,1.77-1.77,1.77s-1.77-.79-1.77-1.77,.79-1.77,1.77-1.77,1.77,.79,1.77,1.77h0Z"/><path class="k" d="M97.48,173.24c-26.53,13.51-53.04,2.26-53.04,2.26,3.64-23.08,8.05-53.56,8.05-53.56-7.3-13.97-11.95-52.01-11.95-52.01,4.28-2.65,6.29-2.01,11.18-3.3,1.38-.36,2.65-.67,3.74-.92,2.22-.51,3.66-.77,3.66-.77,6.7-.91,13.66-.42,18.73,.23h.1c4.45,.6,7.41,1.31,7.41,1.31,0,0,2.04,15.39,6.43,23.17,4.4,7.79,1.04,12.49,0,15.89-.2,.65-.32,1.54-.39,2.55-.29,4.25-.65,24.26-.65,24.26l6.72,40.89h0Z"/><path class="m" d="M72.7,79.85c-7.28,.23-13.8-7.95-17.24-14.14,2.22-.51,3.66-.77,3.66-.77,6.7-.91,13.66-.42,18.73,.23h.1c.89,6.24,2.42,14.44-5.24,14.68h0Z"/><path class="g" d="M91.79,105.54c-.2,.65-.32,1.54-.39,2.54-12.86,6.61-26.19,2.84-26.19,2.84,17.31-.29,26.57-5.39,26.57-5.39h0Z"/></g></g></g></svg>