<?xml version="1.0" encoding="UTF-8"?><svg xmlns="http://www.w3.org/2000/svg" viewBox="0 0 235 235"><defs><style>.d{fill:#4d4d4d;}.e{fill:none;}</style></defs><g id="a"/><g id="b"><g id="c"><rect class="e" width="235" height="235"/><g><path class="d" d="M149.89,55.68c-3.46,5.39-.03,8.42,3.56,11.36,2.75,2.25,5.26,5.12,8.34,6.54,5.66,2.61,6.74,7.54,7.33,13.23,1.73,16.73-3.07,31.15-13.05,43.68-9.42,11.83-21.29,19.69-35.19,25.02V64.5c9.66-2.94,19.11-5.81,29-8.82Z"/><path class="d" d="M85.14,55.99c9.47,2.89,18.59,5.67,28,8.55v91.3c-22.67-9.95-41.49-23.54-47.66-50.66-1.57-6.89-.71-14.47-.62-21.73,.04-3.58,1.77-6.09,5.05-7.84,3.73-1.98,7.18-4.74,10.41-7.62,3.51-3.13,8.89-5.67,4.82-12Z"/><path class="d" d="M144.53,30.58c0,4.28-.39,7.58,.08,10.73,.91,6.08-1.8,8.5-6.71,10.32-14.65,5.41-29.03,5.49-43.45-.84-3.15-1.38-4.94-2.97-4.5-7.06,.39-3.67,.08-7.42,.08-12.11,18.34,9.79,36.11,7.58,54.5-1.04Z"/><path class="d" d="M55.07,172.8c11.8,6.92,22.9,13.43,34.6,20.29-.75,2.85-1.85,6.97-2.99,11.29-14.87-1.56-26.94-8.61-37.73-19.7,2.2-4.28,4.35-8.45,6.12-11.88Z"/><path class="d" d="M179.71,173.39c1.6,3.06,3.64,6.97,5.83,11.16-10.44,11.19-22.62,18.04-37.59,19.88-1.13-4-2.25-7.96-3.13-11.1,11.68-6.67,23.08-13.19,34.89-19.93Z"/><path class="d" d="M53.46,34.87c-.48,13.68,3.32,24.86,11.02,35.49-3.84,1.47-7.23,2.9-10.71,3.97-.84,.26-2.28-.38-2.97-1.12-7.57-8.15-11.28-18.19-11.71-29.65-.04-1.13,.87-2.93,1.77-3.37,3.88-1.89,7.92-3.39,12.59-5.32Z"/><path class="d" d="M170.46,70.25c7.47-10.41,11.26-21.51,11.17-35.3,4.72,2,8.96,3.62,13.02,5.66,.79,.4,1.35,2.45,1.24,3.66-.84,9.95-3.91,18.93-9.82,26.77-2.43,3.22-4.81,4.38-8.37,2.36-2.09-1.19-4.39-1.94-7.24-3.16Z"/><path class="d" d="M97.46,175.41c-1.15,2.22-2.69,5.17-4.48,8.62-12.5-3.27-23.13-10.38-33.35-19.21,2.29-3.39,4.4-6.5,6.24-9.22,10.7,6.71,21.08,13.22,31.59,19.81Z"/><path class="d" d="M175.25,165.29c-9.67,8.3-19.63,14.72-31,18.27-1.06,.33-3-.72-3.8-1.78-1.48-1.98-2.42-4.44-3.29-6.14,10.54-6.47,20.98-12.88,31.85-19.56,1.69,2.49,3.79,5.59,6.24,9.21Z"/><path class="d" d="M163.46,149.22c-8.94,7.71-18.18,13.91-28.71,17.47-1.5,.51-3.79-.6-5.32-1.64-1.56-1.06-2.63-2.97-4.17-4.81,9.83-5.65,19.67-11.4,29.64-16.85,.95-.52,2.95,.55,4.14,1.41,1.56,1.12,2.81,2.77,4.42,4.42Z"/><path class="d" d="M161.38,34.06h12.62c1.02,12.44-2.85,22.53-9.77,31.76-.89-.6-1.52-1.01-2.15-1.44-4.06-2.82-6.41-5.71-4.18-11.82,2.06-5.63,2.34-12.03,3.47-18.5Z"/><path class="d" d="M70.46,65.65c-6.78-8.94-10.51-18.94-9.53-30.97,.64-.21,1.16-.49,1.71-.55q10.78-1.1,12.58,10.38c.4,2.56,.89,5.1,1.47,7.62,1.94,8.3,1.7,8.88-6.23,13.51Z"/><path class="d" d="M71.8,149.09q5.28-7.25,11.98-3.44c8.44,4.81,16.88,9.64,25.66,14.66-1.86,2.08-3.34,4.06-5.13,5.6-.88,.75-2.51,1.29-3.51,.93-10.74-3.83-20.25-10.03-29.01-17.75Z"/><path class="d" d="M204.05,48.82c5.22,6.25,6.8,14.57,7.14,23.28,.04,.94-1.35,2.66-2.25,2.81-5.42,.91-10.89,1.46-16.04,2.1,3.82-9.67,7.46-18.86,11.14-28.18Z"/><path class="d" d="M41.93,77.03c-5.17-.66-10.74-1.27-16.28-2.18-.75-.12-1.85-1.75-1.85-2.68-.03-8.81,1.9-16.96,7-23.4l11.13,28.27Z"/></g></g></g></svg>