<?xml version="1.0" encoding="UTF-8"?><svg xmlns="http://www.w3.org/2000/svg" viewBox="0 0 161.39 361.2"><defs><style>.d{fill:#fff;}.e{fill:#ed6f6d;}.f{fill:#d46b58;}.g{fill:#275da8;}.h{fill:#3d314c;}.i{fill:#493d5c;}.j{fill:#e1dfde;}.k{fill:#f2937c;}.l{fill:#1078bd;}.m{fill:#e94b47;}.n{fill:#f5b59b;}</style></defs><g id="a"/><g id="b"><g id="c"><g><path class="d" d="M77.52,361.2c-33.39,0-60.46-4.11-60.46-9.17s27.07-9.17,60.46-9.17,60.46,4.11,60.46,9.17-27.07,9.17-60.46,9.17"/><path class="d" d="M77.39,322.4c-23.11,0-46.47-9.66-63.49-31.13-9.59-12.09-11.88-41.23-9.4-56.61,10.01-61.96,41.79-68.3,18.06-107.49C-1.07,88.13-3.35,17.37,61.37,17.37c.25,0,.51,0,.76,0,65.5,.56,23.28,105.24,68.39,134.52,20.64,13.39,33.18,53.39,30.52,92.64-3.26,48.03-43.06,77.86-83.65,77.86"/><path class="d" d="M132.99,135.52c-2.96,0-5.84-1.36-7.8-3.73-4.26-5.16-11.06-15.59-9.04-27.73,.92-5.55,3.8-7.9,7.35-7.9,7.53,0,18.07,10.64,19.24,23.89,.86,9.74-2.73,13.54-6.53,14.9-1.05,.38-2.14,.56-3.22,.56"/><path class="d" d="M114.33,89.62c-.54,0-1.04-.1-1.51-.25-2.08-.68-3.46-2.64-3.53-4.82-.11-3.49,.42-9.96,5.13-14.32,1.25-1.15,2.42-1.66,3.47-1.66,4.63,0,6.88,9.74,2.39,16.74-2.11,3.29-4.19,4.31-5.95,4.31"/><path class="d" d="M5.59,174.13c-.23,0-.46-.02-.68-.05-2.17-.29-3.89-1.97-4.35-4.1-.74-3.41-1.4-9.87,2.45-15.01,1.21-1.62,2.48-2.31,3.7-2.31,4.3,0,7.81,8.72,4.8,16.09-1.73,4.22-3.97,5.39-5.92,5.39"/><path class="n" d="M113.57,171.55s-.52,3.81-1.31,6.65,.37,4.74,.02,7.25c-.35,2.5,2.48,1.87,2.63-.72,.15-2.59-.27-3.74,.24-3.9,.51-.16,2.97,5.7,3.46,7.42,.49,1.72,.83,6.16,1.6,6.74,.77,.58,1.95-2.14,.73-6.63-1.23-4.49-.84-4.45-.84-4.45,0,0,.71,1.7,1.47,3.54,.76,1.84,1.13,4.16,1.25,5.47,.12,1.31,1.55,1.75,1.83,.99,.28-.76,.18-5.4-.63-7.09-.81-1.69-1.94-4.64-1.94-4.64,0,0,2.4,3.81,2.86,4.81,.47,1.01,.61,5.11,1.65,5.7,.43,.24,1.58-.36,.46-6.05,0,0-.86-2.73-1.74-4.37,0,0,1.14,1.14,1.88,2.81,.65,1.47,1.12,3.04,1.51,4.57s1.69,1.11,1.26-1.62c-.43-2.74-1.37-5.68-2.37-7.01-1-1.33-3.48-9.67-6.25-12.43l-7.75,2.97h0Z"/><path class="g" d="M84.65,79.98s6.1,41.24,11.04,52.15c0,0,8.32,27.68,17.84,40.34,0,0,4.51,.44,7.98-3.58,0,0-7.76-29.89-13.12-42.13,0,0-11.59-51.57-15.91-57.57,0,0-6.56,1.2-7.83,10.79h0Z"/><path class="h" d="M105.31,255.52l-6.55,79.13h-11.54c-2.67-30.84-6.98-57.86-2.12-79.13-4.9-23.98-8.53-78.42-8.53-78.42,8.81-4.03,22.94-7.71,22.94-7.71,4.69,26.62,5.82,86.13,5.82,86.13h0Z"/><path class="m" d="M125.57,353.3h-37.75c-1.79,0-3.24-1.33-3.46-3.03-.03-.24-.04-.48-.02-.74l1.53-19.83s1.57-.73,3.77-1.25c1.3-.31,2.4-1.26,2.8-2.54,.03-.09,.05-.19,.08-.29,.87-3.82,6.37-5.03,7.39-1.3,.13,.48,.25,.95,.34,1.4,.02,.11,.05,.23,.07,.33,.16,.8,.28,1.54,.36,2.19v.04c.21,1.64,.19,2.7,.19,2.7,.5,.64,.98,1.26,1.45,1.87,.24,.31,.47,.61,.7,.91,.5,.65,.98,1.27,1.45,1.88,.22,.28,.44,.56,.65,.83,.52,.66,1.04,1.28,1.56,1.86,.23,.26,.47,.52,.7,.77,1.95,2.05,3.91,3.44,6.23,3.77,4.09,.56,10.78,1.01,14.01,7.02,.07,.12,.12,.25,.16,.38,.48,1.45-.61,3.03-2.22,3.03h0Z"/><path class="e" d="M125.57,353.3h-37.75c-1.79,0-3.24-1.33-3.46-3.03h43.44c.48,1.45-.61,3.03-2.22,3.03h0Z"/><path class="d" d="M103.01,333.78c-.44,.64-1.33,1.42-3.12,2.14-.31,.12-.64,.25-1,.36l-.33-.99c.36-.12,.68-.23,.97-.35,2.07-.83,2.63-1.65,2.78-2.07,.24,.31,.47,.61,.7,.91h0Z"/><path class="d" d="M99.89,335.78c0,.65-.52,1.17-1.17,1.17s-1.17-.52-1.17-1.17,.52-1.17,1.17-1.17,1.17,.52,1.17,1.17h0Z"/><path class="d" d="M105.12,336.48c-.49,.52-1.29,1.09-2.58,1.63-.36,.16-.76,.3-1.2,.45l-.33-.99c.41-.14,.78-.27,1.1-.41,1.32-.55,2-1.09,2.35-1.51,.22,.28,.44,.56,.65,.83h0Z"/><path class="d" d="M102.54,338.06c0,.65-.52,1.17-1.17,1.17s-1.17-.52-1.17-1.17,.53-1.17,1.17-1.17,1.17,.52,1.17,1.17h0Z"/><path class="d" d="M107.38,339.11c-.49,.5-1.27,1.04-2.5,1.56-.37,.16-.77,.31-1.21,.45l-.32-.99c.41-.13,.78-.27,1.11-.41,1.18-.49,1.85-.98,2.23-1.38,.23,.26,.47,.52,.7,.77h0Z"/><path class="d" d="M104.88,340.62c0,.65-.53,1.17-1.17,1.17s-1.17-.52-1.17-1.17,.52-1.17,1.17-1.17,1.17,.53,1.17,1.17h0Z"/><path class="d" d="M100.67,328.26c-1.73-.02-3.36,.19-3.36,.19l.02-1.89c1.03-.38,2.09-.49,2.98-.49,.16,.8,.28,1.54,.36,2.19h0Z"/><path class="i" d="M70.34,177.1s-.3,31.41-4.76,78.42c-2.91,25.61-6.14,57.74-9.73,79.13h-11.56l-1.63-79.13s-2.65-48.7,3.1-82.26l24.58,3.84h0Z"/><path class="m" d="M65.98,350.67c-.33,6.65-21.13,4.36-24.46,2.37-1.28-.77-1.82-2.26-1.92-4.06-.16-2.87,.78-6.54,1.6-9.42,1.33-4.69,1.15-4.6,2.07-7.8,0,0-.24-5.21,6.58-7.2,6.82-1.99,9.31,10.98,10.48,13.47,1.07,2.29,5.21,5.41,5.64,11.04,.04,.51,.05,1.05,.02,1.6h0Z"/><path class="d" d="M46.15,335.96l-.54-.84c.25-.16,6.27-4.02,11.5-1.73l-.4,.91c-4.74-2.08-10.5,1.61-10.56,1.65h0Z"/><path class="d" d="M46.74,341.75l-.55-.84c.25-.16,6.27-4.02,11.5-1.73l-.4,.91c-4.75-2.08-10.5,1.61-10.56,1.65h0Z"/><path class="d" d="M46.45,338.85l-.54-.84c.25-.17,6.27-4.02,11.5-1.73l-.4,.91c-4.75-2.08-10.5,1.61-10.56,1.65h0Z"/><path class="d" d="M46.94,335.7c0,.62-.5,1.12-1.12,1.12s-1.12-.5-1.12-1.12,.5-1.12,1.12-1.12,1.12,.5,1.12,1.12h0Z"/><path class="d" d="M47,338.44c0,.62-.5,1.12-1.12,1.12s-1.12-.5-1.12-1.12,.5-1.12,1.12-1.12,1.12,.5,1.12,1.12h0Z"/><path class="d" d="M47.59,341.18c0,.62-.5,1.12-1.12,1.12s-1.12-.5-1.12-1.12,.5-1.12,1.12-1.12,1.12,.5,1.12,1.12h0Z"/><path class="d" d="M58.62,339.56c0,.62-.5,1.12-1.12,1.12s-1.12-.5-1.12-1.12,.5-1.12,1.12-1.12,1.12,.5,1.12,1.12h0Z"/><path class="d" d="M58.32,336.57c0,.62-.5,1.12-1.12,1.12s-1.12-.5-1.12-1.12,.5-1.12,1.12-1.12,1.12,.5,1.12,1.12h0Z"/><path class="d" d="M58.03,333.58c0,.62-.5,1.12-1.12,1.12s-1.12-.5-1.12-1.12,.5-1.12,1.12-1.12,1.12,.5,1.12,1.12h0Z"/><path class="e" d="M65.98,350.67c-.33,6.65-21.13,4.36-24.46,2.37-1.28-.77-1.82-2.26-1.92-4.06,2.18,1.25,6.04,2.8,11.79,2.9,7.05,.13,12.14-1.3,14.57-2.81,.04,.51,.05,1.05,.02,1.6h0Z"/><path class="d" d="M52.79,326.61s-3.16-.33-5.85,1.16l.31,2.11s3.77-1.11,6.26-.94c0,0-.05-1.39-.72-2.33h0Z"/><path class="i" d="M47.4,165.03s-3.92,13.85-3.88,26.19c0,0,19.16,8.39,43.54-.88,9.97-3.79,15.03-14.9,11.46-24.95-.04-.12-.08-.24-.13-.36,0,0-31.17-1.28-51,0h0Z"/><path class="l" d="M44.97,176.09c18.54,9.25,38.97,8.37,57.11-1.14-5.96-30.54-8.63-66.71-9.6-105.77l-18.66-5.01c-5.04-1.35-10.35-1.29-15.35,.19l-20.46,6.04,9.79,61.59-2.83,44.09h0Z"/><path class="h" d="M54.18,44.57h-4.02c-.34,.76-2.04,5.14,3.13,6.24,0,0,1.16,4.76,5.99,2.88-1.32-3.11-3.45-6.17-5.11-9.12h0Z"/><path class="n" d="M59.7,51.25l.23,5.64,.08,1.89,.27,6.8s6.32,3.84,13.33,1.2l.19-1.77,.18-1.73,.69-6.57-14.96-5.46h0Z"/><path class="k" d="M59.7,51.25l.23,5.64,.08,1.89c2.99,2.76,7.64,5.81,13.79,6.23l.18-1.73,.69-6.57-14.96-5.46h0Z"/><path class="k" d="M86.24,31.55s2.07-5.52,7.24-3.1c5.17,2.41,3.21,17.88-5.81,16.61,0,0-2.98-6.09-1.43-13.51h0Z"/><path class="f" d="M90.13,40.02h-.03c-.4-.02-.7-.35-.69-.75,.18-4.21,3.2-7.1,3.33-7.22,.29-.27,.74-.26,1.02,.03,.27,.29,.26,.74-.03,1.02-.04,.04-2.72,2.63-2.88,6.23-.02,.39-.33,.69-.72,.69h0Z"/><path class="f" d="M92.88,38.3c-.35,0-.65-.25-.71-.61,0-.03-.22-1.24-1.23-1.64-.37-.14-.55-.56-.41-.93,.15-.37,.56-.55,.93-.41,1.8,.7,2.11,2.68,2.12,2.76,.06,.39-.21,.76-.61,.82h-.11Z"/><path class="n" d="M53.98,45.21c.23,.66,.48,1.31,.75,1.95,.25,.58,.51,1.15,.8,1.72,6.68,13.18,30.32,13.13,33.45-.61,3.08-13.53,2.15-30.15,2.15-30.15l-37.91-.53s-3.61,14.99,.77,27.61h0Z"/><path class="k" d="M53.98,45.21c.23,.66,.48,1.31,.75,1.95,1.19-1.12,1.07-3.75,1.07-3.75-.65,1.42-1.81,1.8-1.81,1.8h0Z"/><path class="h" d="M65.74,32.03c0,.98,.79,1.77,1.77,1.77s1.77-.79,1.77-1.77-.79-1.77-1.77-1.77-1.77,.79-1.77,1.77h0Z"/><path class="h" d="M83.6,32.03c0,.98-.79,1.77-1.77,1.77s-1.77-.79-1.77-1.77,.79-1.77,1.77-1.77,1.77,.79,1.77,1.77h0Z"/><path class="h" d="M79.82,24.1s-1.6,1.76-1.03,2.7c0,0,6.01,1.57,9.13,3.79,0,0,.77-2.71-1.72-4.11-2.49-1.4-6.38-2.38-6.38-2.38h0Z"/><path class="h" d="M69.84,24.1s1.44,1.88,.8,2.77c0,0-6.1,1.05-9.38,3,0,0-.54-2.76,2.05-3.94,2.59-1.18,6.53-1.83,6.53-1.83h0Z"/><path class="k" d="M74.27,42.27c-.81,0-1.62-.17-2.23-.37-.38-.12-.58-.53-.46-.91,.13-.38,.53-.58,.91-.46,.03,0,2.99,.94,3.58-.61,.56-1.46-.45-5.77-1.22-8.14-.12-.38,.08-.78,.46-.91,.38-.12,.78,.08,.91,.46,.22,.68,2.12,6.69,1.19,9.1-.54,1.4-1.85,1.83-3.15,1.83h0Z"/><path class="n" d="M57.05,31.29s-3.45-5.17-8.62-2.76c-5.17,2.41-3.21,17.87,5.81,16.61,0,0,4.36-6.44,2.81-13.85h0Z"/><path class="k" d="M52.13,40.02c-.38,0-.7-.3-.72-.69-.16-3.61-2.85-6.21-2.88-6.23-.29-.27-.3-.73-.03-1.02,.27-.29,.73-.3,1.01-.03,.13,.12,3.15,3.01,3.33,7.22,.02,.4-.29,.73-.69,.75h-.03Z"/><path class="k" d="M49.38,38.3h-.11c-.39-.07-.67-.43-.61-.82,.01-.08,.32-2.06,2.12-2.76,.37-.14,.79,.04,.93,.41,.14,.37-.04,.79-.41,.93-1.01,.4-1.22,1.62-1.23,1.63-.05,.36-.36,.61-.71,.61h0Z"/><path class="k" d="M73.66,55.07c-1.14,0-2.45-.27-3.76-1.09-.22-.14-.29-.44-.15-.66,.14-.22,.44-.29,.66-.15,3.15,1.98,6.3,.24,6.44,.17,.23-.13,.52-.05,.65,.18,.13,.23,.05,.52-.18,.65-.1,.06-1.62,.9-3.66,.9h0Z"/><path class="h" d="M56.29,18.69s1.6,1.38,1.09,4.54c-.51,3.16-1.16,4.07-1.16,4.07,0,0,1.02,2.6,.39,5.29l-.05-.12c-.86-2.06-2.49-3.73-4.56-4.55l-.18-.07s-5.86-.27-6.2-6.88c-.34-6.61,3.96-7.4,3.96-7.4,0,0-.46-7.97,4.71-9.41,5.17-1.44,8.41,1.62,8.41,1.62,0,0,.73-4.37,5.64-4.8,4.79-.42,5.87,3.09,5.87,3.09,0,0,.55-3.65,7.38-4.05,4.05-.24,6.08,3.43,6.08,3.43,0,0,1-2.59,7.1-1.79,5.49,.72,7.01,10.43,.98,12.33,0,0,3.96,1.47,2.07,5.69-1.9,4.22-6.33,2.93-6.33,2.93,0,0-4.7,.26-6.51-3.02,0,0-2.16,3.1-7.24,2.15-5.09-.95-6.64-2.93-6.64-2.93,0,0-3.36,3.1-7.15,1.98-3.79-1.12-3.65-3.59-7.64-2.1h0Z"/><path class="h" d="M92.78,20.64s.1,8.86-1.74,13.07l-.9-4.68,.29-3.09s-2.1-3.12-1.25-4.78c.85-1.67,3.61-.52,3.61-.52h0Z"/><polygon class="h" points="73.84 43.42 73.94 43.4 73.92 43.4 73.89 43.41 73.84 43.42 73.84 43.42"/><path class="h" d="M62.58,44.39c0-.16,.02-.32,.04-.47v-.12c.09,0,1.38,.49,2.11,.74,1.44,.51,2.96,1.01,4.54,1.34,.79,.18,1.6,.3,2.41,.39l.61,.06c.21,.02,.41,.02,.61,.03l.31,.02h.37c.25,0,.49,0,.74,0h0c3.34,0,9.21-1.97,9.4-2.04h0l.04,.46c.03,.28,.05,.59,.05,.91,0,.64-.06,1.31-.17,1.98-.1,.67-.25,1.33-.44,1.98-.37,1.29-.9,2.52-1.57,3.49-.33,.48-.7,.89-1.05,1.15-.18,.14-.33,.22-.55,.33-.21,.1-.45,.2-.71,.29-.53,.17-1.12,.32-1.75,.42-.62,.1-1.27,.16-1.93,.19-1.32,.07-2.66-.01-3.98-.15-1.32-.15-2.62-.37-3.81-.72-.6-.17-1.16-.38-1.65-.63-.49-.25-.92-.53-1.21-.82-.14-.14-.26-.28-.34-.41h0v-.04l-.04-.05-.06-.11-.11-.21c-.08-.14-.15-.29-.22-.43-.29-.58-.54-1.19-.76-1.81-.22-.62-.4-1.25-.54-1.9-.14-.64-.24-1.29-.3-1.94-.06-.65-.07-1.3-.04-1.93h0Zm11.35-1.46c-.12-.02-.21-.02-.33-.04h-.19l-.25-.04c-.17-.02-.34-.03-.51-.05l-.51-.07c-.67-.11-1.34-.24-2.01-.43-1.33-.36-2.65-.86-4.01-1.41-.68-.28-1.37-.57-2.09-.86l-.14-.06-.24-.08c-.16-.05-.33-.1-.51-.13-.35-.07-.72-.09-1.1-.06-.76,.05-1.55,.35-2.18,.88-.63,.52-1.06,1.24-1.27,1.94-.05,.17-.09,.35-.12,.52l-.05,.33c-.03,.21-.07,.43-.09,.64-.1,.86-.13,1.71-.1,2.55,.03,.84,.11,1.68,.24,2.51,.13,.83,.31,1.66,.54,2.47,.23,.81,.51,1.61,.84,2.39,.08,.2,.16,.39,.26,.58l.13,.29,.07,.14,.03,.07,.02,.04,.03,.05c.27,.53,.61,1,.97,1.41,.72,.82,1.53,1.43,2.33,1.93,.81,.5,1.63,.88,2.45,1.19,1.64,.62,3.3,.99,4.96,1.16,1.66,.17,3.33,.13,5-.05,.84-.09,1.67-.24,2.52-.45,.84-.21,1.7-.47,2.56-.86,.43-.2,.86-.42,1.3-.7,.43-.27,.89-.63,1.26-1,.75-.75,1.29-1.56,1.71-2.38,.42-.81,.73-1.63,.97-2.45,.24-.82,.42-1.64,.55-2.46,.13-.82,.2-1.64,.23-2.47,.03-.83,0-1.66-.1-2.51-.05-.43-.12-.86-.24-1.32-.12-.46-.26-.93-.57-1.48-.16-.27-.37-.58-.76-.88-.19-.15-.43-.29-.71-.37-.14-.04-.28-.07-.43-.08h-.36c-.3,0-.48,.02-.69,.04-.2,.02-.4,.05-.6,.07-1.54,.2-3.01,.45-4.51,.7l-2.22,.39-1.11,.2-.56,.1-.28,.05-.11,.02h-.03Z"/><path class="d" d="M66,46.33s.16,.88,.68,2c.19,.41,.42,.85,.71,1.28,1.09,1.64,2.97,3.27,6.12,3.27,3.53,0,5.46-1.66,6.51-3.31h0c.28-.45,.5-.89,.67-1.3,.45-1.09,.54-1.94,.54-1.94,0,0-6.48,2.3-15.23,0h0Z"/><path class="j" d="M75.87,49.77s2.36,.2,4.16-.2h0c.28-.45,.5-.89,.67-1.3-.79,.38-2.73,1.24-4.83,1.5h0Z"/><path class="j" d="M66.68,48.32c.19,.41,.42,.85,.71,1.28,1.77,.36,4,.17,4,.17-2-.25-3.86-1.04-4.71-1.45h0Z"/><path class="n" d="M32.73,176.57s1.54,3.53,3.07,6.04c1.54,2.51,.94,4.67,1.96,6.98,1.02,2.31-1.88,2.48-2.73,.02-.85-2.45-.76-3.67-1.29-3.69-.54-.02-1.31,6.29-1.32,8.08,0,1.79,.88,6.16,.29,6.92-.58,.77-2.46-1.53-2.5-6.18-.04-4.65-.4-4.51-.4-4.51,0,0-.22,1.83-.45,3.8-.23,1.97,.04,4.31,.29,5.61,.24,1.3-1.02,2.11-1.49,1.45-.48-.66-1.64-5.15-1.32-7,.32-1.85,.6-4.99,.6-4.99,0,0-1.27,4.32-1.44,5.41s.8,5.08-.03,5.93c-.35,.35-1.62,.09-2.09-5.7,0,0,.09-2.86,.49-4.68,0,0-.79,1.41-1.04,3.22-.22,1.59-.26,3.23-.21,4.8,.05,1.57-1.32,1.53-1.65-1.22-.33-2.75-.22-5.84,.38-7.39,.6-1.55,.71-10.25,2.63-13.66l8.27,.74h0Z"/><path class="l" d="M48.68,84.94s-3.88,28.13-8.15,39.33c0,0-1.28,15.19-7.51,52.84,0,0-5.25,2.84-8.95-.96,0,0-1.24-39.73,1.92-53.78,0,0,8.09-45.71,12.03-51.95,0,0,8.81,5.03,10.67,14.53h0Z"/></g></g></g></svg>