<?xml version="1.0" encoding="UTF-8"?><svg xmlns="http://www.w3.org/2000/svg" viewBox="0 0 162.75 371.16"><defs><style>.d{fill:#fff;}.e{fill:#009059;}.f{fill:#ef7b62;}.g{fill:#d5951f;}.h{fill:#1a744a;}.i{fill:#352e32;}.j{fill:#3d314c;}.k{fill:#1d1716;}.l{fill:#b97923;}.m{fill:#e1dfde;}.n{fill:#f5a67f;}</style></defs><g id="a"/><g id="b"><g id="c"><g><path class="d" d="M78.18,371.16c-33.67,0-60.97-4.14-60.97-9.25s27.3-9.25,60.97-9.25,60.97,4.14,60.97,9.25-27.3,9.25-60.97,9.25"/><path class="d" d="M78.04,332.03c-23.3,0-46.86-9.74-64.03-31.39-9.67-12.19-11.98-41.58-9.48-57.08,10.1-62.49,42.14-68.87,18.22-108.4C-1.08,95.79-3.38,24.44,61.88,24.44c.26,0,.51,0,.77,0,66.05,.56,23.47,106.13,68.97,135.66,20.81,13.51,33.46,53.84,30.77,93.42-3.29,48.43-43.42,78.51-84.36,78.51"/><path class="d" d="M134.11,143.58c-2.98,0-5.89-1.37-7.86-3.76-4.3-5.21-11.15-15.72-9.11-27.96,.93-5.59,3.84-7.97,7.41-7.97,7.59,0,18.22,10.73,19.4,24.09,.87,9.83-2.75,13.66-6.59,15.03-1.06,.38-2.16,.56-3.25,.56"/><path class="d" d="M115.29,97.29c-.54,0-1.05-.1-1.52-.25-2.1-.68-3.49-2.66-3.56-4.87-.11-3.52,.42-10.05,5.17-14.44,1.26-1.16,2.44-1.67,3.5-1.67,4.67,0,6.94,9.83,2.41,16.88-2.13,3.32-4.22,4.34-6,4.34"/><path class="d" d="M5.64,182.51c-.23,0-.46-.02-.68-.05-2.19-.29-3.92-1.98-4.38-4.14-.75-3.44-1.41-9.96,2.47-15.14,1.22-1.63,2.5-2.33,3.73-2.33,4.33,0,7.88,8.79,4.84,16.22-1.74,4.26-4,5.44-5.97,5.44"/><path class="n" d="M127.94,169.26s3.53,.73,6.39,2.04c2.86,1.31,6.3,2.98,8.05,3.82,2.11,1.01,.28,2.88-2.71,1.64-2.99-1.24-3.68-1.5-3.68-1.5,0,0,10.03,7.51,11.72,10.42,1.55,2.65-4.18-1.21-9.11-4.15,0,0,8.42,8.93,7.9,10.96-.68,2.65-10.85-8.2-10.85-8.2,0,0,6.31,9.12,5.12,9.72-1.33,.67-8.93-7.87-8.93-7.87,0,0,3.78,6.65,2.85,6.76-1.85,.23-12.6-11.99-12.96-19.43,0,0,4.4-4.21,6.21-4.21h0Z"/><path class="f" d="M137.69,179.03s-3.38,4.82-8.78,5.63c0,0,5.28,1.68,8.78-5.63h0Z"/><path class="f" d="M131.73,179.08s-6.37-2.59-3.93-8.14c0,0-4.76,5.36,3.93,8.14h0Z"/><path class="h" d="M105.74,127.98c-4.85-41.74-14.29-58.44-14.29-58.44-8.54,34.94-1.88,53.95,1,63.06,2.87,9.11,29.28,41.96,29.28,41.96,2.04-2.56,4.77-4.42,7.38-5.02,0,0-8.37-14.75-11.33-20.28-2.96-5.52-12.04-21.28-12.04-21.28h0Z"/><path class="k" d="M103.76,265.49l-6.7,80.94h-11.81c-2.73-31.54-7.14-59.18-2.17-80.94-5.01-24.53-8.73-80.21-8.73-80.21,9.01-4.12,23.46-7.89,23.46-7.89,4.79,27.22,5.95,88.1,5.95,88.1h0Z"/><path class="g" d="M124.47,365.52h-38.62c-1.83,0-3.32-1.36-3.54-3.1-.03-.25-.04-.5-.02-.75l1.57-20.28s1.61-.74,3.86-1.27c1.33-.32,2.46-1.28,2.86-2.6,.03-.1,.05-.2,.08-.29,.89-3.91,6.52-5.15,7.55-1.33,.13,.49,.25,.97,.35,1.43,.02,.11,.05,.23,.07,.34,.17,.82,.29,1.57,.37,2.23v.04c.22,1.68,.2,2.76,.2,2.76,.51,.65,1,1.29,1.48,1.92,.24,.31,.48,.62,.71,.93,.51,.66,1,1.3,1.49,1.92,.22,.29,.45,.57,.67,.85,.54,.67,1.06,1.31,1.59,1.9,.24,.27,.48,.53,.72,.79,1.99,2.09,4,3.52,6.37,3.85,4.19,.57,11.03,1.04,14.33,7.18,.07,.13,.12,.26,.17,.39,.49,1.48-.63,3.1-2.27,3.1h0Z"/><path class="l" d="M124.47,365.52h-38.62c-1.83,0-3.32-1.36-3.54-3.1h44.43c.49,1.48-.63,3.1-2.27,3.1h0Z"/><path class="d" d="M101.4,345.54c-.45,.66-1.36,1.45-3.2,2.19-.31,.13-.65,.25-1.02,.37l-.33-1.01c.37-.12,.7-.24,.99-.36,2.11-.85,2.69-1.69,2.85-2.12,.24,.31,.48,.62,.71,.93h0Z"/><path class="d" d="M98.21,347.6c0,.66-.54,1.2-1.2,1.2s-1.2-.54-1.2-1.2,.54-1.2,1.2-1.2,1.2,.54,1.2,1.2h0Z"/><path class="d" d="M103.56,348.31c-.5,.53-1.32,1.11-2.64,1.66-.37,.16-.77,.31-1.22,.46l-.33-1.01c.42-.14,.79-.28,1.13-.42,1.35-.56,2.05-1.11,2.4-1.54,.22,.29,.45,.57,.67,.85h0Z"/><path class="d" d="M100.92,349.93c0,.66-.54,1.2-1.2,1.2s-1.2-.54-1.2-1.2,.54-1.2,1.2-1.2,1.2,.54,1.2,1.2h0Z"/><path class="d" d="M105.87,351c-.5,.51-1.3,1.07-2.56,1.59-.37,.16-.79,.32-1.24,.46l-.33-1.01c.42-.14,.8-.28,1.14-.42,1.21-.5,1.9-1,2.28-1.41,.24,.27,.48,.53,.72,.79h0Z"/><path class="d" d="M103.31,352.55c0,.66-.54,1.2-1.2,1.2s-1.2-.54-1.2-1.2,.54-1.2,1.2-1.2,1.2,.54,1.2,1.2h0Z"/><path class="d" d="M99.01,339.9c-1.77-.02-3.44,.2-3.44,.2l.02-1.93c1.05-.39,2.13-.5,3.05-.5,.17,.82,.29,1.57,.37,2.23h0Z"/><path class="i" d="M67.99,185.28s-.3,32.13-4.86,80.21c-2.97,26.2-6.28,59.06-9.96,80.94h-11.82l-1.67-80.94s-2.71-49.81,3.17-84.14l25.14,3.93h0Z"/><path class="g" d="M63.53,362.82c-.34,6.8-21.62,4.46-25.02,2.42-1.31-.79-1.86-2.31-1.97-4.15-.17-2.94,.8-6.69,1.64-9.64,1.36-4.79,1.17-4.7,2.12-7.98,0,0-.25-5.33,6.73-7.36,6.97-2.04,9.53,11.23,10.72,13.78,1.09,2.34,5.33,5.54,5.76,11.29,.04,.52,.05,1.07,.02,1.64h0Z"/><path class="d" d="M43.24,347.78l-.56-.86c.26-.17,6.41-4.11,11.76-1.77l-.41,.94c-4.85-2.13-10.74,1.65-10.8,1.69h0Z"/><path class="d" d="M43.85,353.7l-.56-.86c.26-.17,6.41-4.11,11.76-1.77l-.41,.94c-4.86-2.13-10.74,1.65-10.8,1.69h0Z"/><path class="d" d="M43.54,350.74l-.56-.86c.26-.17,6.41-4.11,11.76-1.77l-.41,.94c-4.85-2.13-10.74,1.65-10.8,1.69h0Z"/><path class="d" d="M44.05,347.51c0,.63-.51,1.15-1.15,1.15s-1.15-.51-1.15-1.15,.51-1.15,1.15-1.15,1.15,.51,1.15,1.15h0Z"/><path class="d" d="M44.11,350.32c0,.63-.51,1.15-1.15,1.15s-1.15-.52-1.15-1.15,.51-1.15,1.15-1.15,1.15,.51,1.15,1.15h0Z"/><path class="d" d="M44.72,353.12c0,.63-.52,1.15-1.15,1.15s-1.15-.51-1.15-1.15,.51-1.15,1.15-1.15,1.15,.51,1.15,1.15h0Z"/><path class="d" d="M56,351.46c0,.63-.51,1.15-1.15,1.15s-1.15-.51-1.15-1.15,.51-1.15,1.15-1.15,1.15,.51,1.15,1.15h0Z"/><path class="d" d="M55.69,348.4c0,.63-.52,1.15-1.15,1.15s-1.15-.51-1.15-1.15,.51-1.15,1.15-1.15,1.15,.52,1.15,1.15h0Z"/><path class="d" d="M55.39,345.34c0,.64-.51,1.15-1.15,1.15s-1.15-.51-1.15-1.15,.52-1.15,1.15-1.15,1.15,.51,1.15,1.15h0Z"/><path class="l" d="M63.53,362.82c-.34,6.8-21.62,4.46-25.02,2.42-1.31-.79-1.86-2.31-1.97-4.15,2.23,1.28,6.17,2.86,12.06,2.97,7.22,.13,12.42-1.33,14.91-2.88,.04,.52,.05,1.07,.02,1.64h0Z"/><path class="d" d="M50.03,338.21s-3.23-.34-5.99,1.19l.31,2.16s3.86-1.14,6.41-.96c0,0-.05-1.42-.74-2.38h0Z"/><path class="i" d="M44.52,172.94s-4,14.16-3.96,26.79c0,0,19.6,8.58,44.54-.9,10.2-3.88,15.38-15.24,11.72-25.52-.04-.12-.09-.24-.13-.37,0,0-31.89-1.31-52.17,0h0Z"/><path class="e" d="M103.76,181.11c-4.05,1.89-8.33,3.59-12.76,4.98-1.18,.37-2.37,.72-3.56,1.04-6.27,1.69-12.79,2.73-19.38,2.82-10.85,.15-21.84-2.27-32.08-8.59l6.92-41.11-11.45-66.86,17.13-5.87,.92-.32,1.69-.58,.71-.24,1.44-.49,3.05-1.05,18.11,2.42,1.09,.14,1.86,.25,1.04,.14,12.96,1.73,12.31,111.58h0Z"/><path class="d" d="M87.44,187.12c-6.27,1.69-12.79,2.73-19.38,2.82,.29-1.84,.53-3.75,.72-5.72,.1-.98,.18-1.98,.25-2.98,.14-1.98,.23-4,.28-6.08,.02-.98,.04-1.97,.04-2.97,0-1.98-.02-4-.07-6.05-.03-.98-.07-1.97-.11-2.96-.09-1.99-.2-4-.34-6.03-.07-.98-.14-1.96-.22-2.95-.16-1.99-.34-4-.55-6.02-.1-.98-.21-1.97-.32-2.95-.22-2-.46-4.01-.72-6.01-.13-.98-.26-1.97-.39-2.95-.28-2.01-.57-4.01-.87-6-.15-.99-.3-1.97-.46-2.95-.32-2.02-.66-4.02-1-6.01-.17-.99-.35-1.98-.52-2.96-.36-2.03-.74-4.03-1.12-6.01-.19-.99-.38-1.98-.57-2.96-.4-2.04-.81-4.05-1.23-6.03-.21-1-.42-1.99-.63-2.97-.44-2.06-.88-4.07-1.32-6.03-.23-1-.45-2-.68-2.97-.48-2.09-.96-4.11-1.42-6.05-.24-1.02-.49-2.01-.72-2.98-.53-2.15-1.04-4.18-1.53-6.07-.27-1.04-.52-2.04-.78-2.99-.69-2.64-1.32-4.95-1.86-6.88l1.44-.49,3.05-1.05,18.11,2.42,1.09,.14c.33,1.71,.65,3.42,.96,5.14,.18,.97,.35,1.95,.52,2.92,.34,1.95,.68,3.9,1,5.86,.17,.98,.32,1.95,.48,2.93,.31,1.96,.62,3.91,.92,5.86,.15,.98,.29,1.95,.44,2.93,.29,1.96,.57,3.91,.84,5.86,.14,.98,.27,1.96,.4,2.94,.26,1.96,.52,3.92,.76,5.87,.12,.99,.25,1.97,.37,2.95,.24,1.97,.47,3.93,.7,5.87,.11,.99,.22,1.97,.33,2.95,.22,1.98,.43,3.94,.63,5.88,.1,.99,.2,1.98,.3,2.96,.2,1.99,.39,3.96,.57,5.89,.09,1,.18,1.99,.27,2.97,.18,2,.35,3.97,.5,5.9,.08,1.01,.16,2,.24,2.98,.15,2.02,.3,3.99,.43,5.91,.07,1.01,.14,2.01,.2,2.99,.13,2.04,.25,4.02,.36,5.93,.06,1.02,.11,2.02,.16,2.99,.11,2.08,.2,4.07,.27,5.95,.04,1.03,.08,2.04,.11,3.01,.07,2.15,.12,4.15,.15,5.98,.02,1.07,.03,2.08,.03,3.03,0,2.05-.02,3.81-.07,5.26h0Z"/><path class="m" d="M77.08,75.47c-4.75,.61-9.99,.92-15.77,.92-2.18,0-4.44-.04-6.78-.13-.27-1.04-.52-2.04-.78-2.99,8.68,.36,16.23,.12,22.8-.71,.18,.97,.35,1.95,.52,2.92h0Z"/><path class="m" d="M78.56,84.26c-5.2,.74-10.98,1.11-17.44,1.11-1.41,0-2.86-.02-4.34-.05-.24-1.02-.49-2.01-.72-2.98,8.38,.23,15.67-.1,22.02-.99,.17,.98,.32,1.95,.48,2.93h0Z"/><path class="m" d="M79.91,93.05c-5.6,.87-11.91,1.3-19.01,1.3-.67,0-1.34,0-2.02-.01-.23-1-.45-2-.68-2.97,8.07,.12,15.12-.29,21.27-1.24,.15,.98,.29,1.95,.44,2.93h0Z"/><path class="m" d="M81.15,101.85c-5.93,.98-12.67,1.48-20.32,1.48-.21-1-.42-1.99-.63-2.97,7.78,.02,14.59-.46,20.54-1.46,.14,.98,.27,1.96,.4,2.94h0Z"/><path class="m" d="M82.28,110.66c-5.75,1.01-12.26,1.56-19.65,1.65-.19-.99-.38-1.98-.57-2.96,7.51-.07,14.09-.62,19.86-1.64,.12,.99,.25,1.97,.37,2.95h0Z"/><path class="m" d="M83.31,119.49c-5.59,1.03-11.9,1.63-19.04,1.8-.17-.99-.35-1.98-.52-2.96,7.26-.15,13.63-.74,19.22-1.8,.11,.99,.22,1.97,.33,2.95h0Z"/><path class="m" d="M84.24,128.33c-5.44,1.05-11.58,1.69-18.5,1.92-.15-.99-.3-1.97-.46-2.95,7.03-.21,13.21-.86,18.66-1.92,.1,.99,.2,1.98,.3,2.96h0Z"/><path class="m" d="M85.07,137.19c-5.32,1.06-11.32,1.73-18.07,2.02-.13-.98-.26-1.97-.39-2.95,6.84-.28,12.87-.95,18.2-2.03,.09,1,.18,1.99,.27,2.97h0Z"/><path class="m" d="M85.81,146.07c-5.24,1.07-11.13,1.77-17.77,2.1-.1-.98-.21-1.97-.32-2.95,6.7-.32,12.62-1.03,17.84-2.13,.08,1.01,.16,2,.24,2.98h0Z"/><path class="m" d="M86.44,154.97c-5.2,1.09-11.05,1.81-17.62,2.17-.07-.98-.14-1.96-.22-2.95,6.62-.36,12.47-1.09,17.64-2.2,.07,1.01,.14,2.01,.2,2.99h0Z"/><path class="m" d="M86.96,163.9c-5.22,1.11-11.09,1.85-17.69,2.24-.03-.98-.07-1.97-.11-2.96,6.62-.39,12.47-1.15,17.64-2.27,.06,1.02,.11,2.02,.16,2.99h0Z"/><path class="m" d="M87.33,172.86c-5.31,1.13-11.3,1.9-18.03,2.3,.02-.98,.04-1.97,.04-2.97,6.71-.41,12.64-1.19,17.88-2.34,.04,1.03,.08,2.04,.11,3.01h0Z"/><path class="m" d="M87.51,181.86c-5.5,1.16-11.71,1.95-18.73,2.36,.1-.98,.18-1.98,.25-2.98,6.95-.42,13.07-1.22,18.46-2.4,.02,1.07,.03,2.08,.03,3.03h0Z"/><path class="j" d="M93.83,16.12s4.59,3.03,2.95,11.25c-1.64,8.22-4.82,9.1-4.82,9.1,0,0-4.81-18.2,1.88-20.34h0Z"/><path class="n" d="M72.73,54.53l-.58,10.4-.27,4.76c-5.99,4.43-15.72-1.67-15.72-1.67l-1.04-15.41c2.77-1.87,9.91-.31,14.2,.88,2.02,.56,3.41,1.04,3.41,1.04h0Z"/><path class="f" d="M72.73,54.53l-.58,10.4c-7.03-1.62-12.92-11.37-12.92-11.37l10.09-.07c2.02,.56,3.41,1.04,3.41,1.04h0Z"/><path class="j" d="M92.91,20.31s11.21-5.22,7.93-14.42c-3.29-9.21-16.7-4.97-28.77-4.51-19.43,.74-25.51,10.84-25.02,21.37,.49,10.52,.38,24.63,5.15,29.89,4.77,5.26,8.03-2.18,10.49-8.76,2.47-6.58,17.69-26.73,30.22-23.56h0Z"/><path class="n" d="M93.92,29.26c0,.36-.01,.72-.02,1.08-.2,6.53-1.33,14.47-2.43,20.93-1.18,6.85-7.78,11.38-14.6,10.01-8.21-1.66-18.33-4.17-22.95-7.21-1.4-.92-2.3-1.89-2.47-2.9-.42-2.35-.64-5.57-.75-9.06-.33-10.6,.45-23.81,.45-23.81,9.86-12.25,37.36-7.47,41.54,1.49,.96,2.05,1.29,5.45,1.23,9.47h0Z"/><path class="j" d="M77.62,35.18c0,1.38-.61,2.49-1.37,2.49s-1.37-1.12-1.37-2.49,.61-2.49,1.37-2.49,1.37,1.12,1.37,2.49h0Z"/><path class="j" d="M91.65,35.18c0,1.38-.61,2.49-1.37,2.49s-1.37-1.12-1.37-2.49,.61-2.49,1.37-2.49,1.37,1.12,1.37,2.49h0Z"/><path class="j" d="M50.65,32.4s4.39-2.86,8.09,2.24h2.88s-.16-5.91,1.23-9.12c1.4-3.21,6.9-3.12,7.73-6.91,0,0,13,5.17,22.33,1.68,9.32-3.49-18.63-19.03-32.11-11.47-13.48,7.56-12.24,13.5-10.15,23.56h0Z"/><path class="j" d="M70.31,31.72s1.32-2.71,3.85-3.39c2.35-.63,4.02-.02,4.86,.43,.37,.2,.52,.64,.38,1.03-.17,.46-.7,.68-1.15,.47-1.42-.66-4.54-1.51-7.94,1.45h0Z"/><path class="j" d="M93.92,29.26c0,.36-.01,.72-.02,1.08-2.55-1.24-4.75-.59-5.88-.07-.12,.05-.24,.08-.36,.08-.34,0-.66-.21-.79-.55-.14-.39,.01-.83,.38-1.03,.84-.46,2.51-1.06,4.86-.43,.7,.19,1.3,.53,1.82,.92h0Z"/><path class="j" d="M53.92,54.07c-1.4-.92-2.3-1.89-2.47-2.9-.42-2.35-.64-5.57-.75-9.06l7.26,4.99s.09,5.17-4.04,6.98h0Z"/><path class="n" d="M58.74,34.65s-4.41-5.34-8.09-2.24c-4.06,3.41-.95,14.96,7.3,14.7l.79-12.45h0Z"/><path class="f" d="M58.16,44.6c-.36,0-.68-.27-.72-.64-.67-5.84-4.14-6.74-4.29-6.78-.39-.09-.63-.48-.54-.87,.09-.39,.47-.63,.86-.55,.19,.04,4.61,1.11,5.41,8.03,.05,.4-.24,.76-.64,.8h-.08Z"/><path class="f" d="M53.52,40.89c-.17,0-.35-.06-.49-.19-.3-.27-.32-.72-.06-1.02,.06-.07,1.49-1.65,3.88-1.12,.39,.09,.64,.47,.55,.87-.09,.39-.47,.64-.86,.55-1.53-.34-2.45,.63-2.49,.67-.14,.16-.34,.24-.54,.24h0Z"/><path class="f" d="M84.43,49.84c-2.9,0-6.96-.77-10.09-4.38-.26-.3-.23-.76,.07-1.02,.3-.26,.76-.23,1.03,.07,4.75,5.46,12.2,3.52,12.28,3.5,.39-.1,.79,.12,.89,.51,.1,.39-.12,.79-.51,.89-.14,.04-1.61,.43-3.66,.43h0Z"/><path class="f" d="M81.33,53.35c-3.73,0-5.57-2.42-5.66-2.54-.24-.32-.17-.78,.15-1.02,.32-.24,.77-.17,1.01,.15,.08,.11,1.94,2.48,5.79,1.84,.39-.07,.77,.2,.84,.6,.07,.4-.2,.77-.6,.84-.54,.09-1.06,.13-1.54,.13h0Z"/><path class="f" d="M84.23,43.19c-.22,0-.44-.1-.58-.29-.24-.32-.18-.77,.14-1.02l1.94-1.48-1.68-.44c-.28-.07-.49-.3-.53-.59l-.74-4.62c-.06-.4,.21-.77,.6-.83,.39-.07,.77,.21,.83,.6l.67,4.15,2.66,.69c.27,.07,.47,.29,.53,.56,.05,.27-.05,.55-.27,.72l-3.12,2.38c-.13,.1-.29,.15-.44,.15h0Z"/><path class="n" d="M43.83,185.14s3.23,1.03,4.2,2.92c0,0,0,11.94-6.02,17.15,0,0-2.96-7.18-6.02-14.07l7.83-6h0Z"/><path class="e" d="M31.45,73.39s-12.01,37.55-13.08,56.86c0,0,0,36.12,17.62,60.89l7.83-6s-9.88-35.93-9.88-49.95c0,0,10-26.02,11.64-36.28,0,0-6.72-25.52-14.14-25.52h0Z"/></g></g></g></svg>