<?xml version="1.0" encoding="UTF-8"?><svg xmlns="http://www.w3.org/2000/svg" viewBox="0 0 235 235"><defs><style>.d{fill:#4d4d4d;}.e{fill:none;}</style></defs><g id="a"/><g id="b"><g id="c"><rect class="e" width="235" height="235"/><g><path class="d" d="M49.13,88.49c20.39-2.45,40.84-7.38,60.32-15.68,5.65-2.41,10.1-2.14,15.62,.51,17.78,8.52,36.59,13.71,56.34,15.12,.72,.05,1.43,.29,2.54,.53-4.04,13.14-3.63,26.12,.75,40.02-10.08,2.72-19.72,5.87-29.58,7.87-32.2,6.55-64.22,6.28-95.79-3.92-.29-.09-.59-.14-.88-.24-10.46-3.55-9.87-3.5-9.06-14.53,.71-9.61-.11-19.34-.26-29.69Zm69.77,45.49v-50.5h-6.85v50.5h6.85Zm16.02-46.13v40.25h6.82v-40.25h-6.82Zm-46.47,40.33h6.91v-40.17h-6.91v40.17Zm-15.44-3.03v-31.27h-6.58v31.27h6.58Zm84.59-31.33v31.21h6.86v-31.21h-6.86Z"/><path class="d" d="M54.45,80.08c4.49-26.69,27.44-59.54,62.83-59.34,13.77,.08,25.76,5.21,36.11,14.06,14.03,11.98,21.96,27.54,26.29,46.54-7.04-1.27-13.69-1.72-19.82-3.73-13.06-4.29-25.88-9.28-38.71-14.24-2.53-.98-4.45-1.52-7.14-.29-17.61,8-36.06,13.32-55.08,16.67-1.32,.23-2.68,.21-4.49,.33Z"/><path class="d" d="M186.01,196.62c-31.47-2.76-49,1.8-69.57,17.63-18.88-17.6-41.83-22.46-66.89-20.28,1.85-7.05,10.59-20.28,18.99-28.72,12.72,13.26,27.9,21.58,46.68,22.07,18.87,.49,34.45-7.09,48.65-20.84,7.3,9.95,14.38,19.59,22.14,30.15Z"/><path class="d" d="M85.44,147.63h61.08c-2.56,8.47-5.22,17.55-8.12,26.57-.33,1.03-1.8,1.99-2.95,2.41-13.26,4.9-26.46,4.53-39.49-.88-1.23-.51-2.6-1.81-2.99-3.03-2.66-8.36-5.08-16.79-7.53-25.07Z"/><path class="d" d="M147.6,169.67c2.35-7.78,4.49-15.28,6.95-22.68,.41-1.22,2.08-2.46,3.42-2.85,4.49-1.31,9.08-2.25,13.6-3.32-.65,7.26-14.8,24.54-23.97,28.85Z"/><path class="d" d="M61.79,141.87c4.87,1.12,9.16,2,13.36,3.15,.95,.26,2.09,1.33,2.39,2.27,2.17,6.76,4.14,13.57,6.25,20.63-6.9-2.98-17.14-15.1-22.01-26.05Z"/></g></g></g></svg>